<svg width="405" height="2612" viewBox="0 0 405 2612" fill="none" xmlns="http://www.w3.org/2000/svg">
<path d="M91.125 71.9045C70.6604 17.671 0 0 0 0H405C405 0 389.052 83.5661 364.789 120.599C326.714 178.714 189.685 135.164 218.266 205.474C235.66 248.264 352.116 124.477 353.652 175.21C355.129 224.004 245.509 241.264 242.566 289.894C240.184 329.253 264.904 340.615 279.161 373.175C295.345 410.138 282.986 456.978 307.702 466.33C328.759 474.298 338.061 407.605 356.71 425.103C378.622 445.66 324.033 475.185 324.949 515.68C325.73 550.28 347.534 577.537 351.393 593.678C381.883 721.223 295.48 756.653 324.949 884.791C331.679 914.056 345.138 957.363 351.393 986.888C372.702 1087.46 371.3 1080.01 334.559 1155.48C297.818 1230.94 138.857 1428.08 169.232 1459.71C199.607 1491.34 257.481 1369.18 297.386 1392.13C337.768 1415.34 340.768 1473.91 353.652 1538.44C396.37 1752.41 159.032 1941.22 257.175 2103.89C285.613 2151.02 321.14 2141.64 346.564 2192.86C408.571 2317.78 269.904 2612 269.904 2612H122.223C122.223 2612 344.769 2327.03 269.904 2172.84C254.288 2140.68 237.23 2134.93 220.725 2103.89C138.852 1949.91 404.176 1460.92 293.625 1561.19C256.528 1594.84 221.068 1785.15 190.205 1738.45C141.027 1664.04 282.632 1590 269.904 1505.44C242.98 1326.59 40.3554 1993.99 47.4429 1834.02C52.3089 1724.19 130.761 1666.96 131.046 1556.87C131.301 1458.59 60.0418 1466.74 67.4036 1369.14C75.7163 1258.94 125.044 1243.74 190.205 1201.22C242.855 1166.86 289.11 1140.94 310.114 1067.65C332.043 991.127 278.846 942.238 279.161 858.303C279.468 776.445 338.308 768.506 310.114 699.704C272.942 608.991 89.0716 907.148 102.118 801.189C113.633 707.67 296.053 708.581 279.161 617.105C268.294 558.261 152.888 625.524 180.514 581.152C200.661 548.795 241.622 553.913 269.904 545.428C329.475 527.554 85.1844 449.784 140.448 410.493C177.363 384.248 210.586 478.282 242.566 439.164C284.825 387.472 220.862 302.23 180.514 246.887C154.58 211.314 120.786 229.099 102.118 183.63C86.8908 146.542 105.407 109.752 91.125 71.9045Z" fill="url(#paint0_linear_151_1260)" fill-opacity="0.2"/>
<defs>
<linearGradient id="paint0_linear_151_1260" x1="202.5" y1="0" x2="202.5" y2="2612" gradientUnits="userSpaceOnUse">
<stop stop-color="#F56522"/>
<stop offset="0.33" stop-color="#DA4C0A"/>
<stop offset="0.66" stop-color="#36D38B"/>
<stop offset="1" stop-color="#6522F5"/>
</linearGradient>
</defs>
</svg>
