<svg width="1728" height="748" viewBox="0 0 1728 748" fill="none" xmlns="http://www.w3.org/2000/svg">
<path d="M303.5 131.5C148.981 160.978 -36.6125 331.788 -63.6512 357.31C-65.9225 359.454 -67.3029 362.151 -67.8665 365.223L-100.044 540.612C-101.437 548.207 -96.9107 555.592 -89.476 557.678C-28.538 574.777 232.995 646.907 412 676.5C554.922 700.128 635.644 717.619 780.5 719C1039.05 721.465 1179.34 546.073 1432 601C1546.35 625.859 1695.03 711.361 1751.18 745.378C1761.24 751.469 1774.24 744.306 1774.42 732.549L1785.62 16.147C1785.8 5.02686 1774.26 -2.54663 1764.09 1.94923C1711.74 25.0857 1576.32 81.1394 1476.5 89C1325.82 100.865 1246.07 -6.32228 1096.5 15.5C938.611 38.5366 895.179 184.035 738 211.5C568.04 241.199 472.979 99.1681 303.5 131.5Z" fill="url(#paint0_linear_70_16101)"/>
<defs>
<linearGradient id="paint0_linear_70_16101" x1="1366" y1="299" x2="185.5" y2="936.5" gradientUnits="userSpaceOnUse">
<stop stop-color="#FF843D"/>
<stop offset="1" stop-color="#FFD1B7"/>
</linearGradient>
</defs>
</svg>
