<svg width="330" height="1116" viewBox="0 0 330 1116" fill="none" xmlns="http://www.w3.org/2000/svg">
<path d="M167 0V57.2823C167 96.0271 198.473 127.402 237.217 127.282L257.783 127.218C296.527 127.098 328 158.473 328 197.218V253.5C328 292.16 296.66 323.5 258 323.5H72C33.3401 323.5 2 354.84 2 393.5V498.5C2 537.16 33.3401 568.5 72 568.5H258C296.66 568.5 328 599.84 328 638.5V686.5C328 725.16 296.66 756.5 258 756.5H72C33.3401 756.5 2 787.84 2 826.5V899.5C2 938.16 33.3401 969.5 72 969.5H97C135.66 969.5 167 1000.84 167 1039.5V1115.5" stroke="#FF843D" stroke-width="3"/>
</svg>
