<svg width="160" height="78" viewBox="0 0 160 78" fill="none" xmlns="http://www.w3.org/2000/svg">
<g clip-path="url(#clip0_180_481)">
<path d="M21.0142 22.4338C21.8607 21.5872 22.4279 21.332 23.4034 20.9039C24.4213 20.4046 25.4393 20.1549 26.4572 20.1549C28.2385 20.1549 29.7231 20.6186 30.9106 21.546C32.0982 22.402 33.1397 24.9734 33.2893 25.3967C33.439 25.8201 33.8622 27.0899 34.4591 29.8402C34.8832 32.3371 35.2862 34.7625 35.668 37.1166C36.0496 39.3994 36.4101 41.6821 36.7494 43.9649C37.1312 46.2478 37.4917 48.6374 37.831 51.1343H38.1491C38.5308 46.7828 38.8701 42.6451 39.167 38.7217C39.4639 34.7268 39.7397 30.839 39.994 27.0581C40.2485 23.2059 40.5031 19.425 40.7576 15.7155C41.012 11.9347 41.2665 8.11817 41.521 4.26598C43.0902 2.7679 44.7657 2.01886 46.5469 2.01886C48.1161 2.01886 49.4736 2.58956 50.6186 3.73095C51.7638 4.87234 52.3364 6.79843 52.3364 9.50923C52.3364 11.0787 52.2303 13.3258 52.0183 16.2506C51.8486 19.104 51.5941 22.3141 51.2548 25.881C50.9579 29.4479 50.5974 33.1931 50.1733 37.1166C49.7491 41.0401 49.3038 44.7853 48.8373 48.3521C48.3708 51.9191 47.883 55.1648 47.374 58.0896C46.9075 60.943 46.4621 63.1546 46.038 64.724C45.4018 65.7227 44.3626 66.5431 42.9206 67.1851C41.4786 67.8271 39.994 68.1481 38.4672 68.1481C36.4739 68.1481 34.7772 67.7201 33.3776 66.8641C32.0204 65.9367 31.1933 64.6527 30.8964 63.0119C30.345 60.1585 29.7513 56.7698 29.1151 52.8464C28.4789 48.9229 27.8001 44.607 27.0792 39.8987C26.4854 44.5357 25.8703 49.0655 25.2342 53.4884C24.598 57.9113 24.0254 61.6565 23.5164 64.724C22.8802 65.7227 21.9258 66.5431 20.6535 67.1851C19.3811 67.8271 17.9814 68.1481 16.4546 68.1481C14.5461 68.1481 12.807 67.7201 11.2378 66.8641C9.71105 65.9367 8.71414 64.6527 8.24762 63.0119C7.86593 61.7278 7.44175 59.8374 6.97522 57.3406C6.55111 54.7725 6.10572 51.8833 5.6392 48.6732C5.17268 45.3917 4.68487 41.8606 4.17594 38.0796C3.7094 34.2987 3.69671 34.3152 3.2726 30.5344C2.89091 26.7535 2.53036 23.0797 2.19106 19.5129C2.54032 23.2581 2.28585 19.9409 2.11621 16.9447C2.70997 16.0173 3.53712 15.1613 4.5974 14.3766C5.65767 13.5919 6.80296 13.1996 8.03288 13.1996C9.64451 13.1996 10.9595 13.8059 11.9774 15.0186C13.0376 16.16 13.6951 18.1218 13.9496 20.9039C14.6281 28.1803 14.0583 23.0632 14.4824 27.9141C14.9489 32.7651 15.3094 36.7599 15.5639 39.8987C15.8608 42.9662 16.0729 45.356 16.2 47.0681C16.3273 48.7802 16.4546 50.1355 16.5818 51.1343H16.9C17.2816 48.2809 17.6421 45.6413 17.9814 43.2159C18.3207 40.7905 18.66 38.3649 18.9994 35.9395C19.3811 33.4427 19.7629 30.8033 20.1446 28.0211C20.5263 25.1677 20.5909 23.7036 21.0142 22.4338Z" fill="#FFCDB0"/>
<path d="M37.5495 68.3462C37.3108 67.3554 36.1601 66.0317 36.1601 66.0317H40.6757C40.6757 66.0317 40.0306 67.4154 39.981 68.3462C39.8601 70.6178 43.7274 71.3396 43.1072 73.5539C42.562 75.5005 40.9832 77.1923 38.5916 77.0257C36.391 76.8724 35.2614 75.3472 34.7707 73.5539C34.177 71.384 38.0753 70.5282 37.5495 68.3462Z" fill="#FFCDB0" stroke="#FFCDB0"/>
<path d="M59.7145 65.727C58.4128 65.727 57.1994 65.5464 56.0743 65.1852C54.9711 64.8014 54.0004 64.237 53.1621 63.492C52.3458 62.7471 51.6949 61.8102 51.2096 60.6815C50.7463 59.5527 50.5146 58.2321 50.5146 56.7196C50.5146 55.2296 50.7463 53.9541 51.2096 52.8931C51.6949 51.8095 52.3238 50.9291 53.0959 50.2518C53.868 49.5521 54.7505 49.0441 55.7433 48.728C56.7361 48.3894 57.751 48.2201 58.7879 48.2201C59.9571 48.2201 61.0162 48.4007 61.9648 48.7619C62.9355 49.1231 63.7628 49.6198 64.4468 50.2518C65.1527 50.884 65.6932 51.6402 66.0683 52.5206C66.4655 53.401 66.664 54.3604 66.664 55.3989C66.664 56.1665 66.4544 56.7534 66.0352 57.1598C65.616 57.5661 65.0313 57.8258 64.2813 57.9386L56.1074 59.1915C56.35 59.9365 56.8464 60.5009 57.5966 60.8846C58.3466 61.2459 59.207 61.4264 60.1778 61.4264C61.0823 61.4264 61.9317 61.3136 62.7259 61.0878C63.5422 60.8395 64.204 60.5573 64.7115 60.2413C65.0644 60.467 65.3623 60.783 65.605 61.1894C65.8476 61.5957 65.969 62.0247 65.969 62.4762C65.969 63.492 65.5057 64.2483 64.5792 64.745C63.8731 65.1287 63.0789 65.3883 62.1964 65.5238C61.314 65.6592 60.4866 65.727 59.7145 65.727ZM58.7879 52.419C58.2584 52.419 57.7951 52.5094 57.398 52.6899C57.0229 52.8705 56.714 53.1075 56.4714 53.401C56.2287 53.6719 56.0412 53.988 55.9088 54.3492C55.7985 54.6878 55.7323 55.0377 55.7102 55.3989L61.3692 54.4508C61.303 53.9993 61.0602 53.5477 60.6411 53.0963C60.2219 52.6448 59.6041 52.419 58.7879 52.419ZM69.0741 43.1407C69.2947 43.073 68.9943 40.2116 69.4176 39.7883C69.8409 39.3651 70.6874 38.0952 71.9573 38.0952C73.2271 38.0952 73.2271 38.5185 73.2271 39.3651C73.2271 39.9637 73.3797 42.4842 73.9056 43.31C74.1227 43.651 74.3689 43.7954 74.5013 44.1566C74.6337 44.4952 74.6998 44.9468 74.6998 45.5111V48.8296C75.2514 48.6039 75.7698 48.4459 76.2552 48.3555C76.7626 48.2653 77.3141 48.2201 77.9099 48.2201C78.9688 48.2201 79.9726 48.412 80.9212 48.7957C81.87 49.1796 82.7083 49.7439 83.4363 50.4889C84.1643 51.2112 84.7378 52.1143 85.1568 53.1979C85.5767 54.2815 85.7858 55.5344 85.7858 56.9566C85.7858 58.4239 85.5649 59.7107 85.1238 60.8169C84.7048 61.9005 84.1092 62.8035 83.3371 63.5259C82.5649 64.2483 81.6162 64.8014 80.4911 65.1852C79.388 65.5464 78.1636 65.727 76.8178 65.727C75.3617 65.727 74.1262 65.5464 73.1114 65.1852C72.0965 64.8465 71.2361 64.4176 70.5301 63.8984C69.5595 63.1985 69.0741 62.2956 69.0741 61.1894V43.1407ZM76.8178 61.1894C77.8327 61.1894 78.6158 60.8395 79.1673 60.1397C79.741 59.4173 80.0278 58.3562 80.0278 56.9566C80.0278 55.5344 79.741 54.4734 79.1673 53.7735C78.5938 53.0737 77.8216 52.7238 76.8509 52.7238C76.4097 52.7238 76.0236 52.7689 75.6926 52.8592C75.3838 52.9496 75.0418 53.085 74.6668 53.2656V60.6476C74.9094 60.8056 75.1962 60.9411 75.5271 61.0539C75.8802 61.1443 76.3104 61.1894 76.8178 61.1894Z" fill="#FFCDB0"/>
<mask id="mask0_180_481" style="mask-type:luminance" maskUnits="userSpaceOnUse" x="56" y="19" width="104" height="37">
<path d="M160 19.4709H56.7197V55.0264H160V19.4709Z" fill="white"/>
</mask>
<g mask="url(#mask0_180_481)">
<path d="M73.1619 45.6805C72.9361 45.7482 72.5749 45.816 72.0783 45.8837C71.6042 45.9514 71.6301 47.4074 71.1109 47.4074C70.6142 47.4074 69.841 48.254 69.4177 47.8307C68.9945 47.4074 68.9945 46.1376 68.5712 45.7143C68.5712 45.7143 67.7664 45.0033 67.6085 44.6646C67.473 44.3034 67.4053 43.8407 67.4053 43.2763V35.7588C67.4053 34.8333 67.1683 34.1899 66.6942 33.8287C66.2426 33.4449 65.6783 33.253 65.001 33.253C64.5495 33.253 64.1206 33.3095 63.7142 33.4223C63.3079 33.5351 62.9806 33.6706 62.7322 33.8287V45.6805C62.5065 45.7482 62.1453 45.816 61.6486 45.8837C61.1745 45.9514 60.6779 45.9853 60.1587 45.9853C59.6621 45.9853 59.2105 45.9514 58.8042 45.8837C58.4204 45.816 58.093 45.6805 57.8221 45.4773C57.5512 45.2742 57.3368 45.0033 57.1788 44.6646C57.0433 44.3034 56.9756 43.8407 56.9756 43.2763V23.6361C57.224 23.5909 57.5851 23.5345 58.0592 23.4667C58.5559 23.3764 59.0525 23.3313 59.5491 23.3313C60.0458 23.3313 60.486 23.3652 60.8698 23.4329C61.2761 23.5006 61.6147 23.6361 61.8856 23.8392C62.1565 24.0424 62.3597 24.3246 62.4952 24.6858C62.6532 25.0244 62.7322 25.4759 62.7322 26.0403V29.3588C63.0257 29.246 63.4659 29.1218 64.0528 28.9863C64.6624 28.8283 65.3283 28.7493 66.0508 28.7493C68.2857 28.7493 70.024 29.3137 71.2656 30.4424C72.5298 31.5486 73.1619 33.2079 73.1619 35.4202V45.6805ZM93.3763 37.4858C93.3763 38.8854 93.1621 40.1383 92.7329 41.2445C92.3037 42.3281 91.6941 43.2424 90.9043 43.9874C90.1365 44.7324 89.2112 45.2968 88.1276 45.6805C87.044 46.0642 85.8359 46.2562 84.5045 46.2562C83.1726 46.2562 81.9648 46.053 80.8812 45.6466C79.7976 45.2403 78.8607 44.6646 78.0706 43.9197C77.303 43.1521 76.7049 42.2265 76.2759 41.1429C75.847 40.0593 75.6325 38.8403 75.6325 37.4858C75.6325 36.1539 75.847 34.9461 76.2759 33.8625C76.7049 32.7789 77.303 31.8646 78.0706 31.1197C78.8607 30.3521 79.7976 29.7652 80.8812 29.3588C81.9648 28.9525 83.1726 28.7493 84.5045 28.7493C85.8359 28.7493 87.044 28.9637 88.1276 29.3927C89.2112 29.799 90.1365 30.3859 90.9043 31.1535C91.6941 31.8985 92.3037 32.8128 92.7329 33.8964C93.1621 34.98 93.3763 36.1764 93.3763 37.4858ZM81.5246 37.4858C81.5246 38.8629 81.7842 39.9239 82.3034 40.6689C82.8452 41.3912 83.5902 41.7525 84.5383 41.7525C85.4863 41.7525 86.2084 41.38 86.7054 40.635C87.2243 39.89 87.4842 38.8403 87.4842 37.4858C87.4842 36.1313 87.2243 35.0928 86.7054 34.3705C86.1864 33.6255 85.4525 33.253 84.5045 33.253C83.5563 33.253 82.8226 33.6255 82.3034 34.3705C81.7842 35.0928 81.5246 36.1313 81.5246 37.4858ZM112.845 37.4858C112.845 38.8854 112.63 40.1383 112.202 41.2445C111.773 42.3281 111.163 43.2424 110.374 43.9874C109.606 44.7324 108.68 45.2968 107.597 45.6805C106.513 46.0642 105.305 46.2562 103.974 46.2562C102.641 46.2562 101.434 46.053 100.35 45.6466C99.2666 45.2403 98.3295 44.6646 97.5397 43.9197C96.7718 43.1521 96.1733 42.2265 95.7449 41.1429C95.3157 40.0593 95.1016 38.8403 95.1016 37.4858C95.1016 36.1539 95.3157 34.9461 95.7449 33.8625C96.1733 32.7789 96.7718 31.8646 97.5397 31.1197C98.3295 30.3521 99.2666 29.7652 100.35 29.3588C101.434 28.9525 102.641 28.7493 103.974 28.7493C105.305 28.7493 106.513 28.9637 107.597 29.3927C108.68 29.799 109.606 30.3859 110.374 31.1535C111.163 31.8985 111.773 32.8128 112.202 33.8964C112.63 34.98 112.845 36.1764 112.845 37.4858ZM100.994 37.4858C100.994 38.8629 101.253 39.9239 101.772 40.6689C102.314 41.3912 103.059 41.7525 104.007 41.7525C104.956 41.7525 105.678 41.38 106.175 40.635C106.694 39.89 106.953 38.8403 106.953 37.4858C106.953 36.1313 106.694 35.0928 106.175 34.3705C105.655 33.6255 104.922 33.253 103.974 33.253C103.025 33.253 102.291 33.6255 101.772 34.3705C101.253 35.0928 100.994 36.1313 100.994 37.4858ZM122.832 28.7493C124.187 28.7493 125.44 28.9299 126.591 29.2911C127.765 29.6297 128.769 30.1602 129.605 30.8826C130.44 31.605 131.095 32.5193 131.569 33.6255C132.043 34.7091 132.28 36.0071 132.28 37.5197C132.28 38.9645 132.077 40.2287 131.67 41.3122C131.264 42.3958 130.688 43.3101 129.943 44.0551C129.198 44.7775 128.295 45.3193 127.234 45.6805C126.196 46.0417 125.033 46.2223 123.747 46.2223C122.776 46.2223 121.873 46.0756 121.038 45.7821V51.4033C120.812 51.471 120.451 51.5387 119.954 51.6064C119.457 51.6968 118.949 51.7419 118.43 51.7419C117.933 51.7419 117.482 51.708 117.076 51.6403C116.692 51.5726 116.365 51.4371 116.094 51.2339C115.823 51.0308 115.62 50.7486 115.484 50.3874C115.349 50.0488 115.281 49.5973 115.281 49.0329V32.7789C115.281 32.1694 115.405 31.6727 115.654 31.289C115.924 30.9052 116.286 30.5553 116.737 30.2392C117.437 29.7878 118.306 29.4265 119.345 29.1556C120.383 28.8847 121.546 28.7493 122.832 28.7493ZM122.9 41.6847C125.226 41.6847 126.388 40.2964 126.388 37.5197C126.388 36.0748 126.094 35.0026 125.507 34.3027C124.943 33.6029 124.119 33.253 123.036 33.253C122.606 33.253 122.223 33.3095 121.884 33.4223C121.546 33.5126 121.252 33.6255 121.004 33.7609V41.2107C121.275 41.3461 121.568 41.459 121.884 41.5493C122.2 41.6396 122.539 41.6847 122.9 41.6847ZM140.609 45.6805C140.36 45.7256 139.988 45.7821 139.492 45.8498C139.018 45.9401 138.532 45.9853 138.036 45.9853C137.539 45.9853 137.088 45.9514 136.681 45.8837C136.297 45.816 135.97 45.6805 135.699 45.4773C135.428 45.2742 135.213 45.0033 135.056 44.6646C134.92 44.3034 134.853 43.8407 134.853 43.2763V29.4943C135.101 29.4491 135.462 29.3927 135.936 29.3249C136.432 29.2346 136.929 29.1895 137.426 29.1895C137.922 29.1895 138.363 29.2234 138.747 29.2911C139.153 29.3588 139.492 29.4943 139.763 29.6974C140.034 29.9006 140.237 30.1828 140.372 30.544C140.53 30.8826 140.609 31.3341 140.609 31.8985V45.6805ZM152.604 46.2562C151.273 46.2562 150.031 46.0756 148.879 45.7144C147.751 45.3306 146.757 44.7662 145.899 44.0212C145.064 43.2763 144.398 42.3394 143.902 41.2107C143.427 40.0819 143.19 38.7613 143.19 37.2488C143.19 35.7588 143.427 34.4833 143.902 33.4223C144.398 32.3387 145.042 31.4583 145.832 30.781C146.622 30.0812 147.525 29.5732 148.541 29.2572C149.557 28.9186 150.595 28.7493 151.656 28.7493C152.852 28.7493 153.936 28.9299 154.907 29.2911C155.9 29.6523 156.746 30.1489 157.447 30.781C158.169 31.4132 158.722 32.1694 159.106 33.0498C159.512 33.9302 159.715 34.8896 159.715 35.9281C159.715 36.6957 159.501 37.2826 159.072 37.689C158.643 38.0953 158.045 38.355 157.277 38.4678L148.913 39.7207C149.161 40.4657 149.669 41.0301 150.437 41.4138C151.205 41.7751 152.085 41.9556 153.078 41.9556C154.004 41.9556 154.873 41.8428 155.686 41.617C156.521 41.3687 157.198 41.0865 157.717 40.7705C158.079 40.9962 158.384 41.3123 158.632 41.7186C158.88 42.125 159.004 42.5539 159.004 43.0054C159.004 44.0212 158.53 44.7775 157.582 45.2742C156.86 45.6579 156.047 45.9175 155.144 46.053C154.241 46.1884 153.394 46.2562 152.604 46.2562ZM151.656 32.9482C151.114 32.9482 150.64 33.0386 150.234 33.2191C149.85 33.3997 149.534 33.6367 149.286 33.9302C149.038 34.2011 148.845 34.5172 148.71 34.8784C148.597 35.217 148.53 35.5669 148.507 35.9281L154.297 34.98C154.23 34.5285 153.982 34.0769 153.552 33.6255C153.123 33.174 152.492 32.9482 151.656 32.9482Z" fill="#FFCDB0"/>
<path d="M103.28 49.1005C103.691 47.2096 101.587 45.291 101.587 45.291L106.666 45.7142C106.666 45.7142 104.811 47.3473 105.396 49.1005C105.821 50.3703 107.09 50.8337 107.09 52.4867C107.09 54.1798 104.127 54.1798 103.703 54.0629C103.28 53.946 102.01 53.7566 102.01 52.0634C102.01 50.3062 102.908 50.8178 103.28 49.1005Z" fill="#FFCDB0"/>
<path d="M105.396 49.1005C105.821 50.3703 107.09 50.8337 107.09 52.4867C107.09 54.1798 104.127 54.1798 103.703 54.0629C103.28 53.946 102.01 53.7566 102.01 52.0634C102.01 50.3062 102.908 50.8178 103.28 49.1005C103.691 47.2096 101.587 45.291 101.587 45.291L106.666 45.7142C106.666 45.7142 104.811 47.3473 105.396 49.1005ZM105.396 49.1005C105.209 48.5351 105.585 49.6658 105.396 49.1005Z" stroke="#FFCDB0"/>
<path d="M133.423 26.097C133.882 27.0056 134.255 27.9225 135.28 27.9364C136.44 27.9521 136.001 25.8751 137.136 25.6372C138.415 25.3693 138.685 27.8983 139.921 27.4765C140.919 27.1356 141.178 26.2159 141.312 25.1774C141.459 24.0509 141.426 22.8932 140.384 22.4183C139.545 22.0354 138.789 23.7761 138.064 22.8781L136.208 20.5789C135.483 19.6811 134.072 21.2939 133.423 22.4183C132.704 23.6657 132.775 24.8121 133.423 26.097Z" fill="#FFCDB0" stroke="#FFCDB0"/>
</g>
</g>
<defs>
<clipPath id="clip0_180_481">
<rect width="160" height="77.8836" fill="white"/>
</clipPath>
</defs>
</svg>
