<svg width="532" height="1115" viewBox="0 0 532 1115" fill="none" xmlns="http://www.w3.org/2000/svg">
<path d="M269.5 845.5V815.5C269.5 776.84 300.84 745.5 339.5 745.5H460.5C499.16 745.5 530.5 714.16 530.5 675.5V658C530.5 619.34 499.16 588 460.5 588H63.75C29.3703 588 1.5 560.13 1.5 525.75V525.75C1.5 491.37 29.3703 463.5 63.75 463.5H462.5C500.055 463.5 530.5 433.055 530.5 395.5V395.5C530.5 357.945 500.055 327.5 462.5 327.5H71.5C32.8401 327.5 1.5 296.16 1.5 257.5V247.5C1.5 208.84 32.8401 177.5 71.5 177.5H199C237.66 177.5 269 146.16 269 107.5V0.5M269.5 882V1115" stroke="#FF711F" stroke-width="3"/>
<circle cx="269" cy="864" r="16.5" fill="white" stroke="#FF711F" stroke-width="3"/>
</svg>
