<svg width="600" height="432" viewBox="0 0 600 432" fill="none" xmlns="http://www.w3.org/2000/svg">
<g clip-path="url(#clip0_175_215)">
<mask id="mask0_175_215" style="mask-type:luminance" maskUnits="userSpaceOnUse" x="0" y="0" width="600" height="432">
<path d="M600 0H0V431.904H600V0Z" fill="white"/>
</mask>
<g mask="url(#mask0_175_215)">
<path d="M262.492 251.785H240.957M251.724 262.552V241.017M428.913 178.744L442.253 179.103L441.894 165.763L455.234 166.122L454.875 152.782L468.215 153.141L467.856 139.801L481.196 140.16L480.837 126.82M143.09 9.39184C143.09 12.0239 140.937 14.1177 138.305 14.0578C135.732 14.0578 133.639 11.9641 133.639 9.39184C133.639 6.75974 135.732 4.66602 138.364 4.66602C140.997 4.66602 143.09 6.75974 143.09 9.39184ZM159.9 9.39184C159.9 12.0239 157.806 14.1177 155.174 14.1177C152.542 14.1177 150.448 12.0239 150.448 9.39184C150.448 6.75974 152.542 4.66602 155.174 4.66602C157.746 4.66602 159.84 6.81956 159.9 9.39184ZM176.65 9.39184C176.65 12.0239 174.496 14.1177 171.864 14.0578C169.292 14.0578 167.198 11.9641 167.198 9.39184C167.198 6.75974 169.292 4.66602 171.924 4.66602C174.556 4.66602 176.65 6.75974 176.65 9.39184ZM193.459 9.39184C193.459 12.0239 191.365 14.1177 188.733 14.1177C186.101 14.1177 184.008 12.0239 184.008 9.39184C184.008 6.75974 186.101 4.66602 188.733 4.66602C191.365 4.66602 193.459 6.81956 193.459 9.39184ZM210.269 9.39184C210.269 12.0239 208.115 14.1177 205.483 14.0578C202.911 14.0578 200.817 11.9641 200.817 9.39184C200.817 6.75974 202.911 4.66602 205.543 4.66602C208.175 4.66602 210.269 6.81956 210.269 9.39184ZM409.411 426.341C409.411 428.973 407.318 431.067 404.686 431.067C402.053 431.067 399.96 428.973 399.96 426.341C399.96 423.709 402.053 421.615 404.686 421.615C407.318 421.675 409.411 423.769 409.411 426.341ZM426.221 426.341C426.221 428.973 424.127 431.067 421.495 431.067C418.863 431.067 416.769 428.973 416.769 426.341C416.769 423.709 418.863 421.615 421.495 421.615C424.127 421.615 426.221 423.769 426.221 426.341ZM442.971 426.341C442.971 428.973 440.877 431.067 438.245 431.067C435.613 431.067 433.519 428.973 433.519 426.341C433.519 423.709 435.613 421.615 438.245 421.615C440.877 421.675 442.971 423.769 442.971 426.341ZM459.78 426.341C459.78 428.973 457.687 431.067 455.054 431.067C452.422 431.067 450.329 428.973 450.329 426.341C450.329 423.709 452.422 421.615 455.054 421.615C457.687 421.615 459.78 423.769 459.78 426.341ZM476.59 426.341C476.59 428.973 474.496 431.067 471.864 431.067C469.232 431.067 467.138 428.973 467.138 426.341C467.138 423.709 469.232 421.615 471.864 421.615C474.436 421.675 476.59 423.769 476.59 426.341Z" stroke="#FF711F" stroke-width="2" stroke-miterlimit="50"/>
<path d="M560.937 123.051C560.937 132.443 553.34 140.04 543.948 140.04C534.556 140.04 526.959 132.443 526.959 123.051C526.959 113.659 534.556 106.062 543.948 106.062C553.34 106.062 560.937 113.659 560.937 123.051ZM555.733 93.6191H532.104V-0.0598145H555.733V93.6191ZM237.009 242.871C237.009 252.263 229.412 259.86 220.02 259.86C210.628 259.86 203.031 252.263 203.031 242.871C203.031 233.48 210.628 225.882 220.02 225.882C229.412 225.882 237.009 233.48 237.009 242.871ZM231.805 213.44H208.176V119.761H231.805V213.44ZM47.8563 318.126C17.5273 318.126 -1.25636 285.105 14.2372 259.023C29.3718 233.539 66.2812 233.539 81.4158 259.023C96.9692 285.105 78.1855 318.126 47.8563 318.126ZM342.054 107.497C311.725 107.497 292.941 74.4766 308.435 48.3948C323.569 22.9113 360.479 22.9113 375.613 48.3948C391.167 74.4766 372.383 107.497 342.054 107.497ZM560.578 346.361C530.249 346.361 511.466 313.34 526.959 287.258C542.094 261.775 579.003 261.775 594.138 287.258C609.691 313.34 590.907 346.361 560.578 346.361ZM97.1486 128.913C97.1486 138.305 89.5514 145.902 80.1596 145.902C70.7678 145.902 63.1706 138.305 63.1706 128.913C63.1706 119.521 70.7678 111.924 80.1596 111.924C89.5514 111.924 97.1486 119.521 97.1486 128.913ZM91.8844 99.4816H68.2553V5.8026H91.8844V99.4816Z" fill="#FFF4EE"/>
<path d="M443.031 35.653V133.759H359.642V15.5533H422.932L443.031 35.653Z" fill="#333848"/>
<path d="M359.581 76.3908L343.849 77.0489C343.849 77.0489 350.429 44.7458 359.522 41.2164L359.581 59.1027C362.752 56.4706 366.102 54.0778 367.298 54.7358C369.571 55.992 359.581 76.3908 359.581 76.3908Z" fill="#EEB291"/>
<path d="M359.522 41.2164C359.522 41.2164 351.446 42.0539 343.849 76.6301" stroke="white" stroke-width="1.5" stroke-miterlimit="50" stroke-linecap="square"/>
<path d="M423.948 362.512L423.589 383.091C423.53 387.637 427.837 391.047 432.263 389.91L479.043 377.826C482.812 376.869 482.812 371.486 479.043 370.469L457.388 364.786L423.948 362.512ZM475.873 165.284L489.99 166.301C494.537 166.66 498.186 162.532 497.288 158.046L489.033 116.411C488.255 112.642 483.051 112.223 481.735 115.872L471.805 143.988L475.873 165.284ZM277.149 216.371L284.507 241.974L325.484 230.668L336.311 263.868L272.363 290.429C260.22 295.454 246.521 288.215 243.829 275.414C237.009 242.512 232.283 185.982 276.73 176.351C288.455 173.779 318.664 125.444 318.664 125.444L326.62 78.3649L361.436 74.8354L357.308 132.622C356.89 138.784 354.736 144.706 351.087 149.731L321.895 190.05L348.096 234.437L280.858 272.722L277.149 216.371Z" fill="#3F4559"/>
<path d="M342.054 255.553C342.712 254.895 350.369 211.286 355.214 183.23C357.667 169.113 368.016 157.747 381.834 154.038L469.412 130.469L483.529 174.257L404.985 200.937L400.199 257.348L342.054 255.553Z" fill="#FF711F"/>
<path d="M282.413 261.356L285.584 268.594C292.283 283.848 307.897 293.18 324.467 291.805L380.04 287.258L414.557 375.912C414.557 375.912 466.421 363.051 464.926 361.077C463.849 359.641 440.04 294.616 425.803 255.613C419.701 238.863 402.712 228.574 385.065 230.907L306.222 241.316L282.413 261.356Z" fill="#FF711F"/>
<path d="M287.797 284.028L336.311 263.868L326.501 233.659L273.38 246.52L287.797 284.028Z" fill="#3D155F"/>
<mask id="mask1_175_215" style="mask-type:luminance" maskUnits="userSpaceOnUse" x="239" y="74" width="123" height="219">
<path d="M326.68 78.3649L318.724 125.384C318.724 125.384 288.515 173.719 276.79 176.291C232.343 185.922 237.009 242.453 243.889 275.354C246.58 288.215 260.279 295.454 272.423 290.369L287.857 283.968L336.311 263.809L330.09 244.666L348.156 234.377L321.954 189.99L351.147 149.671C354.796 144.646 356.949 138.724 357.368 132.562L361.496 74.7756L326.68 78.3649Z" fill="white"/>
</mask>
<g mask="url(#mask1_175_215)">
<path d="M275.234 238.445C274.815 243.948 269.97 248.016 264.466 247.597C258.963 247.178 254.895 242.333 255.314 236.83C255.733 231.326 260.578 227.258 266.082 227.677C271.585 228.096 275.653 232.941 275.234 238.445Z" fill="#333848"/>
</g>
<mask id="mask2_175_215" style="mask-type:luminance" maskUnits="userSpaceOnUse" x="239" y="74" width="123" height="219">
<path d="M326.68 78.3649L318.724 125.384C318.724 125.384 288.515 173.719 276.79 176.291C232.343 185.922 237.009 242.453 243.889 275.354C246.58 288.215 260.279 295.454 272.423 290.369L287.857 283.968L336.311 263.809L330.09 244.666L348.156 234.377L321.954 189.99L351.147 149.671C354.796 144.646 356.949 138.724 357.368 132.562L361.496 74.7756L326.68 78.3649Z" fill="white"/>
</mask>
<g mask="url(#mask2_175_215)">
<path d="M315.374 241.675C314.955 247.178 310.109 251.246 304.606 250.827C299.103 250.409 295.035 245.563 295.453 240.06C295.872 234.556 300.718 230.488 306.221 230.907C311.725 231.386 315.852 236.171 315.374 241.675Z" fill="#333848"/>
</g>
<mask id="mask3_175_215" style="mask-type:luminance" maskUnits="userSpaceOnUse" x="239" y="74" width="123" height="219">
<path d="M326.68 78.3649L318.724 125.384C318.724 125.384 288.515 173.719 276.79 176.291C232.343 185.922 237.009 242.453 243.889 275.354C246.58 288.215 260.279 295.454 272.423 290.369L287.857 283.968L336.311 263.809L330.09 244.666L348.156 234.377L321.954 189.99L351.147 149.671C354.796 144.646 356.949 138.724 357.368 132.562L361.496 74.7756L326.68 78.3649Z" fill="white"/>
</mask>
<g mask="url(#mask3_175_215)">
<path d="M355.573 244.965C355.154 250.469 350.309 254.536 344.805 254.118C339.302 253.699 335.234 248.853 335.653 243.35C336.071 237.846 340.917 233.779 346.42 234.197C351.924 234.616 355.992 239.462 355.573 244.965Z" fill="#333848"/>
</g>
<mask id="mask4_175_215" style="mask-type:luminance" maskUnits="userSpaceOnUse" x="239" y="74" width="123" height="219">
<path d="M326.68 78.3649L318.724 125.384C318.724 125.384 288.515 173.719 276.79 176.291C232.343 185.922 237.009 242.453 243.889 275.354C246.58 288.215 260.279 295.454 272.423 290.369L287.857 283.968L336.311 263.809L330.09 244.666L348.156 234.377L321.954 189.99L351.147 149.671C354.796 144.646 356.949 138.724 357.368 132.562L361.496 74.7756L326.68 78.3649Z" fill="white"/>
</mask>
<g mask="url(#mask4_175_215)">
<path d="M297.547 212.303C297.128 217.807 292.282 221.874 286.779 221.456C281.275 221.037 277.208 216.191 277.626 210.688C278.045 205.184 282.891 201.117 288.394 201.535C293.897 201.954 298.025 206.8 297.547 212.303Z" fill="#333848"/>
</g>
<mask id="mask5_175_215" style="mask-type:luminance" maskUnits="userSpaceOnUse" x="239" y="74" width="123" height="219">
<path d="M326.68 78.3649L318.724 125.384C318.724 125.384 288.515 173.719 276.79 176.291C232.343 185.922 237.009 242.453 243.889 275.354C246.58 288.215 260.279 295.454 272.423 290.369L287.857 283.968L336.311 263.809L330.09 244.666L348.156 234.377L321.954 189.99L351.147 149.671C354.796 144.646 356.949 138.724 357.368 132.562L361.496 74.7756L326.68 78.3649Z" fill="white"/>
</mask>
<g mask="url(#mask5_175_215)">
<path d="M337.747 215.533C337.328 221.037 332.483 225.105 326.979 224.686C321.476 224.267 317.408 219.422 317.827 213.918C318.245 208.415 323.091 204.347 328.594 204.766C334.098 205.244 338.165 210.03 337.747 215.533Z" fill="#333848"/>
</g>
<mask id="mask6_175_215" style="mask-type:luminance" maskUnits="userSpaceOnUse" x="239" y="74" width="123" height="219">
<path d="M326.68 78.3649L318.724 125.384C318.724 125.384 288.515 173.719 276.79 176.291C232.343 185.922 237.009 242.453 243.889 275.354C246.58 288.215 260.279 295.454 272.423 290.369L287.857 283.968L336.311 263.809L330.09 244.666L348.156 234.377L321.954 189.99L351.147 149.671C354.796 144.646 356.949 138.724 357.368 132.562L361.496 74.7756L326.68 78.3649Z" fill="white"/>
</mask>
<g mask="url(#mask6_175_215)">
<path d="M377.886 218.823C377.468 224.327 372.622 228.395 367.119 227.976C361.615 227.557 357.547 222.712 357.966 217.208C358.385 211.705 363.23 207.637 368.734 208.056C374.237 208.534 378.365 213.32 377.886 218.823Z" fill="#333848"/>
</g>
<mask id="mask7_175_215" style="mask-type:luminance" maskUnits="userSpaceOnUse" x="239" y="74" width="123" height="219">
<path d="M326.68 78.3649L318.724 125.384C318.724 125.384 288.515 173.719 276.79 176.291C232.343 185.922 237.009 242.453 243.889 275.354C246.58 288.215 260.279 295.454 272.423 290.369L287.857 283.968L336.311 263.809L330.09 244.666L348.156 234.377L321.954 189.99L351.147 149.671C354.796 144.646 356.949 138.724 357.368 132.562L361.496 74.7756L326.68 78.3649Z" fill="white"/>
</mask>
<g mask="url(#mask7_175_215)">
<path d="M257.408 209.013C256.989 214.516 252.144 218.584 246.64 218.165C241.137 217.747 237.069 212.901 237.488 207.398C237.906 201.894 242.752 197.826 248.255 198.245C253.759 198.724 257.827 203.509 257.408 209.013Z" fill="#333848"/>
</g>
<mask id="mask8_175_215" style="mask-type:luminance" maskUnits="userSpaceOnUse" x="239" y="74" width="123" height="219">
<path d="M326.68 78.3649L318.724 125.384C318.724 125.384 288.515 173.719 276.79 176.291C232.343 185.922 237.009 242.453 243.889 275.354C246.58 288.215 260.279 295.454 272.423 290.369L287.857 283.968L336.311 263.809L330.09 244.666L348.156 234.377L321.954 189.99L351.147 149.671C354.796 144.646 356.949 138.724 357.368 132.562L361.496 74.7756L326.68 78.3649Z" fill="white"/>
</mask>
<g mask="url(#mask8_175_215)">
<path d="M292.941 267.816C292.522 273.32 287.677 277.388 282.173 276.969C276.67 276.55 272.602 271.705 273.021 266.201C273.44 260.698 278.285 256.63 283.789 257.049C289.292 257.527 293.42 262.313 292.941 267.816Z" fill="#333848"/>
</g>
<mask id="mask9_175_215" style="mask-type:luminance" maskUnits="userSpaceOnUse" x="239" y="74" width="123" height="219">
<path d="M326.68 78.3649L318.724 125.384C318.724 125.384 288.515 173.719 276.79 176.291C232.343 185.922 237.009 242.453 243.889 275.354C246.58 288.215 260.279 295.454 272.423 290.369L287.857 283.968L336.311 263.809L330.09 244.666L348.156 234.377L321.954 189.99L351.147 149.671C354.796 144.646 356.949 138.724 357.368 132.562L361.496 74.7756L326.68 78.3649Z" fill="white"/>
</mask>
<g mask="url(#mask9_175_215)">
<path d="M333.14 271.107C332.722 276.61 327.876 280.678 322.373 280.259C316.869 279.84 312.801 274.995 313.22 269.491C313.639 263.988 318.484 259.92 323.988 260.339C329.491 260.758 333.559 265.603 333.14 271.107Z" fill="#333848"/>
</g>
<mask id="mask10_175_215" style="mask-type:luminance" maskUnits="userSpaceOnUse" x="239" y="74" width="123" height="219">
<path d="M326.68 78.3649L318.724 125.384C318.724 125.384 288.515 173.719 276.79 176.291C232.343 185.922 237.009 242.453 243.889 275.354C246.58 288.215 260.279 295.454 272.423 290.369L287.857 283.968L336.311 263.809L330.09 244.666L348.156 234.377L321.954 189.99L351.147 149.671C354.796 144.646 356.949 138.724 357.368 132.562L361.496 74.7756L326.68 78.3649Z" fill="white"/>
</mask>
<g mask="url(#mask10_175_215)">
<path d="M373.28 274.337C372.861 279.84 368.016 283.908 362.512 283.49C357.009 283.071 352.941 278.225 353.36 272.722C353.778 267.218 358.624 263.151 364.127 263.569C369.631 264.048 373.759 268.834 373.28 274.337Z" fill="#333848"/>
</g>
<mask id="mask11_175_215" style="mask-type:luminance" maskUnits="userSpaceOnUse" x="239" y="74" width="123" height="219">
<path d="M326.68 78.3649L318.724 125.384C318.724 125.384 288.515 173.719 276.79 176.291C232.343 185.922 237.009 242.453 243.889 275.354C246.58 288.215 260.279 295.454 272.423 290.369L287.857 283.968L336.311 263.809L330.09 244.666L348.156 234.377L321.954 189.99L351.147 149.671C354.796 144.646 356.949 138.724 357.368 132.562L361.496 74.7756L326.68 78.3649Z" fill="white"/>
</mask>
<g mask="url(#mask11_175_215)">
<path d="M252.742 264.526C252.323 270.03 247.478 274.098 241.974 273.679C236.471 273.26 232.403 268.415 232.822 262.911C233.24 257.408 238.086 253.34 243.589 253.759C249.153 254.237 253.22 259.023 252.742 264.526Z" fill="#333848"/>
</g>
<mask id="mask12_175_215" style="mask-type:luminance" maskUnits="userSpaceOnUse" x="239" y="74" width="123" height="219">
<path d="M326.68 78.3649L318.724 125.384C318.724 125.384 288.515 173.719 276.79 176.291C232.343 185.922 237.009 242.453 243.889 275.354C246.58 288.215 260.279 295.454 272.423 290.369L287.857 283.968L336.311 263.809L330.09 244.666L348.156 234.377L321.954 189.99L351.147 149.671C354.796 144.646 356.949 138.724 357.368 132.562L361.496 74.7756L326.68 78.3649Z" fill="white"/>
</mask>
<g mask="url(#mask12_175_215)">
<path d="M284.386 127.358C283.968 132.861 279.122 136.929 273.619 136.51C268.115 136.092 264.047 131.246 264.466 125.743C264.885 120.239 269.73 116.171 275.234 116.59C280.737 117.069 284.805 121.854 284.386 127.358Z" fill="#333848"/>
</g>
<mask id="mask13_175_215" style="mask-type:luminance" maskUnits="userSpaceOnUse" x="239" y="74" width="123" height="219">
<path d="M326.68 78.3649L318.724 125.384C318.724 125.384 288.515 173.719 276.79 176.291C232.343 185.922 237.009 242.453 243.889 275.354C246.58 288.215 260.279 295.454 272.423 290.369L287.857 283.968L336.311 263.809L330.09 244.666L348.156 234.377L321.954 189.99L351.147 149.671C354.796 144.646 356.949 138.724 357.368 132.562L361.496 74.7756L326.68 78.3649Z" fill="white"/>
</mask>
<g mask="url(#mask13_175_215)">
<path d="M324.587 130.648C324.168 136.152 319.322 140.219 313.819 139.801C308.315 139.382 304.248 134.536 304.666 129.033C305.085 123.529 309.931 119.462 315.434 119.88C320.938 120.299 325.005 125.145 324.587 130.648Z" fill="#333848"/>
</g>
<mask id="mask14_175_215" style="mask-type:luminance" maskUnits="userSpaceOnUse" x="239" y="74" width="123" height="219">
<path d="M326.68 78.3649L318.724 125.384C318.724 125.384 288.515 173.719 276.79 176.291C232.343 185.922 237.009 242.453 243.889 275.354C246.58 288.215 260.279 295.454 272.423 290.369L287.857 283.968L336.311 263.809L330.09 244.666L348.156 234.377L321.954 189.99L351.147 149.671C354.796 144.646 356.949 138.724 357.368 132.562L361.496 74.7756L326.68 78.3649Z" fill="white"/>
</mask>
<g mask="url(#mask14_175_215)">
<path d="M364.725 133.878C364.307 139.382 359.461 143.45 353.958 143.031C348.454 142.612 344.386 137.767 344.805 132.263C345.224 126.76 350.069 122.692 355.573 123.111C361.076 123.589 365.204 128.375 364.725 133.878Z" fill="#333848"/>
</g>
<mask id="mask15_175_215" style="mask-type:luminance" maskUnits="userSpaceOnUse" x="239" y="74" width="123" height="219">
<path d="M326.68 78.3649L318.724 125.384C318.724 125.384 288.515 173.719 276.79 176.291C232.343 185.922 237.009 242.453 243.889 275.354C246.58 288.215 260.279 295.454 272.423 290.369L287.857 283.968L336.311 263.809L330.09 244.666L348.156 234.377L321.954 189.99L351.147 149.671C354.796 144.646 356.949 138.724 357.368 132.562L361.496 74.7756L326.68 78.3649Z" fill="white"/>
</mask>
<g mask="url(#mask15_175_215)">
<path d="M244.187 124.068C243.768 129.571 238.923 133.639 233.419 133.22C227.916 132.802 223.848 127.956 224.267 122.453C224.686 116.949 229.531 112.881 235.035 113.3C240.538 113.719 244.666 118.624 244.187 124.068Z" fill="#333848"/>
</g>
<mask id="mask16_175_215" style="mask-type:luminance" maskUnits="userSpaceOnUse" x="239" y="74" width="123" height="219">
<path d="M326.68 78.3649L318.724 125.384C318.724 125.384 288.515 173.719 276.79 176.291C232.343 185.922 237.009 242.453 243.889 275.354C246.58 288.215 260.279 295.454 272.423 290.369L287.857 283.968L336.311 263.809L330.09 244.666L348.156 234.377L321.954 189.99L351.147 149.671C354.796 144.646 356.949 138.724 357.368 132.562L361.496 74.7756L326.68 78.3649Z" fill="white"/>
</mask>
<g mask="url(#mask16_175_215)">
<path d="M302.094 156.73C301.676 162.233 296.83 166.301 291.327 165.882C285.823 165.464 281.755 160.618 282.174 155.115C282.593 149.611 287.438 145.543 292.942 145.962C298.445 146.381 302.573 151.286 302.094 156.73Z" fill="#333848"/>
</g>
<mask id="mask17_175_215" style="mask-type:luminance" maskUnits="userSpaceOnUse" x="239" y="74" width="123" height="219">
<path d="M326.68 78.3649L318.724 125.384C318.724 125.384 288.515 173.719 276.79 176.291C232.343 185.922 237.009 242.453 243.889 275.354C246.58 288.215 260.279 295.454 272.423 290.369L287.857 283.968L336.311 263.809L330.09 244.666L348.156 234.377L321.954 189.99L351.147 149.671C354.796 144.646 356.949 138.724 357.368 132.562L361.496 74.7756L326.68 78.3649Z" fill="white"/>
</mask>
<g mask="url(#mask17_175_215)">
<path d="M342.293 160.02C341.874 165.523 337.028 169.591 331.525 169.172C326.021 168.754 321.954 163.908 322.372 158.405C322.791 152.901 327.637 148.833 333.14 149.252C338.644 149.731 342.711 154.516 342.293 160.02Z" fill="#333848"/>
</g>
<mask id="mask18_175_215" style="mask-type:luminance" maskUnits="userSpaceOnUse" x="239" y="74" width="123" height="219">
<path d="M326.68 78.3649L318.724 125.384C318.724 125.384 288.515 173.719 276.79 176.291C232.343 185.922 237.009 242.453 243.889 275.354C246.58 288.215 260.279 295.454 272.423 290.369L287.857 283.968L336.311 263.809L330.09 244.666L348.156 234.377L321.954 189.99L351.147 149.671C354.796 144.646 356.949 138.724 357.368 132.562L361.496 74.7756L326.68 78.3649Z" fill="white"/>
</mask>
<g mask="url(#mask18_175_215)">
<path d="M261.954 153.499C261.535 159.003 256.69 163.071 251.186 162.652C245.683 162.233 241.615 157.388 242.034 151.884C242.452 146.381 247.298 142.313 252.801 142.732C258.305 143.151 262.373 147.996 261.954 153.499Z" fill="#333848"/>
</g>
<mask id="mask19_175_215" style="mask-type:luminance" maskUnits="userSpaceOnUse" x="239" y="74" width="123" height="219">
<path d="M326.68 78.3649L318.724 125.384C318.724 125.384 288.515 173.719 276.79 176.291C232.343 185.922 237.009 242.453 243.889 275.354C246.58 288.215 260.279 295.454 272.423 290.369L287.857 283.968L336.311 263.809L330.09 244.666L348.156 234.377L321.954 189.99L351.147 149.671C354.796 144.646 356.949 138.724 357.368 132.562L361.496 74.7756L326.68 78.3649Z" fill="white"/>
</mask>
<g mask="url(#mask19_175_215)">
<path d="M306.76 101.216C306.342 106.72 301.496 110.788 295.993 110.369C290.489 109.95 286.421 105.105 286.84 99.6012C287.259 94.0977 292.104 90.0299 297.608 90.4486C303.111 90.9272 307.239 95.7128 306.76 101.216Z" fill="#333848"/>
</g>
<mask id="mask20_175_215" style="mask-type:luminance" maskUnits="userSpaceOnUse" x="239" y="74" width="123" height="219">
<path d="M326.68 78.3649L318.724 125.384C318.724 125.384 288.515 173.719 276.79 176.291C232.343 185.922 237.009 242.453 243.889 275.354C246.58 288.215 260.279 295.454 272.423 290.369L287.857 283.968L336.311 263.809L330.09 244.666L348.156 234.377L321.954 189.99L351.147 149.671C354.796 144.646 356.949 138.724 357.368 132.562L361.496 74.7756L326.68 78.3649Z" fill="white"/>
</mask>
<g mask="url(#mask20_175_215)">
<path d="M346.96 104.506C346.541 110.01 341.695 114.078 336.192 113.659C330.688 113.24 326.621 108.395 327.039 102.891C327.458 97.3878 332.304 93.32 337.807 93.7387C343.311 94.1575 347.378 99.0029 346.96 104.506Z" fill="#333848"/>
</g>
<mask id="mask21_175_215" style="mask-type:luminance" maskUnits="userSpaceOnUse" x="239" y="74" width="123" height="219">
<path d="M326.68 78.3649L318.724 125.384C318.724 125.384 288.515 173.719 276.79 176.291C232.343 185.922 237.009 242.453 243.889 275.354C246.58 288.215 260.279 295.454 272.423 290.369L287.857 283.968L336.311 263.809L330.09 244.666L348.156 234.377L321.954 189.99L351.147 149.671C354.796 144.646 356.949 138.724 357.368 132.562L361.496 74.7756L326.68 78.3649Z" fill="white"/>
</mask>
<g mask="url(#mask21_175_215)">
<path d="M266.62 97.986C266.201 103.489 261.356 107.557 255.852 107.139C250.349 106.72 246.281 101.874 246.7 96.3708C247.118 90.8673 251.964 86.7995 257.467 87.2183C262.971 87.637 267.039 92.4825 266.62 97.986Z" fill="#333848"/>
</g>
<mask id="mask22_175_215" style="mask-type:luminance" maskUnits="userSpaceOnUse" x="239" y="74" width="123" height="219">
<path d="M326.68 78.3649L318.724 125.384C318.724 125.384 288.515 173.719 276.79 176.291C232.343 185.922 237.009 242.453 243.889 275.354C246.58 288.215 260.279 295.454 272.423 290.369L287.857 283.968L336.311 263.809L330.09 244.666L348.156 234.377L321.954 189.99L351.147 149.671C354.796 144.646 356.949 138.724 357.368 132.562L361.496 74.7756L326.68 78.3649Z" fill="white"/>
</mask>
<g mask="url(#mask22_175_215)">
<path d="M319.98 186.161C319.561 191.665 314.716 195.733 309.212 195.314C303.709 194.895 299.641 190.05 300.06 184.546C300.479 179.043 305.324 174.975 310.828 175.394C316.331 175.872 320.459 180.658 319.98 186.161Z" fill="#333848"/>
</g>
<mask id="mask23_175_215" style="mask-type:luminance" maskUnits="userSpaceOnUse" x="239" y="74" width="123" height="219">
<path d="M326.68 78.3649L318.724 125.384C318.724 125.384 288.515 173.719 276.79 176.291C232.343 185.922 237.009 242.453 243.889 275.354C246.58 288.215 260.279 295.454 272.423 290.369L287.857 283.968L336.311 263.809L330.09 244.666L348.156 234.377L321.954 189.99L351.147 149.671C354.796 144.646 356.949 138.724 357.368 132.562L361.496 74.7756L326.68 78.3649Z" fill="white"/>
</mask>
<g mask="url(#mask23_175_215)">
<path d="M360.179 189.452C359.761 194.955 354.915 199.023 349.412 198.604C343.908 198.185 339.84 193.34 340.259 187.836C340.678 182.333 345.523 178.265 351.027 178.684C356.53 179.103 360.598 183.948 360.179 189.452Z" fill="#333848"/>
</g>
<path d="M239.641 179.641C239.223 185.145 234.377 189.212 228.874 188.794C223.37 188.375 219.302 183.529 219.721 178.026C220.14 172.522 224.985 168.455 230.489 168.873C235.992 169.292 240.12 174.138 239.641 179.641Z" fill="#333848"/>
<path d="M276.969 191.007C276.55 191.007 276.131 191.007 275.713 190.947C269.97 190.289 265.902 185.085 266.56 179.342L271.106 140.698C271.764 134.955 276.969 130.887 282.712 131.545C288.454 132.203 292.522 137.408 291.864 143.151L287.318 181.854C286.66 187.119 282.173 191.007 276.969 191.007Z" fill="#3F4559"/>
<path d="M386.5 287.737L378.903 286.959L381.415 277.388M274.396 245.025L281.216 243.29" stroke="white" stroke-width="1.5" stroke-miterlimit="50" stroke-linecap="square"/>
<mask id="mask24_175_215" style="mask-type:luminance" maskUnits="userSpaceOnUse" x="239" y="74" width="123" height="218">
<path d="M361.316 74.7756H239.282V291.924H361.316V74.7756Z" fill="white"/>
</mask>
<g mask="url(#mask24_175_215)">
<mask id="mask25_175_215" style="mask-type:alpha" maskUnits="userSpaceOnUse" x="239" y="74" width="123" height="218">
<path d="M326.494 78.3637L318.537 125.365C318.537 125.365 288.322 173.681 276.596 176.252C232.142 185.88 236.809 242.389 243.689 275.277C246.382 288.134 260.082 295.37 272.228 290.287L287.664 283.888L336.127 263.737L329.905 244.601L347.974 234.316L321.768 189.946L350.965 149.642C354.615 144.62 356.769 138.699 357.188 132.54L361.316 74.7756L326.494 78.3637Z" fill="#3F4559"/>
</mask>
<g mask="url(#mask25_175_215)">
<path d="M326.494 78.3637L318.537 125.365C318.537 125.365 288.322 173.681 276.596 176.252C232.142 185.88 236.809 242.389 243.689 275.277C246.382 288.134 260.082 295.37 272.228 290.287L287.664 283.888L336.127 263.737L329.905 244.601L347.974 234.316L321.768 189.946L350.965 149.642C354.615 144.62 356.769 138.699 357.188 132.54L361.316 74.7756L326.494 78.3637Z" fill="#3F4559"/>
<path d="M262.314 200.997C266.443 200.997 269.791 197.649 269.791 193.519C269.791 189.39 266.443 186.042 262.314 186.042C258.184 186.042 254.836 189.39 254.836 193.519C254.836 197.649 258.184 200.997 262.314 200.997Z" fill="#333848"/>
<path d="M291.326 165.703C296.281 165.703 300.299 161.685 300.299 156.73C300.299 151.774 296.281 147.757 291.326 147.757C286.37 147.757 282.353 151.774 282.353 156.73C282.353 161.685 286.37 165.703 291.326 165.703Z" fill="#333848"/>
<path d="M321.237 154.337C326.192 154.337 330.21 150.32 330.21 145.364C330.21 140.408 326.192 136.391 321.237 136.391C316.281 136.391 312.264 140.408 312.264 145.364C312.264 150.32 316.281 154.337 321.237 154.337Z" fill="#333848"/>
<path d="M327.218 112.463C332.174 112.463 336.191 108.445 336.191 103.49C336.191 98.5338 332.174 94.5164 327.218 94.5164C322.263 94.5164 318.245 98.5338 318.245 103.49C318.245 108.445 322.263 112.463 327.218 112.463Z" fill="#333848"/>
<path d="M245.563 245.264C251.345 245.264 256.032 240.577 256.032 234.796C256.032 229.014 251.345 224.327 245.563 224.327C239.782 224.327 235.095 229.014 235.095 234.796C235.095 240.577 239.782 245.264 245.563 245.264Z" fill="#333848"/>
<path d="M274.875 261.416C279.005 261.416 282.353 258.068 282.353 253.938C282.353 249.808 279.005 246.461 274.875 246.461C270.745 246.461 267.397 249.808 267.397 253.938C267.397 258.068 270.745 261.416 274.875 261.416Z" fill="#333848"/>
<path d="M288.634 233.3C292.764 233.3 296.111 229.952 296.111 225.823C296.111 221.693 292.764 218.345 288.634 218.345C284.504 218.345 281.156 221.693 281.156 225.823C281.156 229.952 284.504 233.3 288.634 233.3Z" fill="#333848"/>
<path d="M265.005 291.924C269.961 291.924 273.978 287.907 273.978 282.951C273.978 277.995 269.961 273.978 265.005 273.978C260.05 273.978 256.032 277.995 256.032 282.951C256.032 287.907 260.05 291.924 265.005 291.924Z" fill="#333848"/>
<path d="M330.808 223.131C335.764 223.131 339.781 219.113 339.781 214.158C339.781 209.202 335.764 205.184 330.808 205.184C325.852 205.184 321.835 209.202 321.835 214.158C321.835 219.113 325.852 223.131 330.808 223.131Z" fill="#333848"/>
<path d="M315.254 270.09C315.254 274.22 311.906 277.567 307.776 277.567C303.646 277.567 300.299 274.22 300.299 270.09C300.299 265.96 303.646 262.612 307.776 262.612C311.906 262.612 315.254 265.96 315.254 270.09Z" fill="#333848"/>
<path d="M300 205.783C304.13 205.783 307.478 202.435 307.478 198.305C307.478 194.175 304.13 190.828 300 190.828C295.87 190.828 292.522 194.175 292.522 198.305C292.522 202.435 295.87 205.783 300 205.783Z" fill="#333848"/>
<path d="M325.125 186.64C329.255 186.64 332.603 183.292 332.603 179.163C332.603 175.033 329.255 171.685 325.125 171.685C320.995 171.685 317.647 175.033 317.647 179.163C317.647 183.292 320.995 186.64 325.125 186.64Z" fill="#333848"/>
<path d="M295.813 119.641C299.942 119.641 303.29 116.293 303.29 112.163C303.29 108.034 299.942 104.686 295.813 104.686C291.683 104.686 288.335 108.034 288.335 112.163C288.335 116.293 291.683 119.641 295.813 119.641Z" fill="#333848"/>
<path d="M353.839 144.167C357.969 144.167 361.316 140.82 361.316 136.69C361.316 132.56 357.969 129.212 353.839 129.212C349.709 129.212 346.361 132.56 346.361 136.69C346.361 140.82 349.709 144.167 353.839 144.167Z" fill="#333848"/>
<path d="M280.857 141.176C284.987 141.176 288.335 137.829 288.335 133.699C288.335 129.569 284.987 126.221 280.857 126.221C276.728 126.221 273.38 129.569 273.38 133.699C273.38 137.829 276.728 141.176 280.857 141.176Z" fill="#333848"/>
</g>
</g>
<path d="M331.465 249.452C331.465 249.392 345.703 236.411 345.703 236.411L362.572 232.881C362.572 232.881 348.694 219.541 327.397 236.65L331.465 249.452Z" fill="#EEB291"/>
<path d="M405.523 193.101L406.6 201.894L395.294 201.715M275.055 216.371L281.216 243.41L325.543 230.608L331.765 249.751L346.181 235.633L385.543 230.429C385.543 230.429 396.909 228.634 402.532 232.223" stroke="white" stroke-width="1.5" stroke-miterlimit="50" stroke-linecap="square"/>
<path d="M239.462 186.162V277.089H55.873V206.261L75.9725 186.162H239.462ZM597.249 191.007V262.313H454.278L434.178 242.273V191.067L597.249 191.007ZM198.306 376.57H381.596V292.044H178.206V356.411L198.306 376.57ZM538.864 121.436H503.091V61.2562H538.864V121.436Z" fill="#333848"/>
<path d="M199.382 61.1366C189.631 61.1366 183.59 50.5484 188.614 42.1735C193.46 33.9781 205.304 33.9781 210.21 42.1735C215.175 50.5484 209.133 61.1366 199.382 61.1366Z" fill="#FF711F"/>
<path d="M302.274 90.3889C302.274 94.8156 298.684 98.4646 294.198 98.4646C289.711 98.4646 286.122 94.8754 286.122 90.3889C286.122 85.9621 289.711 82.3131 294.198 82.3131C298.684 82.3729 302.274 85.9621 302.274 90.3889ZM299.821 76.5105H288.635V32.1835H299.821V76.5105Z" fill="#333848"/>
<path d="M150.449 258.843C150.449 260.399 149.253 261.655 147.697 261.655C146.142 261.655 144.886 260.459 144.886 258.903V258.843C144.886 257.288 146.202 256.092 147.697 256.092C149.193 256.152 150.389 257.348 150.449 258.843ZM531.685 86.2014C531.685 87.5773 530.549 88.7139 529.173 88.7139C527.797 88.7139 526.66 87.5773 526.66 86.2014C526.66 84.8255 527.797 83.6889 529.173 83.6889C530.549 83.6889 531.685 84.8255 531.685 86.2014ZM530.908 81.8345H527.378V67.8963H530.908V81.8345Z" fill="#FF711F"/>
<path d="M577.508 206.022H586.361M581.935 201.595V210.449M187 305.623H196.631M191.785 300.778V310.409M64.3076 265.603H73.4003M68.854 261.057V270.15M223.071 197.767H233.66M228.336 192.503V203.091M427.957 123.35H435.135M431.546 119.761V126.939M507.279 113.42H513.56M510.449 110.309V116.59" stroke="#FFCDB0" stroke-width="2" stroke-miterlimit="50"/>
<path d="M556.331 382.433H505.005V340.259H556.331V382.433Z" fill="#333848"/>
<path d="M556.331 382.433H505.005V340.259H556.331V382.433Z" fill="#333848"/>
<path d="M525.883 361.376H535.454M530.668 356.59V366.161" stroke="#FFCDB0" stroke-width="2" stroke-miterlimit="50"/>
<path d="M200.578 128.195C200.578 129.93 199.143 131.366 197.408 131.366C195.673 131.366 194.237 129.93 194.237 128.195C194.237 126.461 195.673 125.025 197.408 125.025C199.143 125.025 200.578 126.461 200.578 128.195ZM199.561 122.752H195.194V105.404H199.561V122.752Z" fill="#333848"/>
<path d="M242.333 79.5613L251.246 88.4745M251.246 79.5613L242.333 88.4745" stroke="#FF711F" stroke-width="2" stroke-miterlimit="50"/>
<path d="M287.796 177.667L280.917 176.829L287.318 181.854L287.796 177.667Z" fill="#24272D"/>
<path d="M344.446 228.215C344.446 228.215 355.513 225.284 362.572 232.822" stroke="white" stroke-width="1.5" stroke-miterlimit="50" stroke-linecap="square"/>
<path d="M100.154 235.475C99.9672 235.633 99.7232 235.762 99.4217 235.863C99.1345 235.949 98.7971 235.992 98.4095 235.992C97.8927 235.992 97.462 235.927 97.1174 235.798C96.7872 235.669 96.5718 235.446 96.4713 235.131C96.0693 233.867 95.7391 232.848 95.4807 232.073C95.2223 231.283 95.0213 230.594 94.8777 230.005H94.77C94.727 230.852 94.6911 231.628 94.6624 232.331C94.648 233.02 94.6336 233.695 94.6193 234.355C94.6193 235.016 94.6049 235.683 94.5762 236.358C94.5619 237.033 94.5331 237.779 94.4901 238.598C94.3034 238.67 94.0594 238.727 93.7579 238.77C93.4564 238.828 93.1549 238.856 92.8534 238.856C92.2217 238.856 91.7264 238.756 91.3674 238.555C91.0229 238.354 90.8506 237.988 90.8506 237.456L91.4751 226.473C91.59 226.287 91.8412 226.086 92.2289 225.87C92.6165 225.655 93.1621 225.547 93.8655 225.547C94.6265 225.547 95.2223 225.669 95.653 225.914C96.0837 226.143 96.3995 226.524 96.6005 227.055C96.7297 227.399 96.8661 227.794 97.0097 228.239C97.1676 228.684 97.3184 229.144 97.462 229.618C97.6199 230.091 97.7706 230.565 97.9142 231.039C98.0578 231.498 98.187 231.915 98.3018 232.288H98.4095C98.7541 231.082 99.0986 229.919 99.4432 228.799C99.7878 227.665 100.104 226.717 100.391 225.957C100.606 225.842 100.879 225.748 101.209 225.677C101.554 225.59 101.934 225.547 102.35 225.547C103.054 225.547 103.628 225.655 104.073 225.87C104.518 226.071 104.777 226.366 104.849 226.753C104.906 227.041 104.963 227.486 105.021 228.089C105.093 228.677 105.164 229.345 105.236 230.091C105.308 230.838 105.38 231.628 105.452 232.46C105.523 233.293 105.588 234.097 105.645 234.872C105.717 235.633 105.775 236.337 105.818 236.983C105.861 237.614 105.889 238.103 105.904 238.447C105.66 238.591 105.401 238.691 105.129 238.749C104.87 238.82 104.533 238.856 104.116 238.856C103.571 238.856 103.111 238.763 102.738 238.576C102.365 238.39 102.164 238.024 102.135 237.478C102.049 235.913 101.992 234.506 101.963 233.257C101.948 232.008 101.92 230.96 101.877 230.113H101.769C101.625 230.673 101.417 231.376 101.145 232.223C100.872 233.07 100.542 234.154 100.154 235.475ZM118.523 233.451C118.523 234.341 118.387 235.138 118.114 235.841C117.841 236.53 117.453 237.112 116.951 237.586C116.463 238.059 115.874 238.418 115.185 238.662C114.496 238.907 113.728 239.029 112.881 239.029C112.034 239.029 111.266 238.899 110.576 238.641C109.887 238.382 109.291 238.016 108.789 237.543C108.301 237.054 107.92 236.466 107.648 235.777C107.375 235.088 107.238 234.312 107.238 233.451C107.238 232.604 107.375 231.836 107.648 231.147C107.92 230.457 108.301 229.876 108.789 229.402C109.291 228.914 109.887 228.541 110.576 228.282C111.266 228.024 112.034 227.895 112.881 227.895C113.728 227.895 114.496 228.031 115.185 228.304C115.874 228.562 116.463 228.936 116.951 229.424C117.453 229.898 117.841 230.479 118.114 231.168C118.387 231.857 118.523 232.618 118.523 233.451ZM110.986 233.451C110.986 234.327 111.151 235.001 111.481 235.475C111.825 235.935 112.299 236.164 112.902 236.164C113.505 236.164 113.965 235.927 114.281 235.454C114.611 234.98 114.776 234.312 114.776 233.451C114.776 232.589 114.611 231.929 114.281 231.47C113.95 230.996 113.484 230.759 112.881 230.759C112.278 230.759 111.811 230.996 111.481 231.47C111.151 231.929 110.986 232.589 110.986 233.451ZM120.115 224.664C120.259 224.621 120.489 224.578 120.805 224.535C121.12 224.478 121.443 224.449 121.774 224.449C122.089 224.449 122.369 224.471 122.613 224.514C122.872 224.557 123.087 224.643 123.26 224.772C123.432 224.901 123.561 225.081 123.647 225.311C123.733 225.526 123.776 225.813 123.776 226.172V228.282C124.135 228.139 124.473 228.038 124.789 227.981C125.119 227.923 125.478 227.895 125.865 227.895C126.554 227.895 127.208 228.017 127.825 228.261C128.442 228.505 128.988 228.864 129.462 229.338C129.936 229.797 130.309 230.371 130.582 231.06C130.854 231.75 130.991 232.546 130.991 233.451C130.991 234.384 130.847 235.202 130.56 235.906C130.287 236.595 129.9 237.169 129.397 237.629C128.895 238.088 128.277 238.44 127.545 238.684C126.827 238.914 126.03 239.029 125.155 239.029C124.207 239.029 123.403 238.914 122.743 238.684C122.082 238.469 121.522 238.196 121.063 237.866C120.431 237.421 120.115 236.846 120.115 236.143V224.664ZM125.155 236.143C125.815 236.143 126.325 235.92 126.684 235.475C127.057 235.016 127.244 234.341 127.244 233.451C127.244 232.546 127.057 231.872 126.684 231.427C126.31 230.981 125.808 230.759 125.176 230.759C124.889 230.759 124.638 230.788 124.422 230.845C124.221 230.903 123.999 230.989 123.755 231.104V235.798C123.913 235.899 124.099 235.985 124.315 236.057C124.545 236.114 124.824 236.143 125.155 236.143ZM132.452 225.311C132.452 224.765 132.631 224.306 132.99 223.932C133.363 223.559 133.851 223.372 134.454 223.372C135.057 223.372 135.538 223.559 135.897 223.932C136.271 224.306 136.457 224.765 136.457 225.311C136.457 225.856 136.271 226.315 135.897 226.689C135.538 227.062 135.057 227.249 134.454 227.249C133.851 227.249 133.363 227.062 132.99 226.689C132.631 226.315 132.452 225.856 132.452 225.311ZM136.285 238.662C136.127 238.691 135.89 238.727 135.574 238.77C135.273 238.828 134.964 238.856 134.648 238.856C134.332 238.856 134.045 238.835 133.787 238.792C133.543 238.749 133.335 238.662 133.162 238.533C132.99 238.404 132.854 238.232 132.753 238.016C132.667 237.787 132.624 237.492 132.624 237.133V228.369C132.782 228.34 133.012 228.304 133.313 228.261C133.629 228.203 133.945 228.175 134.261 228.175C134.576 228.175 134.856 228.196 135.1 228.239C135.359 228.282 135.574 228.369 135.747 228.498C135.919 228.627 136.048 228.806 136.134 229.036C136.235 229.251 136.285 229.539 136.285 229.898V238.662ZM142.104 238.662C141.946 238.691 141.709 238.727 141.394 238.77C141.092 238.828 140.783 238.856 140.468 238.856C140.152 238.856 139.865 238.835 139.606 238.792C139.362 238.749 139.154 238.662 138.982 238.533C138.809 238.404 138.673 238.232 138.572 238.016C138.486 237.787 138.443 237.492 138.443 237.133V224.643C138.601 224.614 138.831 224.578 139.132 224.535C139.448 224.478 139.764 224.449 140.08 224.449C140.396 224.449 140.676 224.471 140.92 224.514C141.178 224.557 141.394 224.643 141.566 224.772C141.738 224.901 141.867 225.081 141.953 225.311C142.054 225.526 142.104 225.813 142.104 226.172V238.662ZM149.712 239.029C148.865 239.029 148.076 238.914 147.343 238.684C146.625 238.44 145.994 238.081 145.448 237.607C144.917 237.133 144.493 236.538 144.178 235.82C143.876 235.102 143.725 234.262 143.725 233.3C143.725 232.353 143.876 231.541 144.178 230.867C144.493 230.178 144.903 229.618 145.405 229.187C145.908 228.742 146.482 228.419 147.128 228.218C147.774 228.002 148.434 227.895 149.109 227.895C149.87 227.895 150.559 228.01 151.177 228.239C151.808 228.469 152.347 228.785 152.792 229.187C153.251 229.589 153.603 230.07 153.847 230.63C154.105 231.19 154.235 231.8 154.235 232.46C154.235 232.948 154.098 233.322 153.825 233.58C153.553 233.839 153.172 234.004 152.684 234.075L147.365 234.872C147.523 235.346 147.846 235.705 148.334 235.949C148.822 236.179 149.382 236.294 150.014 236.294C150.602 236.294 151.155 236.222 151.672 236.078C152.203 235.92 152.634 235.741 152.964 235.54C153.194 235.683 153.388 235.884 153.546 236.143C153.703 236.401 153.782 236.674 153.782 236.961C153.782 237.607 153.481 238.088 152.878 238.404C152.418 238.648 151.902 238.813 151.327 238.899C150.753 238.985 150.215 239.029 149.712 239.029ZM149.109 230.565C148.765 230.565 148.463 230.623 148.205 230.737C147.961 230.852 147.76 231.003 147.602 231.19C147.444 231.362 147.322 231.563 147.236 231.793C147.164 232.008 147.121 232.231 147.106 232.46L150.789 231.857C150.746 231.57 150.588 231.283 150.315 230.996C150.042 230.709 149.64 230.565 149.109 230.565ZM162.892 226.021C163.137 225.878 163.503 225.741 163.991 225.612C164.493 225.483 164.996 225.418 165.498 225.418C166.216 225.418 166.848 225.526 167.393 225.741C167.953 225.942 168.312 226.265 168.47 226.71C168.729 227.457 169.009 228.325 169.31 229.316C169.612 230.307 169.913 231.333 170.214 232.396C170.516 233.444 170.81 234.485 171.097 235.518C171.385 236.538 171.636 237.442 171.851 238.232C171.679 238.433 171.42 238.591 171.076 238.706C170.731 238.835 170.322 238.899 169.848 238.899C169.504 238.899 169.21 238.871 168.965 238.813C168.736 238.756 168.542 238.67 168.384 238.555C168.24 238.44 168.118 238.289 168.018 238.103C167.932 237.916 167.853 237.701 167.781 237.456L167.393 235.971H163.495C163.381 236.401 163.266 236.846 163.151 237.306C163.036 237.765 162.921 238.21 162.806 238.641C162.605 238.713 162.39 238.77 162.16 238.813C161.945 238.871 161.679 238.899 161.363 238.899C160.631 238.899 160.086 238.777 159.727 238.533C159.382 238.275 159.21 237.923 159.21 237.478C159.21 237.277 159.239 237.076 159.296 236.875C159.353 236.674 159.418 236.437 159.49 236.164C159.59 235.777 159.727 235.296 159.899 234.721C160.086 234.147 160.287 233.53 160.502 232.869C160.717 232.195 160.947 231.506 161.191 230.802C161.435 230.099 161.665 229.438 161.88 228.821C162.096 228.189 162.289 227.629 162.462 227.141C162.648 226.653 162.792 226.28 162.892 226.021ZM165.477 228.799C165.276 229.402 165.046 230.077 164.788 230.824C164.544 231.556 164.321 232.302 164.12 233.063H166.79C166.589 232.288 166.381 231.534 166.166 230.802C165.965 230.055 165.778 229.388 165.606 228.799H165.477ZM177.901 227.895C178.763 227.895 179.56 228.01 180.292 228.239C181.038 228.455 181.677 228.792 182.209 229.251C182.74 229.711 183.156 230.292 183.458 230.996C183.759 231.685 183.91 232.511 183.91 233.472C183.91 234.391 183.781 235.195 183.522 235.884C183.264 236.574 182.898 237.155 182.424 237.629C181.95 238.088 181.376 238.433 180.701 238.662C180.041 238.892 179.301 239.007 178.483 239.007C177.866 239.007 177.291 238.914 176.76 238.727V242.302C176.617 242.345 176.387 242.388 176.071 242.431C175.755 242.489 175.432 242.517 175.102 242.517C174.786 242.517 174.499 242.496 174.24 242.453C173.996 242.41 173.788 242.323 173.616 242.194C173.444 242.065 173.314 241.886 173.228 241.656C173.142 241.441 173.099 241.153 173.099 240.794V230.457C173.099 230.07 173.178 229.754 173.336 229.51C173.508 229.266 173.738 229.043 174.025 228.842C174.47 228.555 175.023 228.325 175.683 228.153C176.344 227.981 177.083 227.895 177.901 227.895ZM177.945 236.121C179.423 236.121 180.163 235.238 180.163 233.472C180.163 232.554 179.976 231.872 179.603 231.427C179.244 230.981 178.72 230.759 178.031 230.759C177.758 230.759 177.514 230.795 177.298 230.867C177.083 230.924 176.896 230.996 176.739 231.082V235.82C176.911 235.906 177.097 235.978 177.298 236.035C177.499 236.093 177.715 236.121 177.945 236.121ZM190.262 227.895C191.124 227.895 191.92 228.01 192.653 228.239C193.399 228.455 194.038 228.792 194.569 229.251C195.1 229.711 195.517 230.292 195.818 230.996C196.12 231.685 196.271 232.511 196.271 233.472C196.271 234.391 196.141 235.195 195.883 235.884C195.624 236.574 195.258 237.155 194.785 237.629C194.311 238.088 193.737 238.433 193.062 238.662C192.401 238.892 191.662 239.007 190.844 239.007C190.226 239.007 189.652 238.914 189.121 238.727V242.302C188.977 242.345 188.747 242.388 188.432 242.431C188.116 242.489 187.793 242.517 187.463 242.517C187.147 242.517 186.86 242.496 186.601 242.453C186.357 242.41 186.149 242.323 185.977 242.194C185.804 242.065 185.675 241.886 185.589 241.656C185.503 241.441 185.46 241.153 185.46 240.794V230.457C185.46 230.07 185.539 229.754 185.697 229.51C185.869 229.266 186.099 229.043 186.386 228.842C186.831 228.555 187.384 228.325 188.044 228.153C188.704 227.981 189.444 227.895 190.262 227.895ZM190.305 236.121C191.784 236.121 192.523 235.238 192.523 233.472C192.523 232.554 192.337 231.872 191.963 231.427C191.605 230.981 191.08 230.759 190.391 230.759C190.119 230.759 189.875 230.795 189.659 230.867C189.444 230.924 189.257 230.996 189.099 231.082V235.82C189.272 235.906 189.458 235.978 189.659 236.035C189.86 236.093 190.076 236.121 190.305 236.121ZM206.649 235.561C206.649 236.652 206.24 237.507 205.422 238.124C204.604 238.741 203.398 239.05 201.804 239.05C201.201 239.05 200.641 239.007 200.124 238.921C199.607 238.835 199.162 238.706 198.789 238.533C198.43 238.347 198.143 238.117 197.928 237.844C197.727 237.571 197.626 237.248 197.626 236.875C197.626 236.53 197.698 236.243 197.841 236.014C197.985 235.77 198.157 235.569 198.358 235.411C198.775 235.64 199.248 235.848 199.78 236.035C200.325 236.207 200.95 236.294 201.653 236.294C202.098 236.294 202.436 236.229 202.665 236.1C202.909 235.971 203.031 235.798 203.031 235.583C203.031 235.382 202.945 235.224 202.773 235.109C202.601 234.994 202.314 234.901 201.912 234.829L201.266 234.7C200.016 234.456 199.083 234.075 198.466 233.559C197.863 233.027 197.561 232.274 197.561 231.297C197.561 230.766 197.676 230.285 197.906 229.854C198.136 229.424 198.459 229.065 198.875 228.778C199.291 228.491 199.787 228.268 200.361 228.11C200.95 227.952 201.596 227.873 202.299 227.873C202.83 227.873 203.326 227.916 203.785 228.002C204.259 228.074 204.668 228.189 205.013 228.347C205.357 228.505 205.63 228.713 205.831 228.972C206.032 229.216 206.133 229.51 206.133 229.854C206.133 230.185 206.068 230.472 205.939 230.716C205.824 230.946 205.673 231.139 205.486 231.297C205.372 231.226 205.199 231.154 204.97 231.082C204.74 230.996 204.489 230.924 204.216 230.867C203.943 230.795 203.663 230.737 203.376 230.694C203.103 230.651 202.852 230.63 202.622 230.63C202.149 230.63 201.782 230.687 201.524 230.802C201.266 230.903 201.136 231.068 201.136 231.297C201.136 231.455 201.208 231.584 201.352 231.685C201.495 231.785 201.768 231.879 202.17 231.965L202.838 232.116C204.216 232.432 205.192 232.869 205.766 233.429C206.355 233.975 206.649 234.686 206.649 235.561Z" fill="#FFCDB0"/>
<path d="M394.423 107.055C394.359 106.914 394.289 106.698 394.213 106.404C394.123 106.098 394.079 105.791 394.079 105.485C394.079 104.949 394.162 104.502 394.327 104.145C394.481 103.788 394.71 103.571 395.017 103.494C395.54 103.354 396.031 103.226 396.491 103.111C396.937 102.984 397.371 102.863 397.792 102.748C398.201 102.633 398.609 102.525 399.017 102.422C399.426 102.307 399.853 102.199 400.3 102.097V102.001C399.522 101.886 398.781 101.784 398.079 101.695C397.365 101.606 396.669 101.523 395.993 101.446C395.304 101.369 394.627 101.293 393.964 101.216C393.287 101.14 392.605 101.063 391.915 100.987C391.647 100.515 391.513 100.01 391.513 99.4743C391.513 99.0024 391.616 98.5938 391.82 98.2492C392.024 97.9047 392.368 97.7324 392.853 97.7324C393.134 97.7324 393.536 97.7641 394.059 97.8281C394.57 97.8789 395.144 97.9555 395.782 98.0578C396.421 98.1469 397.091 98.2558 397.792 98.3832C398.494 98.5106 399.164 98.6446 399.802 98.7852C400.441 98.9258 401.021 99.0723 401.544 99.2255C402.054 99.3661 402.45 99.5001 402.731 99.6275C402.91 99.8189 403.056 100.132 403.171 100.565C403.286 100.999 403.344 101.446 403.344 101.905C403.344 102.505 403.267 103.016 403.114 103.437C402.948 103.845 402.718 104.094 402.425 104.183C401.914 104.349 401.308 104.528 400.606 104.719C399.905 104.911 399.132 105.115 398.29 105.332C399.12 105.511 399.93 105.696 400.721 105.887C401.512 106.079 402.182 106.251 402.731 106.404C402.91 106.595 403.056 106.883 403.171 107.265C403.286 107.648 403.344 108.069 403.344 108.529C403.344 109.103 403.267 109.626 403.114 110.098C402.948 110.558 402.718 110.858 402.425 110.998C402.195 111.113 401.857 111.24 401.41 111.381C400.951 111.508 400.434 111.642 399.86 111.783C399.273 111.924 398.641 112.07 397.965 112.223C397.288 112.364 396.612 112.498 395.935 112.625C395.259 112.74 394.602 112.848 393.964 112.951C393.313 113.053 392.719 113.13 392.183 113.18C392.018 113.002 391.865 112.753 391.724 112.434C391.583 112.115 391.513 111.77 391.513 111.4C391.513 110.915 391.622 110.52 391.839 110.213C392.043 109.894 392.394 109.696 392.892 109.62C394.193 109.416 395.278 109.25 396.146 109.122C397.014 108.982 397.728 108.873 398.29 108.797C398.839 108.708 399.266 108.644 399.573 108.605C399.879 108.567 400.121 108.529 400.3 108.491V108.395C399.79 108.28 399.317 108.172 398.883 108.069C398.45 107.967 398.015 107.865 397.582 107.763C397.135 107.648 396.663 107.533 396.165 107.419C395.655 107.304 395.074 107.182 394.423 107.055ZM403.497 91.6157C403.497 92.3689 403.394 93.0706 403.19 93.7214C402.973 94.3597 402.654 94.9214 402.233 95.406C401.812 95.8785 401.283 96.2548 400.645 96.5354C400.006 96.8034 399.26 96.9374 398.405 96.9374C397.563 96.9374 396.842 96.8034 396.242 96.5354C395.629 96.2548 395.131 95.8911 394.749 95.4442C394.353 94.998 394.066 94.4871 393.887 93.9128C393.696 93.3386 393.6 92.7517 393.6 92.1517C393.6 91.4757 393.702 90.8632 393.906 90.314C394.11 89.7529 394.391 89.2743 394.749 88.8783C395.106 88.4704 395.533 88.1575 396.031 87.9403C396.529 87.7106 397.071 87.5958 397.658 87.5958C398.092 87.5958 398.424 87.7172 398.654 87.9595C398.883 88.2024 399.03 88.5403 399.094 88.974L399.802 93.7023C400.223 93.5623 400.542 93.2751 400.759 92.8409C400.963 92.4072 401.066 91.9094 401.066 91.3477C401.066 90.8249 401.002 90.3332 400.874 89.8737C400.734 89.4018 400.575 89.0189 400.396 88.7252C400.523 88.5212 400.702 88.3489 400.932 88.2083C401.161 88.0684 401.404 87.9978 401.659 87.9978C402.233 87.9978 402.661 88.2658 402.942 88.8018C403.159 89.2103 403.305 89.6698 403.382 90.18C403.458 90.6909 403.497 91.1695 403.497 91.6157ZM395.974 92.1517C395.974 92.458 396.025 92.726 396.127 92.9557C396.229 93.1729 396.363 93.3517 396.529 93.4917C396.682 93.6323 396.861 93.7405 397.065 93.8171C397.256 93.8811 397.454 93.9194 397.658 93.932L397.122 90.6586C396.867 90.6969 396.612 90.8375 396.357 91.0797C396.101 91.3226 395.974 91.6797 395.974 92.1517ZM390.729 86.202C390.69 86.0745 390.652 85.87 390.614 85.5894C390.563 85.3088 390.537 85.0217 390.537 84.728C390.537 84.4474 390.556 84.1986 390.595 83.9814C390.633 83.7517 390.71 83.5603 390.824 83.4071C390.939 83.254 391.099 83.1391 391.303 83.0626C391.494 82.986 391.75 82.9477 392.069 82.9477H393.945C393.817 82.6289 393.727 82.3286 393.677 82.048C393.626 81.7543 393.6 81.4355 393.6 81.0909C393.6 80.4783 393.708 79.8975 393.925 79.3489C394.143 78.8004 394.461 78.3152 394.883 77.8941C395.291 77.4729 395.801 77.1409 396.414 76.8987C397.027 76.6564 397.735 76.535 398.539 76.535C399.369 76.535 400.096 76.6624 400.721 76.9178C401.334 77.1601 401.844 77.5047 402.252 77.9515C402.661 78.3984 402.973 78.9469 403.19 79.5978C403.394 80.2361 403.497 80.9443 403.497 81.7226C403.497 82.5649 403.394 83.2797 403.19 83.8666C402.999 84.4534 402.757 84.9511 402.463 85.3597C402.068 85.9214 401.557 86.202 400.932 86.202H390.729ZM400.932 81.7226C400.932 81.1358 400.734 80.6823 400.338 80.3635C399.93 80.0315 399.33 79.8658 398.539 79.8658C397.735 79.8658 397.135 80.0315 396.739 80.3635C396.344 80.6955 396.146 81.1417 396.146 81.7035C396.146 81.9589 396.172 82.182 396.223 82.3735C396.273 82.5523 396.35 82.7497 396.452 82.9669H400.625C400.714 82.8263 400.791 82.6606 400.855 82.4692C400.906 82.2652 400.932 82.0163 400.932 81.7226ZM400.415 67.3112C401.384 67.3112 402.144 67.6749 402.693 68.4024C403.241 69.1298 403.516 70.2018 403.516 71.6183C403.516 72.1543 403.478 72.652 403.401 73.1114C403.324 73.5709 403.21 73.9663 403.056 74.2983C402.891 74.6171 402.686 74.8725 402.444 75.064C402.202 75.2428 401.914 75.332 401.582 75.332C401.276 75.332 401.021 75.268 400.817 75.1405C400.6 75.0131 400.421 74.86 400.281 74.6811C400.485 74.3108 400.67 73.8897 400.836 73.4177C400.989 72.9326 401.066 72.3774 401.066 71.7523C401.066 71.3569 401.008 71.0566 400.893 70.8526C400.778 70.6355 400.625 70.5272 400.434 70.5272C400.255 70.5272 400.115 70.6038 400.013 70.7569C399.91 70.91 399.828 71.1655 399.764 71.5226L399.649 72.0969C399.432 73.2071 399.094 74.0369 398.635 74.5854C398.163 75.1214 397.493 75.3894 396.625 75.3894C396.153 75.3894 395.725 75.2871 395.342 75.0831C394.959 74.8791 394.64 74.592 394.385 74.2217C394.129 73.8514 393.932 73.4111 393.791 72.9009C393.651 72.3774 393.581 71.8032 393.581 71.178C393.581 70.706 393.619 70.2658 393.696 69.8572C393.76 69.4361 393.861 69.0723 394.002 68.7661C394.143 68.4598 394.327 68.2175 394.557 68.0387C394.774 67.8598 395.036 67.7707 395.342 67.7707C395.636 67.7707 395.891 67.8281 396.108 67.9429C396.312 68.0452 396.484 68.1792 396.625 68.3449C396.561 68.4472 396.497 68.6004 396.433 68.8044C396.357 69.0083 396.293 69.2321 396.242 69.4743C396.178 69.7166 396.127 69.9655 396.089 70.2209C396.05 70.4632 396.031 70.6869 396.031 70.8909C396.031 71.312 396.082 71.6375 396.184 71.8672C396.273 72.0969 396.421 72.2117 396.625 72.2117C396.765 72.2117 396.88 72.1477 396.969 72.0203C397.058 71.8929 397.141 71.65 397.218 71.2929L397.352 70.6995C397.633 69.4743 398.022 68.6063 398.52 68.0961C399.005 67.5726 399.637 67.3112 400.415 67.3112ZM391.303 66.0251C390.818 66.0251 390.41 65.8654 390.078 65.5465C389.746 65.2145 389.58 64.7808 389.58 64.2448C389.58 63.7088 389.746 63.2811 390.078 62.9623C390.41 62.6303 390.818 62.4646 391.303 62.4646C391.788 62.4646 392.196 62.6303 392.528 62.9623C392.86 63.2811 393.026 63.7088 393.026 64.2448C393.026 64.7808 392.86 65.2145 392.528 65.5465C392.196 65.8654 391.788 66.0251 391.303 66.0251ZM403.171 62.6177C403.197 62.7583 403.229 62.9689 403.267 63.2494C403.318 63.5174 403.344 63.792 403.344 64.0725C403.344 64.3531 403.324 64.6085 403.286 64.8383C403.248 65.0554 403.171 65.2402 403.056 65.3934C402.942 65.5465 402.788 65.668 402.597 65.7571C402.393 65.8337 402.131 65.8719 401.812 65.8719H394.021C393.995 65.7314 393.964 65.5274 393.925 65.2594C393.875 64.9788 393.849 64.6977 393.849 64.4171C393.849 64.1366 393.868 63.8877 393.906 63.6706C393.945 63.4408 394.021 63.2494 394.136 63.0963C394.251 62.9431 394.411 62.8283 394.615 62.7517C394.806 62.6626 395.061 62.6177 395.38 62.6177H403.171ZM399.994 57.5023C400.326 57.5023 400.561 57.4002 400.702 57.1961C400.843 56.9791 400.912 56.6792 400.912 56.2964C400.912 56.1049 400.9 55.9071 400.874 55.7029C400.836 55.4987 400.791 55.3201 400.74 55.1669C400.881 55.0521 401.04 54.9564 401.219 54.8798C401.384 54.7904 401.589 54.7458 401.831 54.7458C402.316 54.7458 402.712 54.9308 403.018 55.3009C403.324 55.6583 403.478 56.2964 403.478 57.2152C403.478 58.3382 403.222 59.206 402.712 59.8186C402.202 60.4181 401.372 60.7184 400.223 60.7184H392.03C391.992 60.5778 391.954 60.3798 391.915 60.125C391.865 59.857 391.839 59.5761 391.839 59.2826C391.839 58.7211 391.941 58.2872 392.145 57.9809C392.337 57.6618 392.751 57.5023 393.389 57.5023H394.615V54.9947C394.755 54.9181 394.933 54.8479 395.151 54.7841C395.355 54.7075 395.584 54.6692 395.84 54.6692C396.287 54.6692 396.612 54.7713 396.816 54.9755C397.007 55.1669 397.103 55.4285 397.103 55.7604V57.5023H399.994ZM403.497 48.4951C403.497 49.2481 403.394 49.9499 403.19 50.6008C402.973 51.2389 402.654 51.8004 402.233 52.2853C401.812 52.7576 401.283 53.134 400.645 53.4147C400.006 53.6827 399.26 53.8167 398.405 53.8167C397.563 53.8167 396.842 53.6827 396.242 53.4147C395.629 53.134 395.131 52.7703 394.749 52.3236C394.353 51.877 394.066 51.3665 393.887 50.7922C393.696 50.2179 393.6 49.6309 393.6 49.0311C393.6 48.3548 393.702 47.7422 393.906 47.1934C394.11 46.6319 394.391 46.1534 394.749 45.7577C395.106 45.3494 395.533 45.0367 396.031 44.8197C396.529 44.59 397.071 44.4752 397.658 44.4752C398.092 44.4752 398.424 44.5964 398.654 44.8389C398.883 45.0814 399.03 45.4195 399.094 45.8534L399.802 50.5816C400.223 50.4413 400.542 50.1542 400.759 49.7202C400.963 49.2863 401.066 48.7886 401.066 48.2271C401.066 47.7039 401.002 47.2125 400.874 46.7531C400.734 46.281 400.575 45.8981 400.396 45.6046C400.523 45.4004 400.702 45.2281 400.932 45.0877C401.161 44.9474 401.404 44.8772 401.659 44.8772C402.233 44.8772 402.661 45.1452 402.942 45.6811C403.159 46.0895 403.305 46.549 403.382 47.0594C403.458 47.5699 403.497 48.0485 403.497 48.4951ZM395.974 49.0311C395.974 49.3374 396.025 49.6054 396.127 49.8351C396.229 50.0521 396.363 50.2307 396.529 50.3711C396.682 50.5115 396.861 50.6199 397.065 50.6965C397.256 50.7603 397.454 50.7986 397.658 50.8114L397.122 47.538C396.867 47.5763 396.612 47.7167 396.357 47.9591C396.101 48.2016 395.974 48.5589 395.974 49.0311ZM400.415 35.2709C401.384 35.2709 402.144 35.6346 402.693 36.362C403.241 37.0894 403.516 38.1614 403.516 39.578C403.516 40.1139 403.478 40.6117 403.401 41.0711C403.324 41.5305 403.21 41.9261 403.056 42.2579C402.891 42.577 402.686 42.8322 402.444 43.0236C402.202 43.2023 401.914 43.2916 401.582 43.2916C401.276 43.2916 401.021 43.2278 400.817 43.1002C400.6 42.9726 400.421 42.8194 400.281 42.6408C400.485 42.2707 400.67 41.8496 400.836 41.3774C400.989 40.8924 401.066 40.3373 401.066 39.712C401.066 39.3164 401.008 39.0165 400.893 38.8123C400.778 38.5953 400.625 38.4868 400.434 38.4868C400.255 38.4868 400.115 38.5634 400.013 38.7165C399.91 38.8697 399.828 39.1249 399.764 39.4822L399.649 40.0565C399.432 41.1668 399.094 41.9963 398.635 42.5451C398.163 43.081 397.493 43.349 396.625 43.349C396.153 43.349 395.725 43.247 395.342 43.0428C394.959 42.8386 394.64 42.5515 394.385 42.1813C394.129 41.8113 393.932 41.371 393.791 40.8605C393.651 40.3373 393.581 39.763 393.581 39.1377C393.581 38.6655 393.619 38.2252 393.696 37.8168C393.76 37.3957 393.861 37.032 394.002 36.7257C394.143 36.4194 394.327 36.177 394.557 35.9983C394.774 35.8197 395.036 35.7303 395.342 35.7303C395.636 35.7303 395.891 35.7877 396.108 35.9026C396.312 36.0047 396.484 36.1387 396.625 36.3046C396.561 36.4067 396.497 36.5598 396.433 36.764C396.357 36.9682 396.293 37.1915 396.242 37.434C396.178 37.6765 396.127 37.9253 396.089 38.1805C396.05 38.4231 396.031 38.6464 396.031 38.8505C396.031 39.2717 396.082 39.5971 396.184 39.8268C396.273 40.0565 396.421 40.1714 396.625 40.1714C396.765 40.1714 396.88 40.1076 396.969 39.9799C397.058 39.8523 397.141 39.6099 397.218 39.2525L397.352 38.6591C397.633 37.434 398.022 36.5662 398.52 36.0557C399.005 35.5325 399.637 35.2709 400.415 35.2709Z" fill="#FFCDB0"/>
<path d="M283.31 177.846H285.643C297.068 177.727 305.563 166.54 303.29 154.636L300.658 140.758C298.923 131.486 291.146 124.905 282.293 125.085C272.183 125.324 264.227 134.237 264.466 144.945L264.765 158.883C265.064 169.472 273.32 177.966 283.31 177.846Z" fill="#EEB291"/>
<path d="M290.609 147.876L292.463 155.414C292.942 157.328 291.805 159.302 289.831 159.781L289.412 159.9" stroke="#252B2D" stroke-width="1.5" stroke-miterlimit="50" stroke-linecap="round" stroke-linejoin="round"/>
<path d="M272.303 159.362L275.174 138.365L275.832 133.4C277.208 134.536 278.763 135.434 280.438 136.092C286.48 138.425 303.41 135.075 304.307 122.812C305.025 112.822 295.334 119.701 289.95 119.761C281.515 119.821 275.055 115.633 264.407 123.23C251.665 132.323 260.399 149.671 260.399 149.671C260.399 149.671 266.141 146.56 272.303 159.362Z" fill="#24272D"/>
<path d="M280.678 151.166C281.216 152.124 282.413 152.482 283.43 151.944C284.387 151.406 284.746 150.209 284.207 149.192C283.669 148.235 282.413 147.936 281.455 148.474C280.498 149.073 280.139 150.209 280.678 151.166ZM293.001 149.85C293.539 150.808 294.736 151.166 295.753 150.628C296.71 150.09 297.069 148.893 296.53 147.876C295.992 146.919 294.736 146.62 293.778 147.158C292.821 147.757 292.462 148.953 293.001 149.85Z" fill="#24272D"/>
<path d="M280.618 163.848C280.618 163.848 281.216 167.976 285.882 168.215" stroke="#252B2D" stroke-width="1.5" stroke-miterlimit="50" stroke-linecap="round" stroke-linejoin="round"/>
<path d="M273.5 166.301C276.55 163.848 277.089 159.302 274.636 156.251L270.329 150.867C267.876 147.817 263.33 147.278 260.279 149.731C257.228 152.183 256.69 156.73 259.143 159.781L263.45 165.165C265.902 168.275 270.449 168.754 273.5 166.301Z" fill="#EEB291"/>
<path d="M262.731 155.653L267.039 159.182" stroke="#252B2D" stroke-width="1.5" stroke-miterlimit="50" stroke-linecap="round" stroke-linejoin="round"/>
<path d="M75.9725 186.161V206.261H55.873L75.9725 186.161ZM198.306 376.57L178.206 356.471H198.306V376.57ZM454.337 242.273V262.373L434.178 242.273H454.337Z" fill="#3F4559"/>
<path d="M422.932 15.4935L443.031 35.5932H422.932V15.4935Z" fill="#3F4559"/>
<path d="M172.582 166.6H128.255V103.071L138.365 94.337H172.582V166.6Z" fill="#333848"/>
<path d="M138.365 103.071H128.255L138.365 94.337V103.071Z" fill="#3F4559"/>
<path d="M163.55 102.592H168.335M165.943 100.199V104.985" stroke="#FFCDB0" stroke-width="1.5" stroke-miterlimit="10"/>
<path d="M151.585 149.085C151.601 148.997 151.617 148.889 151.633 148.762C151.641 148.634 151.645 148.515 151.645 148.403C151.645 148.132 151.605 147.884 151.525 147.661C151.446 147.429 151.322 147.234 151.154 147.075C150.987 146.907 150.771 146.78 150.508 146.692C150.237 146.596 149.914 146.548 149.539 146.548C148.821 146.548 148.283 146.716 147.924 147.051C147.557 147.386 147.374 147.833 147.374 148.391C147.374 148.503 147.378 148.618 147.386 148.738C147.393 148.85 147.405 148.965 147.421 149.085H151.585ZM153.332 148.415C153.332 148.551 153.328 148.706 153.32 148.881C153.312 149.057 153.296 149.24 153.272 149.432C153.248 149.615 153.216 149.803 153.176 149.994C153.144 150.178 153.097 150.349 153.033 150.508C152.865 150.947 152.574 151.166 152.159 151.166H146.572C146.404 151.166 146.277 151.123 146.189 151.035C146.093 150.939 146.017 150.812 145.962 150.652C145.85 150.309 145.778 149.946 145.746 149.563C145.706 149.18 145.687 148.838 145.687 148.534C145.687 147.912 145.763 147.35 145.914 146.847C146.065 146.337 146.301 145.902 146.62 145.543C146.931 145.177 147.326 144.893 147.804 144.694C148.283 144.495 148.849 144.395 149.503 144.395C150.141 144.395 150.7 144.491 151.178 144.682C151.649 144.873 152.047 145.149 152.375 145.507C152.693 145.859 152.933 146.281 153.092 146.776C153.252 147.27 153.332 147.817 153.332 148.415ZM153.332 140.411C153.332 140.881 153.268 141.32 153.14 141.727C153.004 142.125 152.805 142.476 152.542 142.78C152.279 143.075 151.948 143.31 151.549 143.486C151.15 143.653 150.683 143.737 150.149 143.737C149.623 143.737 149.172 143.653 148.797 143.486C148.414 143.31 148.103 143.082 147.864 142.804C147.617 142.524 147.438 142.205 147.326 141.846C147.206 141.488 147.146 141.12 147.146 140.746C147.146 140.323 147.21 139.94 147.338 139.597C147.465 139.246 147.641 138.947 147.864 138.7C148.087 138.444 148.355 138.249 148.666 138.114C148.977 137.97 149.316 137.898 149.683 137.898C149.954 137.898 150.161 137.974 150.305 138.126C150.448 138.277 150.54 138.488 150.58 138.76L151.023 141.715C151.286 141.627 151.485 141.447 151.621 141.176C151.748 140.905 151.812 140.594 151.812 140.243C151.812 139.916 151.772 139.609 151.693 139.322C151.605 139.026 151.505 138.787 151.394 138.604C151.473 138.476 151.585 138.368 151.729 138.281C151.872 138.193 152.023 138.15 152.183 138.15C152.542 138.15 152.809 138.317 152.985 138.652C153.121 138.907 153.212 139.194 153.26 139.513C153.308 139.832 153.332 140.131 153.332 140.411ZM148.63 140.746C148.63 140.937 148.662 141.105 148.726 141.248C148.79 141.383 148.873 141.495 148.977 141.583C149.072 141.671 149.184 141.739 149.312 141.787C149.431 141.826 149.555 141.85 149.683 141.858L149.348 139.813C149.188 139.836 149.029 139.924 148.869 140.076C148.709 140.227 148.63 140.45 148.63 140.746ZM151.405 132.145C152.011 132.145 152.486 132.373 152.829 132.827C153.172 133.282 153.344 133.952 153.344 134.837C153.344 135.172 153.32 135.483 153.272 135.77C153.224 136.058 153.152 136.305 153.057 136.512C152.953 136.712 152.825 136.871 152.674 136.991C152.522 137.103 152.343 137.158 152.135 137.158C151.944 137.158 151.784 137.119 151.657 137.039C151.521 136.959 151.41 136.863 151.322 136.752C151.449 136.521 151.565 136.257 151.669 135.962C151.764 135.659 151.812 135.312 151.812 134.921C151.812 134.674 151.776 134.487 151.705 134.359C151.633 134.224 151.537 134.155 151.417 134.155C151.306 134.155 151.218 134.203 151.154 134.299C151.09 134.395 151.039 134.554 150.999 134.777L150.927 135.136C150.791 135.83 150.58 136.349 150.293 136.692C149.998 137.027 149.579 137.194 149.037 137.194C148.742 137.194 148.474 137.131 148.235 137.003C147.996 136.875 147.797 136.696 147.637 136.464C147.477 136.233 147.354 135.958 147.266 135.639C147.178 135.312 147.134 134.953 147.134 134.562C147.134 134.267 147.158 133.992 147.206 133.737C147.246 133.473 147.31 133.246 147.397 133.055C147.485 132.863 147.601 132.712 147.744 132.6C147.88 132.489 148.044 132.432 148.235 132.432C148.419 132.432 148.578 132.468 148.714 132.54C148.841 132.604 148.949 132.688 149.037 132.791C148.997 132.855 148.957 132.951 148.917 133.079C148.869 133.207 148.829 133.346 148.797 133.497C148.757 133.649 148.726 133.805 148.702 133.964C148.678 134.116 148.666 134.255 148.666 134.383C148.666 134.646 148.697 134.849 148.761 134.993C148.817 135.136 148.909 135.208 149.037 135.208C149.125 135.208 149.196 135.169 149.252 135.089C149.308 135.009 149.36 134.858 149.407 134.634L149.491 134.263C149.666 133.497 149.91 132.955 150.221 132.636C150.524 132.309 150.919 132.145 151.405 132.145ZM145.711 131.341C145.407 131.341 145.152 131.242 144.945 131.042C144.737 130.835 144.634 130.564 144.634 130.229C144.634 129.894 144.737 129.627 144.945 129.427C145.152 129.22 145.407 129.116 145.711 129.116C146.014 129.116 146.269 129.22 146.476 129.427C146.684 129.627 146.787 129.894 146.787 130.229C146.787 130.564 146.684 130.835 146.476 131.042C146.269 131.242 146.014 131.341 145.711 131.341ZM153.128 129.212C153.144 129.3 153.164 129.431 153.188 129.607C153.22 129.774 153.236 129.946 153.236 130.121C153.236 130.297 153.224 130.456 153.2 130.6C153.176 130.735 153.128 130.851 153.057 130.947C152.985 131.042 152.889 131.118 152.769 131.174C152.642 131.222 152.478 131.246 152.279 131.246H147.409C147.393 131.158 147.374 131.03 147.35 130.863C147.318 130.688 147.302 130.512 147.302 130.336C147.302 130.161 147.314 130.006 147.338 129.87C147.362 129.726 147.409 129.607 147.481 129.511C147.553 129.415 147.653 129.343 147.78 129.295C147.9 129.24 148.06 129.212 148.259 129.212H153.128ZM147.146 125.213C147.146 124.759 147.206 124.348 147.326 123.981C147.438 123.606 147.585 123.291 147.768 123.036C147.88 122.876 148.003 122.753 148.139 122.665C148.275 122.569 148.45 122.521 148.666 122.521H152.853C153.276 122.521 153.639 122.601 153.942 122.761C154.253 122.92 154.508 123.139 154.708 123.419C154.915 123.69 155.066 124.013 155.162 124.388C155.258 124.755 155.306 125.149 155.306 125.572C155.306 126.298 155.206 126.869 155.007 127.283C154.815 127.698 154.5 127.905 154.062 127.905C153.878 127.905 153.715 127.869 153.571 127.798C153.435 127.718 153.332 127.63 153.26 127.534C153.387 127.303 153.495 127.044 153.583 126.757C153.671 126.462 153.715 126.159 153.715 125.847C153.715 125.417 153.643 125.074 153.499 124.819C153.356 124.563 153.124 124.436 152.805 124.436H152.614C152.757 124.763 152.829 125.161 152.829 125.632C152.829 125.991 152.777 126.334 152.674 126.661C152.562 126.98 152.394 127.263 152.171 127.51C151.94 127.75 151.645 127.945 151.286 128.097C150.927 128.24 150.5 128.312 150.006 128.312C149.519 128.312 149.096 128.236 148.737 128.085C148.379 127.925 148.084 127.71 147.852 127.439C147.613 127.159 147.438 126.833 147.326 126.458C147.206 126.075 147.146 125.66 147.146 125.213ZM148.881 124.472C148.849 124.527 148.817 124.611 148.785 124.723C148.754 124.826 148.737 124.958 148.737 125.118C148.737 125.508 148.849 125.804 149.072 126.003C149.288 126.194 149.599 126.29 150.006 126.29C150.468 126.29 150.803 126.194 151.011 126.003C151.21 125.804 151.31 125.553 151.31 125.249C151.31 124.922 151.234 124.663 151.082 124.472H148.881ZM149.455 117.707C149.208 117.707 149.029 117.779 148.917 117.922C148.797 118.058 148.737 118.245 148.737 118.485C148.737 118.644 148.757 118.804 148.797 118.963C148.837 119.115 148.897 119.247 148.977 119.358H153.128C153.152 119.438 153.176 119.566 153.2 119.741C153.224 119.908 153.236 120.084 153.236 120.267C153.236 120.443 153.224 120.602 153.2 120.746C153.176 120.882 153.128 120.997 153.057 121.093C152.985 121.189 152.889 121.265 152.769 121.32C152.642 121.368 152.478 121.392 152.279 121.392H148.69C148.474 121.392 148.299 121.348 148.163 121.26C148.027 121.165 147.904 121.037 147.792 120.878C147.601 120.607 147.445 120.267 147.326 119.861C147.206 119.446 147.146 118.987 147.146 118.485C147.146 117.584 147.345 116.89 147.744 116.403C148.135 115.917 148.682 115.673 149.384 115.673H153.128C153.152 115.753 153.176 115.881 153.2 116.056C153.224 116.224 153.236 116.399 153.236 116.582C153.236 116.758 153.224 116.917 153.2 117.061C153.176 117.197 153.128 117.312 153.057 117.408C152.985 117.504 152.889 117.58 152.769 117.635C152.642 117.683 152.478 117.707 152.279 117.707H149.455ZM151.405 109.643C152.011 109.643 152.486 109.871 152.829 110.325C153.172 110.78 153.344 111.45 153.344 112.335C153.344 112.67 153.32 112.981 153.272 113.268C153.224 113.556 153.152 113.803 153.057 114.01C152.953 114.209 152.825 114.369 152.674 114.489C152.522 114.601 152.343 114.656 152.135 114.656C151.944 114.656 151.784 114.616 151.657 114.537C151.521 114.457 151.41 114.361 151.322 114.249C151.449 114.018 151.565 113.755 151.669 113.46C151.764 113.157 151.812 112.81 151.812 112.419C151.812 112.172 151.776 111.984 151.705 111.857C151.633 111.721 151.537 111.653 151.417 111.653C151.306 111.653 151.218 111.701 151.154 111.797C151.09 111.892 151.039 112.052 150.999 112.275L150.927 112.634C150.791 113.328 150.58 113.847 150.293 114.19C149.998 114.525 149.579 114.692 149.037 114.692C148.742 114.692 148.474 114.628 148.235 114.501C147.996 114.373 147.797 114.194 147.637 113.962C147.477 113.731 147.354 113.456 147.266 113.137C147.178 112.81 147.134 112.451 147.134 112.06C147.134 111.765 147.158 111.49 147.206 111.234C147.246 110.971 147.31 110.744 147.397 110.553C147.485 110.361 147.601 110.21 147.744 110.098C147.88 109.986 148.044 109.93 148.235 109.93C148.419 109.93 148.578 109.966 148.714 110.038C148.841 110.102 148.949 110.186 149.037 110.289C148.997 110.353 148.957 110.449 148.917 110.576C148.869 110.704 148.829 110.844 148.797 110.995C148.757 111.147 148.726 111.302 148.702 111.462C148.678 111.613 148.666 111.753 148.666 111.881C148.666 112.144 148.697 112.347 148.761 112.491C148.817 112.634 148.909 112.706 149.037 112.706C149.125 112.706 149.196 112.666 149.252 112.586C149.308 112.507 149.36 112.355 149.407 112.132L149.491 111.761C149.666 110.995 149.91 110.453 150.221 110.134C150.524 109.807 150.919 109.643 151.405 109.643Z" fill="#FFCDB0"/>
<path d="M281.294 339.541C281.167 339.579 280.966 339.617 280.689 339.654C280.424 339.693 280.147 339.711 279.858 339.711C279.58 339.711 279.328 339.693 279.102 339.654C278.888 339.617 278.705 339.541 278.554 339.428C278.403 339.315 278.283 339.163 278.195 338.975C278.119 338.773 278.082 338.515 278.082 338.2V334.006C278.082 333.49 277.95 333.131 277.685 332.929C277.433 332.716 277.119 332.609 276.741 332.609C276.489 332.609 276.25 332.64 276.023 332.703C275.796 332.766 275.614 332.841 275.475 332.929V339.541C275.349 339.579 275.148 339.617 274.871 339.654C274.606 339.693 274.329 339.711 274.039 339.711C273.762 339.711 273.51 339.693 273.284 339.654C273.069 339.617 272.887 339.541 272.736 339.428C272.585 339.315 272.465 339.163 272.377 338.975C272.301 338.773 272.264 338.515 272.264 338.2V327.243C272.402 327.218 272.603 327.187 272.868 327.149C273.145 327.099 273.422 327.074 273.699 327.074C273.976 327.074 274.222 327.092 274.436 327.13C274.662 327.168 274.852 327.243 275.003 327.357C275.154 327.47 275.267 327.628 275.343 327.829C275.431 328.018 275.475 328.27 275.475 328.585V330.436C275.639 330.373 275.884 330.304 276.212 330.229C276.552 330.14 276.923 330.096 277.326 330.096C278.573 330.096 279.543 330.411 280.235 331.04C280.941 331.658 281.294 332.583 281.294 333.818V339.541ZM292.57 334.97C292.57 335.751 292.451 336.45 292.211 337.067C291.972 337.671 291.632 338.181 291.191 338.597C290.763 339.013 290.246 339.327 289.642 339.541C289.037 339.756 288.364 339.863 287.621 339.863C286.878 339.863 286.204 339.749 285.599 339.522C284.995 339.296 284.472 338.975 284.032 338.559C283.603 338.131 283.27 337.615 283.031 337.01C282.791 336.406 282.672 335.725 282.672 334.97C282.672 334.227 282.791 333.553 283.031 332.949C283.27 332.344 283.603 331.834 284.032 331.418C284.472 330.99 284.995 330.663 285.599 330.436C286.204 330.209 286.878 330.096 287.621 330.096C288.364 330.096 289.037 330.216 289.642 330.455C290.246 330.681 290.763 331.009 291.191 331.437C291.632 331.853 291.972 332.363 292.211 332.968C292.451 333.572 292.57 334.239 292.57 334.97ZM285.958 334.97C285.958 335.738 286.103 336.33 286.393 336.745C286.695 337.149 287.111 337.35 287.64 337.35C288.169 337.35 288.572 337.142 288.849 336.727C289.138 336.311 289.283 335.725 289.283 334.97C289.283 334.214 289.138 333.635 288.849 333.232C288.559 332.816 288.15 332.609 287.621 332.609C287.092 332.609 286.683 332.816 286.393 333.232C286.103 333.635 285.958 334.214 285.958 334.97ZM303.431 334.97C303.431 335.751 303.312 336.45 303.072 337.067C302.833 337.671 302.493 338.181 302.053 338.597C301.624 339.013 301.108 339.327 300.503 339.541C299.899 339.756 299.225 339.863 298.482 339.863C297.739 339.863 297.065 339.749 296.46 339.522C295.856 339.296 295.333 338.975 294.893 338.559C294.464 338.131 294.131 337.615 293.892 337.01C293.652 336.406 293.533 335.725 293.533 334.97C293.533 334.227 293.652 333.553 293.892 332.949C294.131 332.344 294.464 331.834 294.893 331.418C295.333 330.99 295.856 330.663 296.46 330.436C297.065 330.209 297.739 330.096 298.482 330.096C299.225 330.096 299.899 330.216 300.503 330.455C301.108 330.681 301.624 331.009 302.053 331.437C302.493 331.853 302.833 332.363 303.072 332.968C303.312 333.572 303.431 334.239 303.431 334.97ZM296.819 334.97C296.819 335.738 296.965 336.33 297.254 336.745C297.556 337.149 297.972 337.35 298.501 337.35C299.03 337.35 299.432 337.142 299.71 336.727C299.999 336.311 300.144 335.725 300.144 334.97C300.144 334.214 299.999 333.635 299.71 333.232C299.42 332.816 299.011 332.609 298.482 332.609C297.953 332.609 297.544 332.816 297.254 333.232C296.965 333.635 296.819 334.214 296.819 334.97ZM309.002 330.096C309.758 330.096 310.457 330.197 311.1 330.398C311.755 330.587 312.315 330.883 312.781 331.286C313.247 331.689 313.612 332.199 313.877 332.816C314.141 333.421 314.273 334.145 314.273 334.988C314.273 335.795 314.16 336.5 313.933 337.104C313.706 337.709 313.386 338.219 312.97 338.634C312.554 339.038 312.051 339.34 311.459 339.541C310.88 339.743 310.231 339.843 309.513 339.843C308.971 339.843 308.468 339.762 308.002 339.598V342.734C307.876 342.772 307.674 342.809 307.397 342.847C307.12 342.898 306.837 342.923 306.547 342.923C306.27 342.923 306.018 342.904 305.791 342.866C305.577 342.829 305.395 342.753 305.243 342.639C305.092 342.526 304.979 342.369 304.904 342.167C304.828 341.978 304.79 341.727 304.79 341.411V332.344C304.79 332.004 304.859 331.727 304.998 331.513C305.149 331.299 305.35 331.104 305.602 330.927C305.993 330.675 306.478 330.474 307.057 330.322C307.636 330.172 308.285 330.096 309.002 330.096ZM309.04 337.312C310.338 337.312 310.986 336.538 310.986 334.988C310.986 334.183 310.823 333.584 310.495 333.194C310.18 332.804 309.72 332.609 309.116 332.609C308.877 332.609 308.663 332.64 308.474 332.703C308.285 332.754 308.121 332.816 307.983 332.892V337.048C308.134 337.123 308.298 337.186 308.474 337.237C308.65 337.287 308.839 337.312 309.04 337.312ZM315.557 327.829C315.557 327.351 315.714 326.947 316.03 326.62C316.357 326.293 316.785 326.129 317.314 326.129C317.843 326.129 318.264 326.293 318.58 326.62C318.907 326.947 319.071 327.351 319.071 327.829C319.071 328.308 318.907 328.711 318.58 329.038C318.264 329.365 317.843 329.529 317.314 329.529C316.785 329.529 316.357 329.365 316.03 329.038C315.714 328.711 315.557 328.308 315.557 327.829ZM318.92 339.541C318.781 339.566 318.574 339.598 318.296 339.636C318.032 339.686 317.761 339.711 317.484 339.711C317.207 339.711 316.955 339.693 316.728 339.654C316.515 339.617 316.332 339.541 316.181 339.428C316.03 339.315 315.91 339.163 315.822 338.975C315.746 338.773 315.708 338.515 315.708 338.2V330.511C315.847 330.486 316.048 330.455 316.313 330.417C316.59 330.367 316.867 330.342 317.144 330.342C317.421 330.342 317.667 330.361 317.881 330.398C318.108 330.436 318.296 330.511 318.448 330.625C318.599 330.738 318.712 330.896 318.787 331.097C318.876 331.286 318.92 331.538 318.92 331.853V339.541ZM325.612 339.863C324.869 339.863 324.176 339.762 323.533 339.561C322.904 339.346 322.35 339.031 321.871 338.616C321.405 338.2 321.034 337.677 320.757 337.048C320.492 336.418 320.36 335.681 320.36 334.838C320.36 334.006 320.492 333.295 320.757 332.703C321.034 332.099 321.392 331.607 321.833 331.229C322.274 330.839 322.778 330.556 323.344 330.379C323.911 330.19 324.491 330.096 325.082 330.096C325.75 330.096 326.354 330.197 326.896 330.398C327.45 330.6 327.922 330.877 328.313 331.229C328.716 331.582 329.024 332.004 329.239 332.495C329.465 332.986 329.578 333.522 329.578 334.101C329.578 334.529 329.459 334.856 329.219 335.083C328.98 335.31 328.646 335.454 328.218 335.518L323.552 336.217C323.691 336.632 323.974 336.947 324.402 337.161C324.831 337.363 325.322 337.463 325.876 337.463C326.392 337.463 326.877 337.4 327.33 337.275C327.796 337.136 328.174 336.979 328.464 336.802C328.665 336.928 328.835 337.104 328.974 337.331C329.112 337.558 329.182 337.797 329.182 338.049C329.182 338.616 328.917 339.038 328.388 339.315C327.985 339.529 327.532 339.674 327.028 339.749C326.524 339.825 326.052 339.863 325.612 339.863ZM325.082 332.438C324.78 332.438 324.516 332.489 324.289 332.59C324.075 332.69 323.898 332.822 323.76 332.986C323.621 333.138 323.514 333.313 323.439 333.515C323.376 333.704 323.338 333.899 323.325 334.101L326.556 333.572C326.518 333.32 326.38 333.068 326.14 332.816C325.901 332.564 325.549 332.438 325.082 332.438Z" fill="#FFCDB0"/>
<mask id="mask26_175_215" style="mask-type:luminance" maskUnits="userSpaceOnUse" x="240" y="314" width="30" height="38">
<path d="M269.759 314.058H240.479V351.367H269.759V314.058Z" fill="white"/>
</mask>
<g mask="url(#mask26_175_215)">
<path d="M252.043 323.28C252.304 323.082 252.706 322.863 253.251 322.624C253.818 322.345 254.386 322.206 254.954 322.206C255.948 322.206 256.776 322.465 257.439 322.982C258.101 323.46 258.503 324.176 258.645 325.131C258.905 326.762 259.142 328.295 259.355 329.728C259.592 331.12 259.817 332.474 260.03 333.787C260.242 335.06 260.443 336.334 260.632 337.607C260.845 338.881 261.046 340.214 261.236 341.607H261.414C261.626 339.179 261.816 336.871 261.981 334.682C262.147 332.454 262.301 330.285 262.443 328.175C262.584 326.027 262.727 323.917 262.869 321.848C263.01 319.739 263.153 317.609 263.294 315.461C264.17 314.625 265.105 314.207 266.098 314.207C266.974 314.207 267.731 314.526 268.37 315.162C269.009 315.799 269.328 316.874 269.328 318.386C269.328 319.261 269.269 320.515 269.15 322.146C269.056 323.738 268.914 325.529 268.725 327.519C268.559 329.509 268.358 331.598 268.121 333.787C267.885 335.975 267.636 338.065 267.376 340.055C267.116 342.045 266.844 343.855 266.56 345.487C266.299 347.079 266.051 348.312 265.814 349.188C265.459 349.745 264.88 350.203 264.075 350.561C263.271 350.919 262.443 351.098 261.591 351.098C260.479 351.098 259.532 350.859 258.752 350.382C257.994 349.865 257.533 349.149 257.367 348.233C257.06 346.641 256.729 344.751 256.374 342.562C256.019 340.373 255.64 337.966 255.238 335.339C254.906 337.926 254.564 340.452 254.208 342.92C253.854 345.388 253.534 347.477 253.251 349.188C252.895 349.745 252.363 350.203 251.653 350.561C250.943 350.919 250.163 351.098 249.311 351.098C248.246 351.098 247.276 350.859 246.401 350.382C245.549 349.865 244.992 349.149 244.732 348.233C244.519 347.517 244.283 346.462 244.023 345.069C243.786 343.637 243.538 342.025 243.277 340.234C243.017 338.403 242.745 336.433 242.461 334.324C242.201 332.215 241.952 330.106 241.715 327.997C241.502 325.887 241.301 323.838 241.112 321.848C240.923 319.819 240.781 317.968 240.687 316.296C241.017 315.779 241.479 315.301 242.071 314.864C242.662 314.426 243.301 314.207 243.987 314.207C244.886 314.207 245.62 314.545 246.188 315.222C246.779 315.858 247.146 316.953 247.288 318.505C247.666 322.564 247.974 325.947 248.211 328.653C248.471 331.359 248.672 333.588 248.814 335.339C248.979 337.05 249.098 338.383 249.169 339.339C249.24 340.293 249.311 341.049 249.382 341.607H249.559C249.772 340.015 249.973 338.542 250.163 337.189C250.352 335.836 250.541 334.483 250.73 333.13C250.943 331.737 251.156 330.265 251.369 328.713C251.582 327.121 251.807 325.31 252.043 323.28Z" fill="#FFCDB0"/>
</g>
<mask id="mask27_175_215" style="mask-type:luminance" maskUnits="userSpaceOnUse" x="268" y="337" width="21" height="14">
<path d="M288.65 337.671H268.343V350.895H288.65V337.671Z" fill="white"/>
</mask>
<g mask="url(#mask27_175_215)">
<path d="M273.792 350.725C273.066 350.725 272.388 350.624 271.761 350.422C271.145 350.209 270.604 349.893 270.136 349.478C269.681 349.062 269.318 348.54 269.047 347.91C268.788 347.28 268.659 346.543 268.659 345.7C268.659 344.868 268.788 344.157 269.047 343.565C269.318 342.961 269.669 342.47 270.1 342.092C270.53 341.701 271.023 341.418 271.577 341.241C272.13 341.052 272.696 340.958 273.275 340.958C273.927 340.958 274.518 341.059 275.047 341.261C275.589 341.462 276.05 341.739 276.432 342.092C276.825 342.444 277.127 342.866 277.336 343.357C277.558 343.848 277.669 344.384 277.669 344.963C277.669 345.391 277.552 345.718 277.318 345.945C277.084 346.172 276.758 346.317 276.34 346.38L271.779 347.079C271.915 347.495 272.192 347.809 272.61 348.023C273.028 348.225 273.509 348.325 274.05 348.325C274.554 348.325 275.029 348.263 275.472 348.136C275.927 347.998 276.296 347.841 276.579 347.664C276.776 347.79 276.943 347.966 277.078 348.193C277.213 348.42 277.281 348.659 277.281 348.911C277.281 349.478 277.023 349.9 276.505 350.177C276.112 350.391 275.668 350.536 275.176 350.611C274.684 350.687 274.222 350.725 273.792 350.725ZM273.275 343.3C272.979 343.3 272.721 343.351 272.5 343.452C272.29 343.552 272.118 343.685 271.982 343.848C271.847 344 271.742 344.176 271.669 344.377C271.607 344.566 271.57 344.761 271.558 344.963L274.715 344.434C274.678 344.182 274.543 343.93 274.309 343.679C274.075 343.427 273.73 343.3 273.275 343.3ZM279.013 338.125C279.136 338.087 279.333 338.049 279.604 338.011C279.875 337.961 280.151 337.936 280.435 337.936C280.705 337.936 280.945 337.954 281.154 337.993C281.376 338.03 281.561 338.106 281.708 338.219C281.856 338.332 281.967 338.49 282.041 338.691C282.115 338.88 282.152 339.132 282.152 339.447V341.298C282.459 341.172 282.749 341.084 283.019 341.034C283.302 340.983 283.61 340.958 283.942 340.958C284.533 340.958 285.093 341.065 285.622 341.279C286.151 341.493 286.619 341.808 287.025 342.224C287.431 342.627 287.752 343.131 287.985 343.735C288.219 344.34 288.336 345.038 288.336 345.832C288.336 346.65 288.213 347.368 287.967 347.986C287.733 348.59 287.401 349.094 286.97 349.497C286.539 349.9 286.01 350.209 285.382 350.422C284.767 350.624 284.084 350.725 283.333 350.725C282.521 350.725 281.832 350.624 281.265 350.422C280.699 350.234 280.219 349.994 279.825 349.704C279.284 349.314 279.013 348.811 279.013 348.193V338.125ZM283.333 348.193C283.899 348.193 284.336 347.998 284.644 347.608C284.964 347.205 285.124 346.613 285.124 345.832C285.124 345.038 284.964 344.447 284.644 344.056C284.324 343.666 283.893 343.47 283.352 343.47C283.105 343.47 282.89 343.495 282.706 343.546C282.533 343.597 282.343 343.672 282.133 343.773V347.891C282.268 347.979 282.429 348.055 282.613 348.118C282.81 348.168 283.05 348.193 283.333 348.193Z" fill="#FFCDB0"/>
</g>
<path d="M298.095 341.449C298.324 340.394 297.15 339.324 297.15 339.324L299.984 339.561C299.984 339.561 298.95 340.472 299.276 341.449C299.512 342.158 300.22 342.416 300.22 343.338C300.22 344.283 298.568 344.283 298.331 344.218C298.095 344.152 297.387 344.047 297.387 343.102C297.387 342.122 297.888 342.407 298.095 341.449Z" fill="#FFCDB0"/>
<path d="M299.276 341.449C299.512 342.158 300.22 342.416 300.22 343.338C300.22 344.283 298.568 344.283 298.331 344.218C298.095 344.152 297.387 344.047 297.387 343.102C297.387 342.122 297.888 342.407 298.095 341.449C298.324 340.394 297.15 339.324 297.15 339.324L299.984 339.561C299.984 339.561 298.95 340.472 299.276 341.449ZM299.276 341.449C299.171 341.134 299.381 341.765 299.276 341.449Z" stroke="#FFCDB0"/>
<path d="M486.061 228.708C485.429 228.493 484.855 228.278 484.338 228.062C483.821 227.832 483.376 227.56 483.003 227.244C482.63 226.928 482.335 226.555 482.12 226.124C481.919 225.679 481.818 225.141 481.818 224.509C481.818 223.288 482.285 222.312 483.218 221.58C484.166 220.848 485.487 220.482 487.181 220.482C487.798 220.482 488.372 220.525 488.904 220.611C489.435 220.697 489.887 220.833 490.26 221.02C490.648 221.192 490.949 221.422 491.165 221.709C491.38 221.982 491.488 222.305 491.488 222.678C491.488 223.052 491.402 223.375 491.229 223.647C491.057 223.906 490.849 224.128 490.605 224.315C490.289 224.114 489.865 223.942 489.334 223.798C488.803 223.64 488.222 223.561 487.59 223.561C486.944 223.561 486.47 223.655 486.168 223.841C485.867 224.013 485.716 224.236 485.716 224.509C485.716 224.724 485.81 224.904 485.996 225.047C486.183 225.176 486.463 225.298 486.836 225.413L487.977 225.779C489.327 226.21 490.361 226.763 491.079 227.438C491.811 228.098 492.177 229.003 492.177 230.151C492.177 231.371 491.696 232.362 490.734 233.123C489.772 233.87 488.358 234.243 486.492 234.243C485.831 234.243 485.214 234.185 484.639 234.071C484.08 233.97 483.584 233.819 483.154 233.618C482.737 233.403 482.407 233.145 482.163 232.843C481.933 232.527 481.818 232.168 481.818 231.766C481.818 231.35 481.94 230.998 482.184 230.711C482.429 230.41 482.694 230.18 482.981 230.022C483.383 230.338 483.871 230.611 484.446 230.84C485.034 231.07 485.673 231.185 486.362 231.185C487.066 231.185 487.561 231.077 487.848 230.862C488.135 230.646 488.279 230.395 488.279 230.108C488.279 229.821 488.164 229.606 487.934 229.462C487.705 229.304 487.382 229.153 486.965 229.01L486.061 228.708ZM499.278 234.243C498.431 234.243 497.641 234.128 496.909 233.898C496.191 233.654 495.559 233.295 495.014 232.821C494.482 232.348 494.059 231.752 493.743 231.034C493.442 230.316 493.291 229.476 493.291 228.514C493.291 227.567 493.442 226.756 493.743 226.081C494.059 225.392 494.468 224.832 494.971 224.401C495.473 223.956 496.047 223.633 496.693 223.432C497.339 223.217 498 223.109 498.675 223.109C499.435 223.109 500.125 223.224 500.742 223.454C501.374 223.683 501.912 223.999 502.357 224.401C502.817 224.803 503.168 225.284 503.412 225.844C503.671 226.404 503.8 227.014 503.8 227.675C503.8 228.163 503.664 228.536 503.391 228.794C503.118 229.053 502.738 229.218 502.249 229.29L496.93 230.086C497.088 230.56 497.411 230.919 497.899 231.163C498.387 231.393 498.947 231.508 499.579 231.508C500.168 231.508 500.72 231.436 501.237 231.292C501.768 231.135 502.199 230.955 502.529 230.754C502.759 230.898 502.953 231.099 503.111 231.357C503.269 231.616 503.348 231.888 503.348 232.175C503.348 232.821 503.046 233.302 502.443 233.618C501.984 233.862 501.467 234.027 500.893 234.114C500.318 234.2 499.78 234.243 499.278 234.243ZM498.675 225.779C498.33 225.779 498.029 225.837 497.77 225.952C497.526 226.067 497.325 226.217 497.167 226.404C497.009 226.576 496.887 226.777 496.801 227.007C496.729 227.222 496.686 227.445 496.672 227.675L500.354 227.072C500.311 226.784 500.153 226.497 499.881 226.21C499.608 225.923 499.206 225.779 498.675 225.779ZM508.986 233.877C508.843 233.92 508.613 233.963 508.297 234.006C507.996 234.049 507.68 234.071 507.35 234.071C507.034 234.071 506.747 234.049 506.488 234.006C506.244 233.963 506.036 233.877 505.864 233.747C505.692 233.618 505.555 233.446 505.455 233.231C505.369 233.001 505.325 232.707 505.325 232.348V225.887C505.325 225.557 505.383 225.277 505.498 225.047C505.627 224.803 505.806 224.588 506.036 224.401C506.266 224.214 506.546 224.049 506.876 223.906C507.221 223.748 507.587 223.612 507.974 223.497C508.362 223.382 508.764 223.296 509.18 223.238C509.597 223.166 510.013 223.131 510.429 223.131C511.118 223.131 511.664 223.267 512.066 223.54C512.468 223.798 512.669 224.229 512.669 224.832C512.669 225.033 512.64 225.234 512.583 225.435C512.525 225.621 512.454 225.794 512.368 225.952C512.066 225.952 511.757 225.966 511.442 225.995C511.126 226.023 510.817 226.067 510.515 226.124C510.214 226.181 509.927 226.246 509.654 226.318C509.396 226.375 509.173 226.447 508.986 226.533V233.877ZM521.278 233.618C521.077 233.776 520.783 233.905 520.395 234.006C520.008 234.106 519.57 234.157 519.082 234.157C518.522 234.157 518.034 234.085 517.617 233.941C517.215 233.798 516.935 233.568 516.777 233.252C516.648 233.008 516.49 232.671 516.304 232.24C516.131 231.795 515.945 231.307 515.744 230.776C515.543 230.23 515.335 229.649 515.119 229.031C514.904 228.414 514.696 227.804 514.495 227.201C514.308 226.598 514.136 226.016 513.978 225.456C513.82 224.896 513.691 224.401 513.59 223.97C513.791 223.769 514.057 223.597 514.387 223.454C514.732 223.296 515.105 223.217 515.507 223.217C516.009 223.217 516.419 223.324 516.734 223.54C517.065 223.741 517.309 224.128 517.467 224.703L518.306 227.998C518.464 228.644 518.615 229.232 518.759 229.763C518.902 230.28 519.01 230.682 519.082 230.969H519.189C519.462 229.907 519.749 228.73 520.051 227.438C520.352 226.146 520.625 224.875 520.869 223.626C521.113 223.497 521.386 223.396 521.688 223.324C522.003 223.253 522.305 223.217 522.592 223.217C523.095 223.217 523.518 223.324 523.863 223.54C524.207 223.755 524.379 224.128 524.379 224.66C524.379 224.889 524.322 225.227 524.207 225.672C524.107 226.102 523.97 226.598 523.798 227.158C523.64 227.703 523.446 228.285 523.217 228.902C523.001 229.519 522.779 230.122 522.549 230.711C522.319 231.3 522.09 231.852 521.86 232.369C521.644 232.872 521.451 233.288 521.278 233.618ZM531.207 234.243C530.36 234.243 529.57 234.128 528.838 233.898C528.12 233.654 527.488 233.295 526.943 232.821C526.412 232.348 525.988 231.752 525.672 231.034C525.371 230.316 525.22 229.476 525.22 228.514C525.22 227.567 525.371 226.756 525.672 226.081C525.988 225.392 526.397 224.832 526.9 224.401C527.402 223.956 527.977 223.633 528.623 223.432C529.269 223.217 529.929 223.109 530.604 223.109C531.365 223.109 532.054 223.224 532.671 223.454C533.303 223.683 533.841 223.999 534.286 224.401C534.746 224.803 535.098 225.284 535.342 225.844C535.6 226.404 535.729 227.014 535.729 227.675C535.729 228.163 535.593 228.536 535.32 228.794C535.047 229.053 534.667 229.218 534.179 229.29L528.859 230.086C529.017 230.56 529.34 230.919 529.829 231.163C530.317 231.393 530.877 231.508 531.508 231.508C532.097 231.508 532.65 231.436 533.167 231.292C533.698 231.135 534.128 230.955 534.459 230.754C534.688 230.898 534.882 231.099 535.04 231.357C535.198 231.616 535.277 231.888 535.277 232.175C535.277 232.821 534.976 233.302 534.373 233.618C533.913 233.862 533.396 234.027 532.822 234.114C532.248 234.2 531.709 234.243 531.207 234.243ZM530.604 225.779C530.259 225.779 529.958 225.837 529.699 225.952C529.455 226.067 529.254 226.217 529.096 226.404C528.938 226.576 528.816 226.777 528.73 227.007C528.658 227.222 528.615 227.445 528.601 227.675L532.284 227.072C532.241 226.784 532.083 226.497 531.81 226.21C531.537 225.923 531.135 225.779 530.604 225.779ZM540.916 233.877C540.772 233.92 540.542 233.963 540.227 234.006C539.925 234.049 539.609 234.071 539.279 234.071C538.963 234.071 538.676 234.049 538.418 234.006C538.173 233.963 537.965 233.877 537.793 233.747C537.621 233.618 537.484 233.446 537.384 233.231C537.298 233.001 537.255 232.707 537.255 232.348V225.887C537.255 225.557 537.312 225.277 537.427 225.047C537.556 224.803 537.736 224.588 537.965 224.401C538.195 224.214 538.475 224.049 538.805 223.906C539.15 223.748 539.516 223.612 539.904 223.497C540.291 223.382 540.693 223.296 541.109 223.238C541.526 223.166 541.942 223.131 542.359 223.131C543.048 223.131 543.593 223.267 543.995 223.54C544.397 223.798 544.598 224.229 544.598 224.832C544.598 225.033 544.569 225.234 544.512 225.435C544.455 225.621 544.383 225.794 544.297 225.952C543.995 225.952 543.687 225.966 543.371 225.995C543.055 226.023 542.746 226.067 542.445 226.124C542.143 226.181 541.856 226.246 541.583 226.318C541.325 226.375 541.102 226.447 540.916 226.533V233.877ZM554.701 230.776C554.701 231.867 554.292 232.721 553.474 233.338C552.655 233.956 551.449 234.264 549.856 234.264C549.253 234.264 548.693 234.221 548.176 234.135C547.659 234.049 547.214 233.92 546.841 233.747C546.482 233.561 546.195 233.331 545.979 233.058C545.778 232.786 545.678 232.463 545.678 232.089C545.678 231.745 545.75 231.458 545.893 231.228C546.037 230.984 546.209 230.783 546.41 230.625C546.827 230.855 547.3 231.063 547.832 231.249C548.377 231.422 549.002 231.508 549.705 231.508C550.15 231.508 550.488 231.443 550.717 231.314C550.961 231.185 551.083 231.013 551.083 230.797C551.083 230.596 550.997 230.438 550.825 230.323C550.653 230.209 550.366 230.115 549.964 230.043L549.317 229.914C548.068 229.67 547.135 229.29 546.518 228.773C545.915 228.242 545.613 227.488 545.613 226.512C545.613 225.98 545.728 225.499 545.958 225.069C546.188 224.638 546.511 224.279 546.927 223.992C547.343 223.705 547.839 223.482 548.413 223.324C549.002 223.166 549.648 223.087 550.351 223.087C550.882 223.087 551.378 223.131 551.837 223.217C552.311 223.288 552.72 223.403 553.065 223.561C553.409 223.719 553.682 223.927 553.883 224.186C554.084 224.43 554.184 224.724 554.184 225.069C554.184 225.399 554.12 225.686 553.991 225.93C553.876 226.16 553.725 226.354 553.538 226.512C553.424 226.44 553.251 226.368 553.022 226.296C552.792 226.21 552.541 226.138 552.268 226.081C551.995 226.009 551.715 225.952 551.428 225.909C551.155 225.866 550.904 225.844 550.674 225.844C550.2 225.844 549.834 225.901 549.576 226.016C549.317 226.117 549.188 226.282 549.188 226.512C549.188 226.67 549.26 226.799 549.404 226.899C549.547 227 549.82 227.093 550.222 227.179L550.89 227.33C552.268 227.646 553.244 228.084 553.818 228.644C554.407 229.189 554.701 229.9 554.701 230.776Z" fill="#FFCDB0"/>
</g>
</g>
<defs>
<clipPath id="clip0_175_215">
<rect width="600" height="431.904" fill="white"/>
</clipPath>
</defs>
</svg>
