<svg width="16" height="16" viewBox="0 0 16 16" fill="none" xmlns="http://www.w3.org/2000/svg">
<mask id="mask0_252_19" style="mask-type:luminance" maskUnits="userSpaceOnUse" x="0" y="0" width="16" height="16">
<path d="M8 16C12.4183 16 16 12.4183 16 8C16 3.58172 12.4183 0 8 0C3.58172 0 0 3.58172 0 8C0 12.4183 3.58172 16 8 16Z" fill="white"/>
</mask>
<g mask="url(#mask0_252_19)">
<path d="M0 0H3.09375L4 1L4.875 0H16V1.78125L15 2.65625L16 3.5625V5.34375L15 6.21875L16 7.125V8.90625L15 9.78125L16 10.6562V12.4375L15 13.3438L16 14.2188V16H0V14.2188L1 13.3438L0 12.4375V10.6875L1 9.78125L0 8.90625V5.34375L1 4.4375L0 3.5625V0Z" fill="#0052B4"/>
<path d="M3.09375 0V3.5625H0V5.34375H3.09375V8.90625H0V10.6875H16V8.90625H4.875V5.34375H8V3.5625H4.875V0H3.09375ZM8 1.78125V3.5625H16V1.78125H8ZM8 5.34375V7.125H16V5.34375H8ZM0 12.4375V14.2188H16V12.4375H0Z" fill="#EEEEEE"/>
</g>
</svg>
