<svg width="153" height="140" viewBox="0 0 153 140" fill="none" xmlns="http://www.w3.org/2000/svg">
<circle cx="11.5" cy="11.5" r="1.5" fill="#F56522"/>
<circle cx="24.5" cy="11.5" r="1.5" fill="#F56522"/>
<circle cx="37.5" cy="11.5" r="1.5" fill="#F56522"/>
<circle cx="50.5" cy="11.5" r="1.5" fill="#F56522"/>
<circle cx="63.5" cy="11.5" r="1.5" fill="#F56522"/>
<circle cx="76.5" cy="11.5" r="1.5" fill="#F56522"/>
<circle cx="89.5" cy="11.5" r="1.5" fill="#F56522"/>
<circle cx="102.5" cy="11.5" r="1.5" fill="#F56522"/>
<circle cx="115.5" cy="11.5" r="1.5" fill="#F56522"/>
<circle cx="128.5" cy="11.5" r="1.5" fill="#F56522"/>
<circle cx="141.5" cy="11.5" r="1.5" fill="#F56522"/>
<circle cx="11.5" cy="24.5" r="1.5" fill="#F56522"/>
<circle cx="24.5" cy="24.5" r="1.5" fill="#F56522"/>
<circle cx="37.5" cy="24.5" r="1.5" fill="#F56522"/>
<circle cx="50.5" cy="24.5" r="1.5" fill="#F56522"/>
<circle cx="63.5" cy="24.5" r="1.5" fill="#F56522"/>
<circle cx="76.5" cy="24.5" r="1.5" fill="#F56522"/>
<circle cx="89.5" cy="24.5" r="1.5" fill="#F56522"/>
<circle cx="102.5" cy="24.5" r="1.5" fill="#F56522"/>
<circle cx="115.5" cy="24.5" r="1.5" fill="#F56522"/>
<circle cx="128.5" cy="24.5" r="1.5" fill="#F56522"/>
<circle cx="141.5" cy="24.5" r="1.5" fill="#F56522"/>
<circle cx="11.5" cy="37.5" r="1.5" fill="#F56522"/>
<circle cx="24.5" cy="37.5" r="1.5" fill="#F56522"/>
<circle cx="37.5" cy="37.5" r="1.5" fill="#F56522"/>
<circle cx="50.5" cy="37.5" r="1.5" fill="#F56522"/>
<circle cx="63.5" cy="37.5" r="1.5" fill="#F56522"/>
<circle cx="76.5" cy="37.5" r="1.5" fill="#F56522"/>
<circle cx="89.5" cy="37.5" r="1.5" fill="#F56522"/>
<circle cx="102.5" cy="37.5" r="1.5" fill="#F56522"/>
<circle cx="115.5" cy="37.5" r="1.5" fill="#F56522"/>
<circle cx="128.5" cy="37.5" r="1.5" fill="#F56522"/>
<circle cx="141.5" cy="37.5" r="1.5" fill="#F56522"/>
<circle cx="11.5" cy="50.5" r="1.5" fill="#F56522"/>
<circle cx="24.5" cy="50.5" r="1.5" fill="#F56522"/>
<circle cx="37.5" cy="50.5" r="1.5" fill="#F56522"/>
<circle cx="50.5" cy="50.5" r="1.5" fill="#F56522"/>
<circle cx="63.5" cy="50.5" r="1.5" fill="#F56522"/>
<circle cx="76.5" cy="50.5" r="1.5" fill="#F56522"/>
<circle cx="89.5" cy="50.5" r="1.5" fill="#F56522"/>
<circle cx="102.5" cy="50.5" r="1.5" fill="#F56522"/>
<circle cx="115.5" cy="50.5" r="1.5" fill="#F56522"/>
<circle cx="128.5" cy="50.5" r="1.5" fill="#F56522"/>
<circle cx="141.5" cy="50.5" r="1.5" fill="#F56522"/>
<circle cx="11.5" cy="63.5" r="1.5" fill="#F56522"/>
<circle cx="24.5" cy="63.5" r="1.5" fill="#F56522"/>
<circle cx="37.5" cy="63.5" r="1.5" fill="#F56522"/>
<circle cx="50.5" cy="63.5" r="1.5" fill="#F56522"/>
<circle cx="63.5" cy="63.5" r="1.5" fill="#F56522"/>
<circle cx="76.5" cy="63.5" r="1.5" fill="#F56522"/>
<circle cx="89.5" cy="63.5" r="1.5" fill="#F56522"/>
<circle cx="102.5" cy="63.5" r="1.5" fill="#F56522"/>
<circle cx="115.5" cy="63.5" r="1.5" fill="#F56522"/>
<circle cx="128.5" cy="63.5" r="1.5" fill="#F56522"/>
<circle cx="141.5" cy="63.5" r="1.5" fill="#F56522"/>
<circle cx="11.5" cy="76.5" r="1.5" fill="#F56522"/>
<circle cx="24.5" cy="76.5" r="1.5" fill="#F56522"/>
<circle cx="37.5" cy="76.5" r="1.5" fill="#F56522"/>
<circle cx="50.5" cy="76.5" r="1.5" fill="#F56522"/>
<circle cx="63.5" cy="76.5" r="1.5" fill="#F56522"/>
<circle cx="76.5" cy="76.5" r="1.5" fill="#F56522"/>
<circle cx="89.5" cy="76.5" r="1.5" fill="#F56522"/>
<circle cx="102.5" cy="76.5" r="1.5" fill="#F56522"/>
<circle cx="115.5" cy="76.5" r="1.5" fill="#F56522"/>
<circle cx="128.5" cy="76.5" r="1.5" fill="#F56522"/>
<circle cx="141.5" cy="76.5" r="1.5" fill="#F56522"/>
<circle cx="11.5" cy="89.5" r="1.5" fill="#F56522"/>
<circle cx="24.5" cy="89.5" r="1.5" fill="#F56522"/>
<circle cx="37.5" cy="89.5" r="1.5" fill="#F56522"/>
<circle cx="50.5" cy="89.5" r="1.5" fill="#F56522"/>
<circle cx="63.5" cy="89.5" r="1.5" fill="#F56522"/>
<circle cx="76.5" cy="89.5" r="1.5" fill="#F56522"/>
<circle cx="89.5" cy="89.5" r="1.5" fill="#F56522"/>
<circle cx="102.5" cy="89.5" r="1.5" fill="#F56522"/>
<circle cx="115.5" cy="89.5" r="1.5" fill="#F56522"/>
<circle cx="128.5" cy="89.5" r="1.5" fill="#F56522"/>
<circle cx="141.5" cy="89.5" r="1.5" fill="#F56522"/>
<circle cx="11.5" cy="102.5" r="1.5" fill="#F56522"/>
<circle cx="24.5" cy="102.5" r="1.5" fill="#F56522"/>
<circle cx="37.5" cy="102.5" r="1.5" fill="#F56522"/>
<circle cx="50.5" cy="102.5" r="1.5" fill="#F56522"/>
<circle cx="63.5" cy="102.5" r="1.5" fill="#F56522"/>
<circle cx="76.5" cy="102.5" r="1.5" fill="#F56522"/>
<circle cx="89.5" cy="102.5" r="1.5" fill="#F56522"/>
<circle cx="102.5" cy="102.5" r="1.5" fill="#F56522"/>
<circle cx="115.5" cy="102.5" r="1.5" fill="#F56522"/>
<circle cx="128.5" cy="102.5" r="1.5" fill="#F56522"/>
<circle cx="141.5" cy="102.5" r="1.5" fill="#F56522"/>
<circle cx="11.5" cy="115.5" r="1.5" fill="#F56522"/>
<circle cx="24.5" cy="115.5" r="1.5" fill="#F56522"/>
<circle cx="37.5" cy="115.5" r="1.5" fill="#F56522"/>
<circle cx="50.5" cy="115.5" r="1.5" fill="#F56522"/>
<circle cx="63.5" cy="115.5" r="1.5" fill="#F56522"/>
<circle cx="76.5" cy="115.5" r="1.5" fill="#F56522"/>
<circle cx="89.5" cy="115.5" r="1.5" fill="#F56522"/>
<circle cx="102.5" cy="115.5" r="1.5" fill="#F56522"/>
<circle cx="115.5" cy="115.5" r="1.5" fill="#F56522"/>
<circle cx="128.5" cy="115.5" r="1.5" fill="#F56522"/>
<circle cx="141.5" cy="115.5" r="1.5" fill="#F56522"/>
<circle cx="11.5" cy="128.5" r="1.5" fill="#F56522"/>
<circle cx="24.5" cy="128.5" r="1.5" fill="#F56522"/>
<circle cx="37.5" cy="128.5" r="1.5" fill="#F56522"/>
<circle cx="50.5" cy="128.5" r="1.5" fill="#F56522"/>
<circle cx="63.5" cy="128.5" r="1.5" fill="#F56522"/>
<circle cx="76.5" cy="128.5" r="1.5" fill="#F56522"/>
<circle cx="89.5" cy="128.5" r="1.5" fill="#F56522"/>
<circle cx="102.5" cy="128.5" r="1.5" fill="#F56522"/>
<circle cx="115.5" cy="128.5" r="1.5" fill="#F56522"/>
<circle cx="128.5" cy="128.5" r="1.5" fill="#F56522"/>
<circle cx="141.5" cy="128.5" r="1.5" fill="#F56522"/>
</svg>
