<svg width="511" height="588" viewBox="0 0 511 588" fill="none" xmlns="http://www.w3.org/2000/svg">
<path d="M49.2932 81.6858C127.414 -21.6113 263.836 -25.725 346.6 69.3467C400.724 131.519 417.915 220.021 398.19 298.924C396.007 307.657 392.683 315.928 389.333 324.159C387.575 328.476 386.188 332.981 385.192 337.608C379.715 362.646 385.5 390.235 402.546 409.815C413.616 422.533 427.617 429.771 442.058 431.576C444.567 431.905 447.115 432.06 449.681 432.059C464.505 433.864 478.909 441.344 490.248 454.368C518.422 486.733 516.563 540.597 484.672 570.125C460.905 592.131 426.245 592.866 401.873 571.751C385.95 557.956 376.946 538.216 375.061 517.776C375.061 514.828 374.927 511.902 374.639 509.019C373.069 492.431 366.768 476.348 355.697 463.63C338.651 444.05 314.633 437.406 292.837 443.699C288.808 444.849 284.886 446.443 281.124 448.46C274.074 452.243 267.001 456.023 259.526 458.507C186.853 482.649 104.758 459.281 50.3272 388.384C-16.3674 301.512 -16.8351 169.125 49.2932 81.6858ZM268.277 309.395C304.284 268.035 304.284 200.678 268.277 159.317C232.244 117.925 173.634 117.956 137.627 159.317C101.594 200.708 101.594 268.004 137.627 309.395C173.634 350.757 232.244 350.787 268.277 309.395H268.277Z" stroke="#EE5A22" stroke-miterlimit="50"/>
</svg>
