<svg width="512" height="588" viewBox="0 0 512 588" fill="none" xmlns="http://www.w3.org/2000/svg">
<path d="M461.777 81.6858C383.656 -21.6113 247.234 -25.725 164.47 69.3467C110.346 131.519 93.1554 220.021 112.88 298.924C115.063 307.657 118.387 315.928 121.737 324.159C123.496 328.476 124.882 332.981 125.878 337.608C131.355 362.646 125.571 390.235 108.525 409.815C97.4542 422.533 83.4532 429.771 69.0125 431.576C66.503 431.905 63.9558 432.06 61.3894 432.059C46.5649 433.864 32.1613 441.344 20.8227 454.368C-7.35167 486.733 -5.49275 540.597 26.3985 570.125C50.1658 592.131 84.8252 592.866 109.197 571.751C125.12 557.956 134.125 538.216 136.009 517.776C136.009 514.828 136.144 511.902 136.431 509.019C138.002 492.431 144.302 476.348 155.373 463.63C172.419 444.05 196.438 437.406 218.233 443.699C222.262 444.849 226.185 446.443 229.947 448.46C236.997 452.243 244.069 456.023 251.545 458.507C324.217 482.649 406.312 459.281 460.743 388.384C527.438 301.512 527.905 169.125 461.777 81.6858ZM242.794 309.395C206.787 268.035 206.786 200.678 242.794 159.317C278.827 117.925 337.437 117.956 373.443 159.317C409.476 200.708 409.476 268.004 373.443 309.395C337.436 350.757 278.827 350.787 242.793 309.395H242.794Z" stroke="#EE5A22" stroke-miterlimit="50"/>
</svg>
