<svg width="129" height="129" viewBox="0 0 129 129" fill="none" xmlns="http://www.w3.org/2000/svg">
<g filter="url(#filter0_d_227_1324)">
<rect x="4.48535" y="0.484695" width="120" height="120" rx="8" fill="white" shape-rendering="crispEdges"/>
<path d="M52.0254 52.4493L53.612 58.0609C51.5417 58.6492 49.6477 59.7375 48.0971 61.2302C46.5464 62.7228 45.3866 64.5738 44.7199 66.6202C44.0531 68.6667 43.8998 70.8456 44.2736 72.9653C44.6473 75.0849 45.5365 77.08 46.863 78.775C48.1894 80.47 49.9123 81.8128 51.88 82.685C53.8476 83.5573 55.9995 83.9323 58.1462 83.777C60.2929 83.6217 62.3685 82.9409 64.1901 81.7945C66.0117 80.6481 67.5234 79.0713 68.592 77.203L68.8895 76.6576L74.0812 79.3118C72.6632 82.0865 70.5831 84.4689 68.025 86.2482C65.467 88.0276 62.5097 89.1489 59.415 89.513C56.3203 89.8772 53.1836 89.4729 50.2823 88.336C47.3811 87.199 44.8048 85.3645 42.7815 82.9947C40.7582 80.6249 39.3502 77.7929 38.6821 74.7493C38.014 71.7057 38.1064 68.5444 38.9512 65.545C39.7959 62.5456 41.367 59.8008 43.5253 57.5532C45.6836 55.3057 48.3627 53.6248 51.3254 52.6593L52.0254 52.4493ZM61.5687 31.318C63.4957 31.317 65.3692 31.9521 66.8983 33.1249C68.4274 34.2976 69.5266 35.9423 70.0253 37.8037C70.524 39.6651 70.3942 41.6391 69.6562 43.4192C68.9182 45.1993 67.6132 46.686 65.9437 47.6484V51.4984L71.0275 53.193H76.152C77.3124 53.193 78.4252 53.654 79.2456 54.4744C80.0661 55.2949 80.527 56.4077 80.527 57.568C80.527 58.7283 80.0661 59.8411 79.2456 60.6616C78.4252 61.4821 77.3124 61.943 76.152 61.943H70.3187C69.8462 61.943 69.3854 61.8682 68.9362 61.7184L65.9437 60.7209V63.4014C65.9437 63.7881 66.0973 64.1591 66.3708 64.4326C66.6443 64.706 67.0153 64.8597 67.402 64.8597H73.2354C74.8202 64.8597 76.3832 65.2287 77.8007 65.9374C79.2182 66.6462 80.4512 67.6752 81.402 68.943L87.0895 76.5264H87.8187C88.979 76.5264 90.0918 76.9873 90.9123 77.8078C91.7328 78.6282 92.1937 79.741 92.1937 80.9014C92.1937 82.0617 91.7328 83.1745 90.9123 83.9949C90.0918 84.8154 88.979 85.2764 87.8187 85.2764H84.902C84.2228 85.2764 83.553 85.1182 82.9455 84.8145C82.338 84.5107 81.8096 84.0697 81.402 83.5264L74.402 74.193C74.2662 74.0119 74.0901 73.8649 73.8876 73.7637C73.6851 73.6624 73.4618 73.6097 73.2354 73.6097H67.402C64.6946 73.6097 62.0981 72.5342 60.1837 70.6197C58.2692 68.7053 57.1937 66.1088 57.1937 63.4014V47.6484C55.5242 46.686 54.2192 45.1993 53.4812 43.4192C52.7432 41.6391 52.6134 39.6651 53.1121 37.8037C53.6108 35.9423 54.71 34.2976 56.2391 33.1249C57.7682 31.9521 59.6417 31.317 61.5687 31.318Z" fill="#333848"/>
</g>
<defs>
<filter id="filter0_d_227_1324" x="0.485352" y="0.484695" width="128" height="128" filterUnits="userSpaceOnUse" color-interpolation-filters="sRGB">
<feFlood flood-opacity="0" result="BackgroundImageFix"/>
<feColorMatrix in="SourceAlpha" type="matrix" values="0 0 0 0 0 0 0 0 0 0 0 0 0 0 0 0 0 0 127 0" result="hardAlpha"/>
<feOffset dy="4"/>
<feGaussianBlur stdDeviation="2"/>
<feComposite in2="hardAlpha" operator="out"/>
<feColorMatrix type="matrix" values="0 0 0 0 0 0 0 0 0 0 0 0 0 0 0 0 0 0 0.25 0"/>
<feBlend mode="normal" in2="BackgroundImageFix" result="effect1_dropShadow_227_1324"/>
<feBlend mode="normal" in="SourceGraphic" in2="effect1_dropShadow_227_1324" result="shape"/>
</filter>
</defs>
</svg>
