<svg width="165" height="132" viewBox="0 0 165 132" fill="none" xmlns="http://www.w3.org/2000/svg">
<path d="M95.2842 39.7157C110.905 55.3367 110.905 80.6633 95.2842 96.2843C79.6633 111.905 54.3367 111.905 38.7157 96.2843C23.0947 80.6633 23.0947 55.3367 38.7157 39.7157C54.3367 24.0948 79.6633 24.0948 95.2842 39.7157Z" fill="#D9D9D9" stroke="#FF711F" stroke-width="10"/>
<path d="M98.8193 99.8198C116.393 82.2462 116.393 53.7538 98.8193 36.1802L35.1797 99.8198C52.7533 117.393 81.2457 117.393 98.8193 99.8198Z" fill="white"/>
<path d="M88.2136 46.7868C99.9293 58.5025 99.9293 77.4975 88.2136 89.2132C76.4979 100.929 57.5029 100.929 45.7872 89.2132C34.0715 77.4975 34.0715 58.5025 45.7872 46.7868C57.5029 35.0711 76.4979 35.0711 88.2136 46.7868Z" fill="#D9D9D9" stroke="#FFA36D" stroke-width="10"/>
<path d="M61.2167 32.8778C42.1804 36.2344 29.4695 54.3874 32.8262 73.4237L101.763 61.2684C98.4061 42.2321 80.253 29.5212 61.2167 32.8778Z" fill="white"/>
<circle cx="66.9999" cy="69.4142" r="20" transform="rotate(-45 66.9999 69.4142)" fill="white" stroke="#BF4600" stroke-width="10"/>
<path d="M54.5609 91.0987C66.5679 98.0309 81.8979 93.9573 88.8015 82L45.3203 56.8961C38.4168 68.8535 42.5539 84.1665 54.5609 91.0987Z" fill="#FFFDFD"/>
<path d="M75.5 28.5V13.5H123" stroke="#FF711F" stroke-width="3"/>
<path d="M83 54H108.053V37H125" stroke="#BF4600" stroke-width="3"/>
<path d="M97 75.5H125" stroke="#FFA36D" stroke-width="3"/>
<circle cx="125.5" cy="13.5" r="3.5" fill="#333848"/>
<circle cx="125.5" cy="36.5" r="3.5" fill="#333848"/>
<circle cx="125.5" cy="75.5" r="3.5" fill="#333848"/>
<path d="M138.912 14.96C138.971 14.9707 139.043 14.9813 139.128 14.992C139.213 14.9973 139.293 15 139.368 15C139.549 15 139.715 14.9733 139.864 14.92C140.019 14.8667 140.149 14.784 140.256 14.672C140.368 14.56 140.453 14.416 140.512 14.24C140.576 14.0587 140.608 13.8427 140.608 13.592C140.608 13.112 140.496 12.752 140.272 12.512C140.048 12.2667 139.749 12.144 139.376 12.144C139.301 12.144 139.224 12.1467 139.144 12.152C139.069 12.1573 138.992 12.1653 138.912 12.176V14.96ZM139.36 16.128C139.269 16.128 139.165 16.1253 139.048 16.12C138.931 16.1147 138.808 16.104 138.68 16.088C138.557 16.072 138.432 16.0507 138.304 16.024C138.181 16.0027 138.067 15.9707 137.96 15.928C137.667 15.816 137.52 15.6213 137.52 15.344V11.608C137.52 11.496 137.549 11.4107 137.608 11.352C137.672 11.288 137.757 11.2373 137.864 11.2C138.093 11.1253 138.336 11.0773 138.592 11.056C138.848 11.0293 139.077 11.016 139.28 11.016C139.696 11.016 140.072 11.0667 140.408 11.168C140.749 11.2693 141.04 11.4267 141.28 11.64C141.525 11.848 141.715 12.112 141.848 12.432C141.981 12.752 142.048 13.1307 142.048 13.568C142.048 13.9947 141.984 14.368 141.856 14.688C141.728 15.0027 141.544 15.2693 141.304 15.488C141.069 15.7013 140.787 15.8613 140.456 15.968C140.125 16.0747 139.76 16.128 139.36 16.128ZM142.712 11.032C142.712 10.8293 142.779 10.6587 142.912 10.52C143.051 10.3813 143.232 10.312 143.456 10.312C143.68 10.312 143.859 10.3813 143.992 10.52C144.131 10.6587 144.2 10.8293 144.2 11.032C144.2 11.2347 144.131 11.4053 143.992 11.544C143.859 11.6827 143.68 11.752 143.456 11.752C143.232 11.752 143.051 11.6827 142.912 11.544C142.779 11.4053 142.712 11.2347 142.712 11.032ZM144.136 15.992C144.077 16.0027 143.989 16.016 143.872 16.032C143.76 16.0533 143.645 16.064 143.528 16.064C143.411 16.064 143.304 16.056 143.208 16.04C143.117 16.024 143.04 15.992 142.976 15.944C142.912 15.896 142.861 15.832 142.824 15.752C142.792 15.6667 142.776 15.5573 142.776 15.424V12.168C142.835 12.1573 142.92 12.144 143.032 12.128C143.149 12.1067 143.267 12.096 143.384 12.096C143.501 12.096 143.605 12.104 143.696 12.12C143.792 12.136 143.872 12.168 143.936 12.216C144 12.264 144.048 12.3307 144.08 12.416C144.117 12.496 144.136 12.6027 144.136 12.736V15.992ZM148.282 14.84C148.282 15.2453 148.13 15.5627 147.826 15.792C147.522 16.0213 147.074 16.136 146.482 16.136C146.258 16.136 146.05 16.12 145.858 16.088C145.666 16.056 145.501 16.008 145.362 15.944C145.229 15.8747 145.122 15.7893 145.042 15.688C144.967 15.5867 144.93 15.4667 144.93 15.328C144.93 15.2 144.957 15.0933 145.01 15.008C145.063 14.9173 145.127 14.8427 145.202 14.784C145.357 14.8693 145.533 14.9467 145.73 15.016C145.933 15.08 146.165 15.112 146.426 15.112C146.591 15.112 146.717 15.088 146.802 15.04C146.893 14.992 146.938 14.928 146.938 14.848C146.938 14.7733 146.906 14.7147 146.842 14.672C146.778 14.6293 146.671 14.5947 146.522 14.568L146.282 14.52C145.818 14.4293 145.471 14.288 145.242 14.096C145.018 13.8987 144.906 13.6187 144.906 13.256C144.906 13.0587 144.949 12.88 145.034 12.72C145.119 12.56 145.239 12.4267 145.394 12.32C145.549 12.2133 145.733 12.1307 145.946 12.072C146.165 12.0133 146.405 11.984 146.666 11.984C146.863 11.984 147.047 12 147.218 12.032C147.394 12.0587 147.546 12.1013 147.674 12.16C147.802 12.2187 147.903 12.296 147.978 12.392C148.053 12.4827 148.09 12.592 148.09 12.72C148.09 12.8427 148.066 12.9493 148.018 13.04C147.975 13.1253 147.919 13.1973 147.85 13.256C147.807 13.2293 147.743 13.2027 147.658 13.176C147.573 13.144 147.479 13.1173 147.378 13.096C147.277 13.0693 147.173 13.048 147.066 13.032C146.965 13.016 146.871 13.008 146.786 13.008C146.61 13.008 146.474 13.0293 146.378 13.072C146.282 13.1093 146.234 13.1707 146.234 13.256C146.234 13.3147 146.261 13.3627 146.314 13.4C146.367 13.4373 146.469 13.472 146.618 13.504L146.866 13.56C147.378 13.6773 147.741 13.84 147.954 14.048C148.173 14.2507 148.282 14.5147 148.282 14.84ZM150.723 11.992C151.043 11.992 151.339 12.0347 151.611 12.12C151.889 12.2 152.126 12.3253 152.323 12.496C152.521 12.6667 152.675 12.8827 152.787 13.144C152.899 13.4 152.955 13.7067 152.955 14.064C152.955 14.4053 152.907 14.704 152.811 14.96C152.715 15.216 152.579 15.432 152.403 15.608C152.227 15.7787 152.014 15.9067 151.763 15.992C151.518 16.0773 151.243 16.12 150.939 16.12C150.71 16.12 150.497 16.0853 150.299 16.016V17.344C150.246 17.36 150.161 17.376 150.043 17.392C149.926 17.4133 149.806 17.424 149.683 17.424C149.566 17.424 149.459 17.416 149.363 17.4C149.273 17.384 149.195 17.352 149.131 17.304C149.067 17.256 149.019 17.1893 148.987 17.104C148.955 17.024 148.939 16.9173 148.939 16.784V12.944C148.939 12.8 148.969 12.6827 149.027 12.592C149.091 12.5013 149.177 12.4187 149.283 12.344C149.449 12.2373 149.654 12.152 149.899 12.088C150.145 12.024 150.419 11.992 150.723 11.992ZM150.739 15.048C151.289 15.048 151.563 14.72 151.563 14.064C151.563 13.7227 151.494 13.4693 151.355 13.304C151.222 13.1387 151.027 13.056 150.771 13.056C150.67 13.056 150.579 13.0693 150.499 13.096C150.419 13.1173 150.35 13.144 150.291 13.176V14.936C150.355 14.968 150.425 14.9947 150.499 15.016C150.574 15.0373 150.654 15.048 150.739 15.048ZM155.003 15.992C154.944 16.0027 154.856 16.016 154.739 16.032C154.627 16.0533 154.512 16.064 154.395 16.064C154.278 16.064 154.171 16.056 154.075 16.04C153.984 16.024 153.907 15.992 153.843 15.944C153.779 15.896 153.728 15.832 153.691 15.752C153.659 15.6667 153.643 15.5573 153.643 15.424V10.784C153.702 10.7733 153.787 10.76 153.899 10.744C154.016 10.7227 154.134 10.712 154.251 10.712C154.368 10.712 154.472 10.72 154.563 10.736C154.659 10.752 154.739 10.784 154.803 10.832C154.867 10.88 154.915 10.9467 154.947 11.032C154.984 11.112 155.003 11.2187 155.003 11.352V15.992ZM157.525 15.136C157.616 15.136 157.715 15.128 157.821 15.112C157.933 15.0907 158.016 15.064 158.069 15.032V14.392L157.493 14.44C157.344 14.4507 157.221 14.4827 157.125 14.536C157.029 14.5893 156.981 14.6693 156.981 14.776C156.981 14.8827 157.021 14.9707 157.101 15.04C157.187 15.104 157.328 15.136 157.525 15.136ZM157.461 11.992C157.749 11.992 158.011 12.0213 158.245 12.08C158.485 12.1387 158.688 12.2293 158.853 12.352C159.024 12.4693 159.155 12.6213 159.245 12.808C159.336 12.9893 159.381 13.2053 159.381 13.456V15.248C159.381 15.3867 159.341 15.5013 159.261 15.592C159.187 15.6773 159.096 15.752 158.989 15.816C158.643 16.024 158.155 16.128 157.525 16.128C157.243 16.128 156.987 16.1013 156.757 16.048C156.533 15.9947 156.339 15.9147 156.173 15.808C156.013 15.7013 155.888 15.5653 155.797 15.4C155.712 15.2347 155.669 15.0427 155.669 14.824C155.669 14.456 155.779 14.1733 155.997 13.976C156.216 13.7787 156.555 13.656 157.013 13.608L158.061 13.496V13.44C158.061 13.2853 157.992 13.176 157.853 13.112C157.72 13.0427 157.525 13.008 157.269 13.008C157.067 13.008 156.869 13.0293 156.677 13.072C156.485 13.1147 156.312 13.168 156.157 13.232C156.088 13.184 156.029 13.112 155.981 13.016C155.933 12.9147 155.909 12.8107 155.909 12.704C155.909 12.5653 155.941 12.456 156.005 12.376C156.075 12.2907 156.179 12.2187 156.317 12.16C156.472 12.1013 156.653 12.0587 156.861 12.032C157.075 12.0053 157.275 11.992 157.461 11.992ZM160.727 15.008C160.668 14.8747 160.604 14.7253 160.535 14.56C160.471 14.3947 160.402 14.2053 160.327 13.992C160.258 13.7787 160.183 13.536 160.103 13.264C160.028 12.9867 159.948 12.6693 159.863 12.312C159.938 12.2373 160.036 12.1733 160.159 12.12C160.287 12.0613 160.426 12.032 160.575 12.032C160.762 12.032 160.916 12.072 161.039 12.152C161.162 12.2267 161.252 12.3707 161.311 12.584L161.943 14.784H161.975C162.039 14.6027 162.1 14.4053 162.159 14.192C162.223 13.9787 162.284 13.76 162.343 13.536C162.402 13.3067 162.455 13.08 162.503 12.856C162.556 12.6267 162.602 12.4027 162.639 12.184C162.831 12.0827 163.042 12.032 163.271 12.032C163.458 12.032 163.612 12.072 163.735 12.152C163.858 12.232 163.919 12.3707 163.919 12.568C163.919 12.712 163.9 12.88 163.863 13.072C163.826 13.2587 163.775 13.4587 163.711 13.672C163.652 13.8853 163.58 14.1067 163.495 14.336C163.415 14.56 163.33 14.7813 163.239 15C163.148 15.2187 163.055 15.4267 162.959 15.624C162.863 15.816 162.77 15.9893 162.679 16.144C162.53 16.4053 162.391 16.6187 162.263 16.784C162.135 16.9493 162.012 17.0773 161.895 17.168C161.778 17.264 161.66 17.328 161.543 17.36C161.426 17.3973 161.303 17.416 161.175 17.416C160.951 17.416 160.77 17.3493 160.631 17.216C160.492 17.0827 160.41 16.9093 160.383 16.696C160.554 16.5627 160.724 16.4133 160.895 16.248C161.066 16.088 161.22 15.9227 161.359 15.752C161.268 15.7253 161.17 15.664 161.063 15.568C160.962 15.4667 160.85 15.28 160.727 15.008Z" fill="#333848"/>
<path d="M138.912 36.96C138.971 36.9707 139.043 36.9813 139.128 36.992C139.213 36.9973 139.293 37 139.368 37C139.549 37 139.715 36.9733 139.864 36.92C140.019 36.8667 140.149 36.784 140.256 36.672C140.368 36.56 140.453 36.416 140.512 36.24C140.576 36.0587 140.608 35.8427 140.608 35.592C140.608 35.112 140.496 34.752 140.272 34.512C140.048 34.2667 139.749 34.144 139.376 34.144C139.301 34.144 139.224 34.1467 139.144 34.152C139.069 34.1573 138.992 34.1653 138.912 34.176V36.96ZM139.36 38.128C139.269 38.128 139.165 38.1253 139.048 38.12C138.931 38.1147 138.808 38.104 138.68 38.088C138.557 38.072 138.432 38.0507 138.304 38.024C138.181 38.0027 138.067 37.9707 137.96 37.928C137.667 37.816 137.52 37.6213 137.52 37.344V33.608C137.52 33.496 137.549 33.4107 137.608 33.352C137.672 33.288 137.757 33.2373 137.864 33.2C138.093 33.1253 138.336 33.0773 138.592 33.056C138.848 33.0293 139.077 33.016 139.28 33.016C139.696 33.016 140.072 33.0667 140.408 33.168C140.749 33.2693 141.04 33.4267 141.28 33.64C141.525 33.848 141.715 34.112 141.848 34.432C141.981 34.752 142.048 35.1307 142.048 35.568C142.048 35.9947 141.984 36.368 141.856 36.688C141.728 37.0027 141.544 37.2693 141.304 37.488C141.069 37.7013 140.787 37.8613 140.456 37.968C140.125 38.0747 139.76 38.128 139.36 38.128ZM142.712 33.032C142.712 32.8293 142.779 32.6587 142.912 32.52C143.051 32.3813 143.232 32.312 143.456 32.312C143.68 32.312 143.859 32.3813 143.992 32.52C144.131 32.6587 144.2 32.8293 144.2 33.032C144.2 33.2347 144.131 33.4053 143.992 33.544C143.859 33.6827 143.68 33.752 143.456 33.752C143.232 33.752 143.051 33.6827 142.912 33.544C142.779 33.4053 142.712 33.2347 142.712 33.032ZM144.136 37.992C144.077 38.0027 143.989 38.016 143.872 38.032C143.76 38.0533 143.645 38.064 143.528 38.064C143.411 38.064 143.304 38.056 143.208 38.04C143.117 38.024 143.04 37.992 142.976 37.944C142.912 37.896 142.861 37.832 142.824 37.752C142.792 37.6667 142.776 37.5573 142.776 37.424V34.168C142.835 34.1573 142.92 34.144 143.032 34.128C143.149 34.1067 143.267 34.096 143.384 34.096C143.501 34.096 143.605 34.104 143.696 34.12C143.792 34.136 143.872 34.168 143.936 34.216C144 34.264 144.048 34.3307 144.08 34.416C144.117 34.496 144.136 34.6027 144.136 34.736V37.992ZM146.362 37.992C146.309 38.008 146.223 38.024 146.106 38.04C145.994 38.056 145.877 38.064 145.754 38.064C145.637 38.064 145.53 38.056 145.434 38.04C145.343 38.024 145.266 37.992 145.202 37.944C145.138 37.896 145.087 37.832 145.05 37.752C145.018 37.6667 145.002 37.5573 145.002 37.424V35.024C145.002 34.9013 145.023 34.7973 145.066 34.712C145.114 34.6213 145.181 34.5413 145.266 34.472C145.351 34.4027 145.455 34.3413 145.578 34.288C145.706 34.2293 145.842 34.1787 145.986 34.136C146.13 34.0933 146.279 34.0613 146.434 34.04C146.589 34.0133 146.743 34 146.898 34C147.154 34 147.357 34.0507 147.506 34.152C147.655 34.248 147.73 34.408 147.73 34.632C147.73 34.7067 147.719 34.7813 147.698 34.856C147.677 34.9253 147.65 34.9893 147.618 35.048C147.506 35.048 147.391 35.0533 147.274 35.064C147.157 35.0747 147.042 35.0907 146.93 35.112C146.818 35.1333 146.711 35.1573 146.61 35.184C146.514 35.2053 146.431 35.232 146.362 35.264V37.992ZM150.199 38.128C149.884 38.128 149.591 38.0853 149.319 38C149.052 37.9093 148.817 37.776 148.615 37.6C148.417 37.424 148.26 37.2027 148.143 36.936C148.031 36.6693 147.975 36.3573 147.975 36C147.975 35.648 148.031 35.3467 148.143 35.096C148.26 34.84 148.412 34.632 148.599 34.472C148.785 34.3067 148.999 34.1867 149.239 34.112C149.479 34.032 149.724 33.992 149.975 33.992C150.257 33.992 150.513 34.0347 150.743 34.12C150.977 34.2053 151.177 34.3227 151.343 34.472C151.513 34.6213 151.644 34.8 151.735 35.008C151.831 35.216 151.879 35.4427 151.879 35.688C151.879 35.8693 151.828 36.008 151.727 36.104C151.625 36.2 151.484 36.2613 151.303 36.288L149.327 36.584C149.385 36.76 149.505 36.8933 149.687 36.984C149.868 37.0693 150.076 37.112 150.311 37.112C150.529 37.112 150.735 37.0853 150.927 37.032C151.124 36.9733 151.284 36.9067 151.407 36.832C151.492 36.8853 151.564 36.96 151.623 37.056C151.681 37.152 151.711 37.2533 151.711 37.36C151.711 37.6 151.599 37.7787 151.375 37.896C151.204 37.9867 151.012 38.048 150.799 38.08C150.585 38.112 150.385 38.128 150.199 38.128ZM149.975 34.984C149.847 34.984 149.735 35.0053 149.639 35.048C149.548 35.0907 149.473 35.1467 149.415 35.216C149.356 35.28 149.311 35.3547 149.279 35.44C149.252 35.52 149.236 35.6027 149.231 35.688L150.599 35.464C150.583 35.3573 150.524 35.2507 150.423 35.144C150.321 35.0373 150.172 34.984 149.975 34.984ZM154.725 35.064C154.592 35.064 154.464 35.0853 154.341 35.128C154.224 35.1707 154.12 35.2347 154.029 35.32C153.944 35.4 153.875 35.5013 153.821 35.624C153.768 35.7467 153.741 35.8907 153.741 36.056C153.741 36.3867 153.835 36.6347 154.021 36.8C154.213 36.9653 154.445 37.048 154.717 37.048C154.877 37.048 155.016 37.0293 155.133 36.992C155.251 36.9547 155.355 36.9147 155.445 36.872C155.552 36.9467 155.632 37.0293 155.685 37.12C155.739 37.2053 155.765 37.3093 155.765 37.432C155.765 37.6507 155.661 37.8213 155.453 37.944C155.245 38.0613 154.957 38.12 154.589 38.12C154.253 38.12 153.949 38.072 153.677 37.976C153.405 37.8747 153.171 37.736 152.973 37.56C152.781 37.3787 152.632 37.1627 152.525 36.912C152.419 36.6613 152.365 36.384 152.365 36.08C152.365 35.728 152.421 35.4213 152.533 35.16C152.651 34.8933 152.808 34.6747 153.005 34.504C153.203 34.3333 153.429 34.2053 153.685 34.12C153.947 34.0347 154.221 33.992 154.509 33.992C154.893 33.992 155.189 34.0613 155.397 34.2C155.605 34.3387 155.709 34.5173 155.709 34.736C155.709 34.8373 155.685 34.9333 155.637 35.024C155.589 35.1093 155.533 35.184 155.469 35.248C155.379 35.2053 155.269 35.1653 155.141 35.128C155.013 35.0853 154.875 35.064 154.725 35.064ZM157.807 36.664C157.807 36.8027 157.85 36.9013 157.935 36.96C158.026 37.0187 158.151 37.048 158.311 37.048C158.391 37.048 158.474 37.0427 158.559 37.032C158.645 37.016 158.719 36.9973 158.783 36.976C158.831 37.0347 158.871 37.1013 158.903 37.176C158.941 37.2453 158.959 37.3307 158.959 37.432C158.959 37.6347 158.882 37.8 158.727 37.928C158.578 38.056 158.311 38.12 157.927 38.12C157.458 38.12 157.095 38.0133 156.839 37.8C156.589 37.5867 156.463 37.24 156.463 36.76V33.336C156.522 33.32 156.605 33.304 156.711 33.288C156.823 33.2667 156.941 33.256 157.063 33.256C157.298 33.256 157.479 33.2987 157.607 33.384C157.741 33.464 157.807 33.6373 157.807 33.904V34.416H158.855C158.887 34.4747 158.917 34.5493 158.943 34.64C158.975 34.7253 158.991 34.8213 158.991 34.928C158.991 35.1147 158.949 35.2507 158.863 35.336C158.783 35.416 158.674 35.456 158.535 35.456H157.807V36.664Z" fill="#333848"/>
<path d="M138.552 73.296C138.643 73.2427 138.779 73.192 138.96 73.144C139.147 73.096 139.333 73.072 139.52 73.072C139.787 73.072 140.021 73.112 140.224 73.192C140.432 73.2667 140.565 73.3867 140.624 73.552C140.72 73.8293 140.824 74.152 140.936 74.52C141.048 74.888 141.16 75.2693 141.272 75.664C141.384 76.0533 141.493 76.44 141.6 76.824C141.707 77.2027 141.8 77.5387 141.88 77.832C141.816 77.9067 141.72 77.9653 141.592 78.008C141.464 78.056 141.312 78.08 141.136 78.08C141.008 78.08 140.899 78.0693 140.808 78.048C140.723 78.0267 140.651 77.9947 140.592 77.952C140.539 77.9093 140.493 77.8533 140.456 77.784C140.424 77.7147 140.395 77.6347 140.368 77.544L140.224 76.992H138.776C138.733 77.152 138.691 77.3173 138.648 77.488C138.605 77.6587 138.563 77.824 138.52 77.984C138.445 78.0107 138.365 78.032 138.28 78.048C138.2 78.0693 138.101 78.08 137.984 78.08C137.712 78.08 137.509 78.0347 137.376 77.944C137.248 77.848 137.184 77.7173 137.184 77.552C137.184 77.4773 137.195 77.4027 137.216 77.328C137.237 77.2533 137.261 77.1653 137.288 77.064C137.325 76.92 137.376 76.7413 137.44 76.528C137.509 76.3147 137.584 76.0853 137.664 75.84C137.744 75.5893 137.829 75.3333 137.92 75.072C138.011 74.8107 138.096 74.5653 138.176 74.336C138.256 74.1013 138.328 73.8933 138.392 73.712C138.461 73.5307 138.515 73.392 138.552 73.296ZM139.512 74.328C139.437 74.552 139.352 74.8027 139.256 75.08C139.165 75.352 139.083 75.6293 139.008 75.912H140C139.925 75.624 139.848 75.344 139.768 75.072C139.693 74.7947 139.624 74.5467 139.56 74.328H139.512ZM142.448 74.112C142.448 73.84 142.493 73.608 142.584 73.416C142.68 73.2187 142.808 73.0587 142.968 72.936C143.128 72.808 143.314 72.7147 143.528 72.656C143.746 72.5973 143.978 72.568 144.224 72.568C144.618 72.568 144.909 72.6213 145.096 72.728C145.282 72.8293 145.376 73.0053 145.376 73.256C145.376 73.3627 145.352 73.4587 145.304 73.544C145.261 73.6293 145.213 73.6933 145.16 73.736C145.058 73.7093 144.952 73.688 144.84 73.672C144.733 73.6507 144.608 73.64 144.464 73.64C144.234 73.64 144.056 73.68 143.928 73.76C143.8 73.8347 143.736 73.968 143.736 74.16V74.416H145.048C145.08 74.4747 145.109 74.5493 145.136 74.64C145.168 74.7253 145.184 74.8213 145.184 74.928C145.184 75.1147 145.141 75.2507 145.056 75.336C144.976 75.416 144.866 75.456 144.728 75.456H143.808V77.992C143.754 78.008 143.669 78.024 143.552 78.04C143.44 78.056 143.322 78.064 143.2 78.064C143.082 78.064 142.976 78.056 142.88 78.04C142.789 78.024 142.712 77.992 142.648 77.944C142.584 77.896 142.533 77.832 142.496 77.752C142.464 77.6667 142.448 77.5573 142.448 77.424V74.112ZM145.816 73.032C145.816 72.8293 145.882 72.6587 146.016 72.52C146.154 72.3813 146.336 72.312 146.56 72.312C146.784 72.312 146.962 72.3813 147.096 72.52C147.234 72.6587 147.304 72.8293 147.304 73.032C147.304 73.2347 147.234 73.4053 147.096 73.544C146.962 73.6827 146.784 73.752 146.56 73.752C146.336 73.752 146.154 73.6827 146.016 73.544C145.882 73.4053 145.816 73.2347 145.816 73.032ZM147.24 77.992C147.181 78.0027 147.093 78.016 146.976 78.032C146.864 78.0533 146.749 78.064 146.632 78.064C146.514 78.064 146.408 78.056 146.312 78.04C146.221 78.024 146.144 77.992 146.08 77.944C146.016 77.896 145.965 77.832 145.928 77.752C145.896 77.6667 145.88 77.5573 145.88 77.424V74.168C145.938 74.1573 146.024 74.144 146.136 74.128C146.253 74.1067 146.37 74.096 146.488 74.096C146.605 74.096 146.709 74.104 146.8 74.12C146.896 74.136 146.976 74.168 147.04 74.216C147.104 74.264 147.152 74.3307 147.184 74.416C147.221 74.496 147.24 74.6027 147.24 74.736V77.992ZM149.488 77.992C149.429 78.0027 149.341 78.016 149.224 78.032C149.112 78.0533 148.997 78.064 148.88 78.064C148.762 78.064 148.656 78.056 148.56 78.04C148.469 78.024 148.392 77.992 148.328 77.944C148.264 77.896 148.213 77.832 148.176 77.752C148.144 77.6667 148.128 77.5573 148.128 77.424V72.784C148.186 72.7733 148.272 72.76 148.384 72.744C148.501 72.7227 148.618 72.712 148.736 72.712C148.853 72.712 148.957 72.72 149.048 72.736C149.144 72.752 149.224 72.784 149.288 72.832C149.352 72.88 149.4 72.9467 149.432 73.032C149.469 73.112 149.488 73.2187 149.488 73.352V77.992ZM150.314 73.032C150.314 72.8293 150.38 72.6587 150.514 72.52C150.652 72.3813 150.834 72.312 151.058 72.312C151.282 72.312 151.46 72.3813 151.594 72.52C151.732 72.6587 151.802 72.8293 151.802 73.032C151.802 73.2347 151.732 73.4053 151.594 73.544C151.46 73.6827 151.282 73.752 151.058 73.752C150.834 73.752 150.652 73.6827 150.514 73.544C150.38 73.4053 150.314 73.2347 150.314 73.032ZM151.738 77.992C151.679 78.0027 151.591 78.016 151.474 78.032C151.362 78.0533 151.247 78.064 151.13 78.064C151.012 78.064 150.906 78.056 150.81 78.04C150.719 78.024 150.642 77.992 150.578 77.944C150.514 77.896 150.463 77.832 150.426 77.752C150.394 77.6667 150.378 77.5573 150.378 77.424V74.168C150.436 74.1573 150.522 74.144 150.634 74.128C150.751 74.1067 150.868 74.096 150.986 74.096C151.103 74.096 151.207 74.104 151.298 74.12C151.394 74.136 151.474 74.168 151.538 74.216C151.602 74.264 151.65 74.3307 151.682 74.416C151.719 74.496 151.738 74.6027 151.738 74.736V77.992ZM154.268 77.136C154.358 77.136 154.457 77.128 154.564 77.112C154.676 77.0907 154.758 77.064 154.812 77.032V76.392L154.236 76.44C154.086 76.4507 153.964 76.4827 153.868 76.536C153.772 76.5893 153.724 76.6693 153.724 76.776C153.724 76.8827 153.764 76.9707 153.844 77.04C153.929 77.104 154.07 77.136 154.268 77.136ZM154.204 73.992C154.492 73.992 154.753 74.0213 154.988 74.08C155.228 74.1387 155.43 74.2293 155.596 74.352C155.766 74.4693 155.897 74.6213 155.988 74.808C156.078 74.9893 156.124 75.2053 156.124 75.456V77.248C156.124 77.3867 156.084 77.5013 156.004 77.592C155.929 77.6773 155.838 77.752 155.732 77.816C155.385 78.024 154.897 78.128 154.268 78.128C153.985 78.128 153.729 78.1013 153.5 78.048C153.276 77.9947 153.081 77.9147 152.916 77.808C152.756 77.7013 152.63 77.5653 152.54 77.4C152.454 77.2347 152.412 77.0427 152.412 76.824C152.412 76.456 152.521 76.1733 152.74 75.976C152.958 75.7787 153.297 75.656 153.756 75.608L154.804 75.496V75.44C154.804 75.2853 154.734 75.176 154.596 75.112C154.462 75.0427 154.268 75.008 154.012 75.008C153.809 75.008 153.612 75.0293 153.42 75.072C153.228 75.1147 153.054 75.168 152.9 75.232C152.83 75.184 152.772 75.112 152.724 75.016C152.676 74.9147 152.652 74.8107 152.652 74.704C152.652 74.5653 152.684 74.456 152.748 74.376C152.817 74.2907 152.921 74.2187 153.06 74.16C153.214 74.1013 153.396 74.0587 153.604 74.032C153.817 74.0053 154.017 73.992 154.204 73.992ZM158.315 76.664C158.315 76.8027 158.358 76.9013 158.443 76.96C158.534 77.0187 158.659 77.048 158.819 77.048C158.899 77.048 158.982 77.0427 159.067 77.032C159.152 77.016 159.227 76.9973 159.291 76.976C159.339 77.0347 159.379 77.1013 159.411 77.176C159.448 77.2453 159.467 77.3307 159.467 77.432C159.467 77.6347 159.39 77.8 159.235 77.928C159.086 78.056 158.819 78.12 158.435 78.12C157.966 78.12 157.603 78.0133 157.347 77.8C157.096 77.5867 156.971 77.24 156.971 76.76V73.336C157.03 73.32 157.112 73.304 157.219 73.288C157.331 73.2667 157.448 73.256 157.571 73.256C157.806 73.256 157.987 73.2987 158.115 73.384C158.248 73.464 158.315 73.6373 158.315 73.904V74.416H159.363C159.395 74.4747 159.424 74.5493 159.451 74.64C159.483 74.7253 159.499 74.8213 159.499 74.928C159.499 75.1147 159.456 75.2507 159.371 75.336C159.291 75.416 159.182 75.456 159.043 75.456H158.315V76.664ZM162.167 78.128C161.853 78.128 161.559 78.0853 161.287 78C161.021 77.9093 160.786 77.776 160.583 77.6C160.386 77.424 160.229 77.2027 160.111 76.936C159.999 76.6693 159.943 76.3573 159.943 76C159.943 75.648 159.999 75.3467 160.111 75.096C160.229 74.84 160.381 74.632 160.567 74.472C160.754 74.3067 160.967 74.1867 161.207 74.112C161.447 74.032 161.693 73.992 161.943 73.992C162.226 73.992 162.482 74.0347 162.711 74.12C162.946 74.2053 163.146 74.3227 163.311 74.472C163.482 74.6213 163.613 74.8 163.703 75.008C163.799 75.216 163.847 75.4427 163.847 75.688C163.847 75.8693 163.797 76.008 163.695 76.104C163.594 76.2 163.453 76.2613 163.271 76.288L161.295 76.584C161.354 76.76 161.474 76.8933 161.655 76.984C161.837 77.0693 162.045 77.112 162.279 77.112C162.498 77.112 162.703 77.0853 162.895 77.032C163.093 76.9733 163.253 76.9067 163.375 76.832C163.461 76.8853 163.533 76.96 163.591 77.056C163.65 77.152 163.679 77.2533 163.679 77.36C163.679 77.6 163.567 77.7787 163.343 77.896C163.173 77.9867 162.981 78.048 162.767 78.08C162.554 78.112 162.354 78.128 162.167 78.128ZM161.943 74.984C161.815 74.984 161.703 75.0053 161.607 75.048C161.517 75.0907 161.442 75.1467 161.383 75.216C161.325 75.28 161.279 75.3547 161.247 75.44C161.221 75.52 161.205 75.6027 161.199 75.688L162.567 75.464C162.551 75.3573 162.493 75.2507 162.391 75.144C162.29 75.0373 162.141 74.984 161.943 74.984Z" fill="#333848"/>
<path d="M0.296 5.272C0.258667 5.21333 0.224 5.13333 0.192 5.032C0.16 4.93067 0.144 4.824 0.144 4.712C0.144 4.504 0.189333 4.35467 0.28 4.264C0.376 4.17333 0.498667 4.128 0.648 4.128H4.136C4.17333 4.18667 4.208 4.26667 4.24 4.368C4.272 4.46933 4.288 4.576 4.288 4.688C4.288 4.896 4.24 5.04533 4.144 5.136C4.05333 5.22667 3.93333 5.272 3.784 5.272H2.896V8.968C2.83733 8.984 2.744 9 2.616 9.016C2.49333 9.032 2.37067 9.04 2.248 9.04C2.12533 9.04 2.016 9.02933 1.92 9.008C1.82933 8.992 1.752 8.96 1.688 8.912C1.624 8.864 1.576 8.79733 1.544 8.712C1.512 8.62667 1.496 8.51467 1.496 8.376V5.272H0.296ZM8.40875 7.056C8.40875 7.38667 8.35808 7.68267 8.25675 7.944C8.15542 8.2 8.01142 8.416 7.82475 8.592C7.64342 8.768 7.42475 8.90133 7.16875 8.992C6.91275 9.08267 6.62742 9.128 6.31275 9.128C5.99808 9.128 5.71275 9.08 5.45675 8.984C5.20075 8.888 4.97942 8.752 4.79275 8.576C4.61142 8.39467 4.47008 8.176 4.36875 7.92C4.26742 7.664 4.21675 7.376 4.21675 7.056C4.21675 6.74133 4.26742 6.456 4.36875 6.2C4.47008 5.944 4.61142 5.728 4.79275 5.552C4.97942 5.37067 5.20075 5.232 5.45675 5.136C5.71275 5.04 5.99808 4.992 6.31275 4.992C6.62742 4.992 6.91275 5.04267 7.16875 5.144C7.42475 5.24 7.64342 5.37867 7.82475 5.56C8.01142 5.736 8.15542 5.952 8.25675 6.208C8.35808 6.464 8.40875 6.74667 8.40875 7.056ZM5.60875 7.056C5.60875 7.38133 5.67008 7.632 5.79275 7.808C5.92075 7.97867 6.09675 8.064 6.32075 8.064C6.54475 8.064 6.71542 7.976 6.83275 7.8C6.95542 7.624 7.01675 7.376 7.01675 7.056C7.01675 6.736 6.95542 6.49067 6.83275 6.32C6.71008 6.144 6.53675 6.056 6.31275 6.056C6.08875 6.056 5.91542 6.144 5.79275 6.32C5.67008 6.49067 5.60875 6.736 5.60875 7.056ZM9.07225 5.168C9.12558 5.152 9.20825 5.136 9.32025 5.12C9.43758 5.104 9.55758 5.096 9.68025 5.096C9.79758 5.096 9.90158 5.104 9.99225 5.12C10.0883 5.136 10.1683 5.168 10.2323 5.216C10.2963 5.264 10.3443 5.33067 10.3763 5.416C10.4136 5.496 10.4323 5.60267 10.4323 5.736V7.456C10.4323 7.67467 10.4856 7.832 10.5923 7.928C10.6989 8.01867 10.8536 8.064 11.0563 8.064C11.1789 8.064 11.2776 8.05333 11.3523 8.032C11.4323 8.01067 11.4936 7.98933 11.5363 7.968V5.168C11.5896 5.152 11.6723 5.136 11.7843 5.12C11.9016 5.104 12.0216 5.096 12.1443 5.096C12.2616 5.096 12.3656 5.104 12.4563 5.12C12.5523 5.136 12.6323 5.168 12.6962 5.216C12.7603 5.264 12.8083 5.33067 12.8403 5.416C12.8776 5.496 12.8963 5.60267 12.8963 5.736V8.168C12.8963 8.43467 12.7843 8.63467 12.5603 8.768C12.3736 8.88533 12.1496 8.97333 11.8883 9.032C11.6323 9.096 11.3523 9.128 11.0483 9.128C10.7603 9.128 10.4936 9.096 10.2483 9.032C10.0083 8.968 9.80025 8.86933 9.62425 8.736C9.44825 8.60267 9.31225 8.432 9.21625 8.224C9.12025 8.01067 9.07225 7.75467 9.07225 7.456V5.168ZM15.9205 6.064C15.7872 6.064 15.6592 6.08533 15.5365 6.128C15.4192 6.17067 15.3152 6.23467 15.2245 6.32C15.1392 6.4 15.0698 6.50133 15.0165 6.624C14.9632 6.74667 14.9365 6.89067 14.9365 7.056C14.9365 7.38667 15.0298 7.63467 15.2165 7.8C15.4085 7.96533 15.6405 8.048 15.9125 8.048C16.0725 8.048 16.2112 8.02933 16.3285 7.992C16.4458 7.95467 16.5498 7.91467 16.6405 7.872C16.7472 7.94667 16.8272 8.02933 16.8805 8.12C16.9338 8.20533 16.9605 8.30933 16.9605 8.432C16.9605 8.65067 16.8565 8.82133 16.6485 8.944C16.4405 9.06133 16.1525 9.12 15.7845 9.12C15.4485 9.12 15.1445 9.072 14.8725 8.976C14.6005 8.87467 14.3658 8.736 14.1685 8.56C13.9765 8.37867 13.8272 8.16267 13.7205 7.912C13.6138 7.66133 13.5605 7.384 13.5605 7.08C13.5605 6.728 13.6165 6.42133 13.7285 6.16C13.8458 5.89333 14.0032 5.67467 14.2005 5.504C14.3978 5.33333 14.6245 5.20533 14.8805 5.12C15.1418 5.03467 15.4165 4.992 15.7045 4.992C16.0885 4.992 16.3845 5.06133 16.5925 5.2C16.8005 5.33867 16.9045 5.51733 16.9045 5.736C16.9045 5.83733 16.8805 5.93333 16.8325 6.024C16.7845 6.10933 16.7285 6.184 16.6645 6.248C16.5738 6.20533 16.4645 6.16533 16.3365 6.128C16.2085 6.08533 16.0698 6.064 15.9205 6.064ZM21.4826 8.992C21.4292 9.008 21.3439 9.024 21.2266 9.04C21.1146 9.056 20.9972 9.064 20.8746 9.064C20.7572 9.064 20.6506 9.056 20.5546 9.04C20.4639 9.024 20.3866 8.992 20.3226 8.944C20.2586 8.896 20.2079 8.832 20.1706 8.752C20.1386 8.66667 20.1226 8.55733 20.1226 8.424V6.648C20.1226 6.42933 20.0666 6.27733 19.9546 6.192C19.8479 6.10133 19.7146 6.056 19.5546 6.056C19.4479 6.056 19.3466 6.06933 19.2506 6.096C19.1546 6.12267 19.0772 6.15467 19.0186 6.192V8.992C18.9652 9.008 18.8799 9.024 18.7626 9.04C18.6506 9.056 18.5332 9.064 18.4106 9.064C18.2932 9.064 18.1866 9.056 18.0906 9.04C17.9999 9.024 17.9226 8.992 17.8586 8.944C17.7946 8.896 17.7439 8.832 17.7066 8.752C17.6746 8.66667 17.6586 8.55733 17.6586 8.424V3.784C17.7172 3.77333 17.8026 3.76 17.9146 3.744C18.0319 3.72267 18.1492 3.712 18.2666 3.712C18.3839 3.712 18.4879 3.72 18.5786 3.736C18.6746 3.752 18.7546 3.784 18.8186 3.832C18.8826 3.88 18.9306 3.94667 18.9626 4.032C18.9999 4.112 19.0186 4.21867 19.0186 4.352V5.136C19.0879 5.10933 19.1919 5.08 19.3306 5.048C19.4746 5.01067 19.6319 4.992 19.8026 4.992C20.3306 4.992 20.7412 5.12533 21.0346 5.392C21.3332 5.65333 21.4826 6.04533 21.4826 6.568V8.992ZM24.1063 4.992C24.4263 4.992 24.7223 5.03467 24.9943 5.12C25.2716 5.2 25.5089 5.32533 25.7063 5.496C25.9036 5.66667 26.0583 5.88267 26.1703 6.144C26.2823 6.4 26.3383 6.70667 26.3383 7.064C26.3383 7.40533 26.2903 7.704 26.1943 7.96C26.0983 8.216 25.9623 8.432 25.7863 8.608C25.6103 8.77867 25.3969 8.90667 25.1463 8.992C24.9009 9.07733 24.6263 9.12 24.3223 9.12C24.0929 9.12 23.8796 9.08533 23.6823 9.016V10.344C23.6289 10.36 23.5436 10.376 23.4263 10.392C23.3089 10.4133 23.1889 10.424 23.0663 10.424C22.9489 10.424 22.8423 10.416 22.7463 10.4C22.6556 10.384 22.5783 10.352 22.5143 10.304C22.4503 10.256 22.4023 10.1893 22.3703 10.104C22.3383 10.024 22.3223 9.91733 22.3223 9.784V5.944C22.3223 5.8 22.3516 5.68267 22.4103 5.592C22.4743 5.50133 22.5596 5.41867 22.6663 5.344C22.8316 5.23733 23.0369 5.152 23.2823 5.088C23.5276 5.024 23.8023 4.992 24.1063 4.992ZM24.1223 8.048C24.6716 8.048 24.9463 7.72 24.9463 7.064C24.9463 6.72267 24.8769 6.46933 24.7383 6.304C24.6049 6.13867 24.4103 6.056 24.1543 6.056C24.0529 6.056 23.9623 6.06933 23.8823 6.096C23.8023 6.11733 23.7329 6.144 23.6743 6.176V7.936C23.7383 7.968 23.8076 7.99467 23.8823 8.016C23.9569 8.03733 24.0369 8.048 24.1223 8.048ZM31.0259 7.056C31.0259 7.38667 30.9753 7.68267 30.8739 7.944C30.7726 8.2 30.6286 8.416 30.4419 8.592C30.2606 8.768 30.0419 8.90133 29.7859 8.992C29.5299 9.08267 29.2446 9.128 28.9299 9.128C28.6153 9.128 28.3299 9.08 28.0739 8.984C27.8179 8.888 27.5966 8.752 27.4099 8.576C27.2286 8.39467 27.0873 8.176 26.9859 7.92C26.8846 7.664 26.8339 7.376 26.8339 7.056C26.8339 6.74133 26.8846 6.456 26.9859 6.2C27.0873 5.944 27.2286 5.728 27.4099 5.552C27.5966 5.37067 27.8179 5.232 28.0739 5.136C28.3299 5.04 28.6153 4.992 28.9299 4.992C29.2446 4.992 29.5299 5.04267 29.7859 5.144C30.0419 5.24 30.2606 5.37867 30.4419 5.56C30.6286 5.736 30.7726 5.952 30.8739 6.208C30.9753 6.464 31.0259 6.74667 31.0259 7.056ZM28.2259 7.056C28.2259 7.38133 28.2873 7.632 28.4099 7.808C28.5379 7.97867 28.7139 8.064 28.9379 8.064C29.1619 8.064 29.3326 7.976 29.4499 7.8C29.5726 7.624 29.6339 7.376 29.6339 7.056C29.6339 6.736 29.5726 6.49067 29.4499 6.32C29.3273 6.144 29.1539 6.056 28.9299 6.056C28.7059 6.056 28.5326 6.144 28.4099 6.32C28.2873 6.49067 28.2259 6.736 28.2259 7.056ZM31.6574 4.032C31.6574 3.82933 31.7241 3.65867 31.8574 3.52C31.9961 3.38133 32.1774 3.312 32.4014 3.312C32.6254 3.312 32.8041 3.38133 32.9374 3.52C33.0761 3.65867 33.1454 3.82933 33.1454 4.032C33.1454 4.23467 33.0761 4.40533 32.9374 4.544C32.8041 4.68267 32.6254 4.752 32.4014 4.752C32.1774 4.752 31.9961 4.68267 31.8574 4.544C31.7241 4.40533 31.6574 4.23467 31.6574 4.032ZM33.0814 8.992C33.0228 9.00267 32.9348 9.016 32.8174 9.032C32.7054 9.05333 32.5908 9.064 32.4734 9.064C32.3561 9.064 32.2494 9.056 32.1534 9.04C32.0628 9.024 31.9854 8.992 31.9214 8.944C31.8574 8.896 31.8068 8.832 31.7694 8.752C31.7374 8.66667 31.7214 8.55733 31.7214 8.424V5.168C31.7801 5.15733 31.8654 5.144 31.9774 5.128C32.0948 5.10667 32.2121 5.096 32.3294 5.096C32.4468 5.096 32.5508 5.104 32.6414 5.12C32.7374 5.136 32.8174 5.168 32.8814 5.216C32.9454 5.264 32.9934 5.33067 33.0254 5.416C33.0628 5.496 33.0814 5.60267 33.0814 5.736V8.992ZM36.4113 6.536C36.4113 6.37067 36.3633 6.25067 36.2673 6.176C36.1766 6.096 36.0513 6.056 35.8913 6.056C35.7846 6.056 35.6779 6.06933 35.5713 6.096C35.4699 6.12267 35.3819 6.16267 35.3073 6.216V8.992C35.2539 9.008 35.1686 9.024 35.0513 9.04C34.9393 9.056 34.8219 9.064 34.6993 9.064C34.5819 9.064 34.4753 9.056 34.3793 9.04C34.2886 9.024 34.2113 8.992 34.1473 8.944C34.0833 8.896 34.0326 8.832 33.9953 8.752C33.9633 8.66667 33.9473 8.55733 33.9473 8.424V6.024C33.9473 5.88 33.9766 5.76267 34.0353 5.672C34.0993 5.58133 34.1846 5.49867 34.2913 5.424C34.4726 5.296 34.6993 5.192 34.9713 5.112C35.2486 5.032 35.5553 4.992 35.8913 4.992C36.4939 4.992 36.9579 5.12533 37.2833 5.392C37.6086 5.65333 37.7713 6.01867 37.7713 6.488V8.992C37.7179 9.008 37.6326 9.024 37.5153 9.04C37.4033 9.056 37.2859 9.064 37.1633 9.064C37.0459 9.064 36.9393 9.056 36.8433 9.04C36.7526 9.024 36.6753 8.992 36.6113 8.944C36.5473 8.896 36.4966 8.832 36.4593 8.752C36.4273 8.66667 36.4113 8.55733 36.4113 8.424V6.536ZM39.9713 7.664C39.9713 7.80267 40.014 7.90133 40.0993 7.96C40.19 8.01867 40.3153 8.048 40.4753 8.048C40.5553 8.048 40.638 8.04267 40.7233 8.032C40.8086 8.016 40.8833 7.99733 40.9473 7.976C40.9953 8.03467 41.0353 8.10133 41.0673 8.176C41.1046 8.24533 41.1233 8.33067 41.1233 8.432C41.1233 8.63467 41.046 8.8 40.8913 8.928C40.742 9.056 40.4753 9.12 40.0913 9.12C39.622 9.12 39.2593 9.01333 39.0033 8.8C38.7526 8.58667 38.6273 8.24 38.6273 7.76V4.336C38.686 4.32 38.7686 4.304 38.8753 4.288C38.9873 4.26667 39.1046 4.256 39.2273 4.256C39.462 4.256 39.6433 4.29867 39.7713 4.384C39.9046 4.464 39.9713 4.63733 39.9713 4.904V5.416H41.0193C41.0513 5.47467 41.0806 5.54933 41.1073 5.64C41.1393 5.72533 41.1553 5.82133 41.1553 5.928C41.1553 6.11467 41.1126 6.25067 41.0273 6.336C40.9473 6.416 40.838 6.456 40.6993 6.456H39.9713V7.664ZM45.0944 7.84C45.0944 8.24533 44.9424 8.56267 44.6384 8.792C44.3344 9.02133 43.8864 9.136 43.2944 9.136C43.0704 9.136 42.8624 9.12 42.6704 9.088C42.4784 9.056 42.3131 9.008 42.1744 8.944C42.0411 8.87467 41.9344 8.78933 41.8544 8.688C41.7798 8.58667 41.7424 8.46667 41.7424 8.328C41.7424 8.2 41.7691 8.09333 41.8224 8.008C41.8758 7.91733 41.9398 7.84267 42.0144 7.784C42.1691 7.86933 42.3451 7.94667 42.5424 8.016C42.7451 8.08 42.9771 8.112 43.2384 8.112C43.4038 8.112 43.5291 8.088 43.6144 8.04C43.7051 7.992 43.7504 7.928 43.7504 7.848C43.7504 7.77333 43.7184 7.71467 43.6544 7.672C43.5904 7.62933 43.4838 7.59467 43.3344 7.568L43.0944 7.52C42.6304 7.42933 42.2838 7.288 42.0544 7.096C41.8304 6.89867 41.7184 6.61867 41.7184 6.256C41.7184 6.05867 41.7611 5.88 41.8464 5.72C41.9318 5.56 42.0518 5.42667 42.2064 5.32C42.3611 5.21333 42.5451 5.13067 42.7584 5.072C42.9771 5.01333 43.2171 4.984 43.4784 4.984C43.6758 4.984 43.8598 5 44.0304 5.032C44.2064 5.05867 44.3584 5.10133 44.4864 5.16C44.6144 5.21867 44.7158 5.296 44.7904 5.392C44.8651 5.48267 44.9024 5.592 44.9024 5.72C44.9024 5.84267 44.8784 5.94933 44.8304 6.04C44.7878 6.12533 44.7318 6.19733 44.6624 6.256C44.6198 6.22933 44.5558 6.20267 44.4704 6.176C44.3851 6.144 44.2918 6.11733 44.1904 6.096C44.0891 6.06933 43.9851 6.048 43.8784 6.032C43.7771 6.016 43.6838 6.008 43.5984 6.008C43.4224 6.008 43.2864 6.02933 43.1904 6.072C43.0944 6.10933 43.0464 6.17067 43.0464 6.256C43.0464 6.31467 43.0731 6.36267 43.1264 6.4C43.1798 6.43733 43.2811 6.472 43.4304 6.504L43.6784 6.56C44.1904 6.67733 44.5531 6.84 44.7664 7.048C44.9851 7.25067 45.0944 7.51467 45.0944 7.84Z" fill="#333848"/>
</svg>
