<svg width="253" height="100" viewBox="0 0 253 100" fill="none" xmlns="http://www.w3.org/2000/svg">
<g filter="url(#filter0_d_232_1691)">
<rect x="56.4805" y="40.9369" width="92" height="38" rx="8" fill="url(#paint0_linear_232_1691)"/>
<path d="M90.712 66.936C90.5947 66.968 90.408 67 90.152 67.032C89.9067 67.064 89.6613 67.08 89.416 67.08C89.1707 67.08 88.952 67.0587 88.76 67.016C88.5787 66.984 88.424 66.92 88.296 66.824C88.168 66.728 88.072 66.5947 88.008 66.424C87.944 66.2533 87.912 66.0293 87.912 65.752V63.256H84.84V66.936C84.7227 66.968 84.536 67 84.28 67.032C84.0347 67.064 83.7893 67.08 83.544 67.08C83.2987 67.08 83.08 67.0587 82.888 67.016C82.7067 66.984 82.552 66.92 82.424 66.824C82.296 66.728 82.2 66.5947 82.136 66.424C82.072 66.2533 82.04 66.0293 82.04 65.752V57.304C82.1573 57.2827 82.344 57.256 82.6 57.224C82.856 57.1813 83.1013 57.16 83.336 57.16C83.5813 57.16 83.7947 57.1813 83.976 57.224C84.168 57.256 84.328 57.32 84.456 57.416C84.584 57.512 84.68 57.6453 84.744 57.816C84.808 57.9867 84.84 58.2107 84.84 58.488V61.048H87.912V57.304C88.0293 57.2827 88.216 57.256 88.472 57.224C88.728 57.1813 88.9733 57.16 89.208 57.16C89.4533 57.16 89.6667 57.1813 89.848 57.224C90.04 57.256 90.2 57.32 90.328 57.416C90.456 57.512 90.552 57.6453 90.616 57.816C90.68 57.9867 90.712 58.2107 90.712 58.488V66.936ZM100.63 63.112C100.63 63.7733 100.529 64.3653 100.326 64.888C100.123 65.4 99.8353 65.832 99.462 66.184C99.0993 66.536 98.662 66.8027 98.15 66.984C97.638 67.1653 97.0673 67.256 96.438 67.256C95.8087 67.256 95.238 67.16 94.726 66.968C94.214 66.776 93.7713 66.504 93.398 66.152C93.0353 65.7893 92.7527 65.352 92.55 64.84C92.3473 64.328 92.246 63.752 92.246 63.112C92.246 62.4827 92.3473 61.912 92.55 61.4C92.7527 60.888 93.0353 60.456 93.398 60.104C93.7713 59.7413 94.214 59.464 94.726 59.272C95.238 59.08 95.8087 58.984 96.438 58.984C97.0673 58.984 97.638 59.0853 98.15 59.288C98.662 59.48 99.0993 59.7573 99.462 60.12C99.8353 60.472 100.123 60.904 100.326 61.416C100.529 61.928 100.63 62.4933 100.63 63.112ZM95.03 63.112C95.03 63.7627 95.1527 64.264 95.398 64.616C95.654 64.9573 96.006 65.128 96.454 65.128C96.902 65.128 97.2433 64.952 97.478 64.6C97.7233 64.248 97.846 63.752 97.846 63.112C97.846 62.472 97.7233 61.9813 97.478 61.64C97.2327 61.288 96.886 61.112 96.438 61.112C95.99 61.112 95.6433 61.288 95.398 61.64C95.1527 61.9813 95.03 62.472 95.03 63.112ZM104.725 66.984C104.608 67.0053 104.432 67.032 104.197 67.064C103.973 67.1067 103.744 67.128 103.509 67.128C103.274 67.128 103.061 67.112 102.869 67.08C102.688 67.048 102.533 66.984 102.405 66.888C102.277 66.792 102.176 66.664 102.101 66.504C102.037 66.3333 102.005 66.1147 102.005 65.848V56.568C102.122 56.5467 102.293 56.52 102.517 56.488C102.752 56.4453 102.986 56.424 103.221 56.424C103.456 56.424 103.664 56.44 103.845 56.472C104.037 56.504 104.197 56.568 104.325 56.664C104.453 56.76 104.549 56.8933 104.613 57.064C104.688 57.224 104.725 57.4373 104.725 57.704V66.984ZM109.769 65.272C109.951 65.272 110.148 65.256 110.361 65.224C110.585 65.1813 110.751 65.128 110.857 65.064V63.784L109.705 63.88C109.407 63.9013 109.161 63.9653 108.969 64.072C108.777 64.1787 108.681 64.3387 108.681 64.552C108.681 64.7653 108.761 64.9413 108.921 65.08C109.092 65.208 109.375 65.272 109.769 65.272ZM109.641 58.984C110.217 58.984 110.74 59.0427 111.209 59.16C111.689 59.2773 112.095 59.4587 112.425 59.704C112.767 59.9387 113.028 60.2427 113.209 60.616C113.391 60.9787 113.481 61.4107 113.481 61.912V65.496C113.481 65.7733 113.401 66.0027 113.241 66.184C113.092 66.3547 112.911 66.504 112.697 66.632C112.004 67.048 111.028 67.256 109.769 67.256C109.204 67.256 108.692 67.2027 108.233 67.096C107.785 66.9893 107.396 66.8293 107.065 66.616C106.745 66.4027 106.495 66.1307 106.313 65.8C106.143 65.4693 106.057 65.0853 106.057 64.648C106.057 63.912 106.276 63.3467 106.713 62.952C107.151 62.5573 107.828 62.312 108.745 62.216L110.841 61.992V61.88C110.841 61.5707 110.703 61.352 110.425 61.224C110.159 61.0853 109.769 61.016 109.257 61.016C108.852 61.016 108.457 61.0587 108.073 61.144C107.689 61.2293 107.343 61.336 107.033 61.464C106.895 61.368 106.777 61.224 106.681 61.032C106.585 60.8293 106.537 60.6213 106.537 60.408C106.537 60.1307 106.601 59.912 106.729 59.752C106.868 59.5813 107.076 59.4373 107.353 59.32C107.663 59.2027 108.025 59.1173 108.441 59.064C108.868 59.0107 109.268 58.984 109.641 58.984ZM118.105 57.72C118.105 57.9653 118.099 58.3227 118.089 58.792C118.078 59.2507 118.057 59.752 118.025 60.296C117.993 60.8293 117.95 61.368 117.897 61.912C117.843 62.4453 117.779 62.9093 117.705 63.304C117.662 63.336 117.598 63.368 117.513 63.4C117.427 63.432 117.337 63.4587 117.241 63.48C117.145 63.5013 117.049 63.5173 116.953 63.528C116.857 63.5387 116.771 63.544 116.697 63.544C116.387 63.544 116.126 63.496 115.913 63.4C115.71 63.304 115.582 63.1173 115.529 62.84C115.475 62.5947 115.427 62.2213 115.385 61.72C115.353 61.2187 115.321 60.6747 115.289 60.088C115.257 59.5013 115.23 58.92 115.209 58.344C115.198 57.768 115.193 57.2773 115.193 56.872C115.406 56.7547 115.646 56.664 115.913 56.6C116.19 56.5253 116.462 56.488 116.729 56.488C117.166 56.488 117.502 56.5893 117.737 56.792C117.982 56.9947 118.105 57.304 118.105 57.72ZM115.161 65.784C115.161 65.3467 115.294 64.9893 115.561 64.712C115.838 64.424 116.217 64.28 116.697 64.28C117.177 64.28 117.55 64.424 117.817 64.712C118.094 64.9893 118.233 65.3467 118.233 65.784C118.233 66.2213 118.094 66.584 117.817 66.872C117.55 67.1493 117.177 67.288 116.697 67.288C116.217 67.288 115.838 67.1493 115.561 66.872C115.294 66.584 115.161 66.2213 115.161 65.784Z" fill="#333848"/>
<g filter="url(#filter1_i_232_1691)">
<circle cx="138.48" cy="49.9369" r="4" fill="#D9D9D9"/>
</g>
</g>
<g filter="url(#filter2_d_232_1691)">
<g clip-path="url(#clip0_232_1691)">
<rect x="117.06" width="92" height="38" rx="8" transform="rotate(25 117.06 0)" fill="url(#paint1_linear_232_1691)"/>
<path d="M137.426 29.64C136.681 29.2929 136.005 29.2541 135.397 29.5236C134.789 29.7931 134.291 30.3436 133.903 31.175C133.511 32.016 133.426 32.7652 133.649 33.4224C133.882 34.0841 134.371 34.5885 135.115 34.9357C135.511 35.1205 135.87 35.2228 136.19 35.2427C136.52 35.2671 136.842 35.2702 137.157 35.2521C137.258 35.4641 137.307 35.687 137.304 35.9209C137.315 36.1497 137.262 36.3897 137.145 36.6411C136.96 37.0375 136.58 37.2721 136.004 37.3451C135.443 37.4129 134.713 37.2372 133.814 36.818C133.166 36.516 132.6 36.1401 132.115 35.6905C131.63 35.2408 131.263 34.7283 131.014 34.153C130.769 33.5679 130.656 32.9268 130.675 32.2295C130.708 31.5271 130.914 30.7699 131.293 29.9578C131.644 29.2038 132.069 28.5957 132.567 28.1335C133.079 27.6662 133.631 27.329 134.222 27.122C134.822 26.9194 135.445 26.8452 136.091 26.8991C136.737 26.953 137.374 27.1265 138.002 27.4195C138.891 27.8343 139.51 28.2993 139.858 28.8147C140.216 29.3347 140.289 29.8218 140.077 30.2762C139.96 30.5275 139.796 30.7157 139.584 30.8408C139.373 30.9659 139.16 31.0433 138.947 31.073C138.772 30.7914 138.566 30.525 138.331 30.2738C138.104 30.027 137.803 29.8158 137.426 29.64ZM141.909 29.312C142.08 28.9446 142.345 28.6916 142.704 28.5529C143.073 28.4188 143.46 28.4464 143.866 28.6357C144.272 28.8251 144.537 29.1017 144.662 29.4658C144.796 29.8344 144.777 30.2023 144.606 30.5697C144.435 30.937 144.165 31.1878 143.796 31.3219C143.437 31.4606 143.055 31.4352 142.649 31.2459C142.243 31.0566 141.973 30.7776 141.839 30.4091C141.714 30.045 141.738 29.6793 141.909 29.312ZM140.298 39.5061C140.182 39.4759 140.012 39.4257 139.785 39.3555C139.564 39.2995 139.347 39.2219 139.135 39.1227C138.922 39.0236 138.736 38.9189 138.575 38.8088C138.424 38.7031 138.311 38.5798 138.236 38.4387C138.16 38.2976 138.122 38.1387 138.122 37.9622C138.137 37.7804 138.2 37.5687 138.313 37.3271L141.065 31.4252C141.18 31.4554 141.346 31.5034 141.563 31.5691C141.793 31.6296 142.015 31.7094 142.228 31.8086C142.44 31.9077 142.622 32.0102 142.773 32.1158C142.933 32.2259 143.051 32.3516 143.127 32.4927C143.202 32.6338 143.233 32.7952 143.219 32.9769C143.219 33.1535 143.163 33.3626 143.05 33.6043L140.298 39.5061ZM145.607 40.0928C145.771 40.1695 145.957 40.2384 146.164 40.2995C146.385 40.3555 146.557 40.3771 146.681 40.3641L147.222 39.2041L146.137 38.8042C145.857 38.6973 145.608 38.6516 145.389 38.6672C145.17 38.6827 145.015 38.7871 144.925 38.9805C144.835 39.1738 144.833 39.3671 144.919 39.5604C145.02 39.7486 145.249 39.926 145.607 40.0928ZM148.148 34.3399C148.67 34.5833 149.119 34.8574 149.495 35.1621C149.88 35.4712 150.171 35.8069 150.367 36.169C150.577 36.5259 150.686 36.9119 150.692 37.3269C150.703 37.7322 150.603 38.162 150.391 38.6164L148.876 41.8646C148.759 42.116 148.59 42.29 148.368 42.3867C148.161 42.4783 147.933 42.537 147.686 42.5628C146.882 42.6468 145.909 42.4229 144.768 41.8909C144.256 41.652 143.815 41.3873 143.444 41.0968C143.083 40.8108 142.798 40.5012 142.588 40.1682C142.388 39.8396 142.276 39.4871 142.252 39.1108C142.237 38.739 142.322 38.3549 142.506 37.9585C142.817 37.2915 143.254 36.8715 143.818 36.6987C144.381 36.5258 145.098 36.5897 145.97 36.8904L147.965 37.5732L148.012 37.4717C148.143 37.1913 148.109 36.9346 147.912 36.7013C147.729 36.463 147.406 36.2356 146.941 36.0192C146.574 35.8479 146.198 35.7198 145.814 35.6348C145.43 35.5499 145.071 35.5001 144.737 35.4853C144.651 35.3397 144.606 35.1596 144.6 34.945C144.599 34.7208 144.643 34.512 144.733 34.3187C144.85 34.0673 145.001 33.8962 145.185 33.8053C145.382 33.7092 145.632 33.6666 145.933 33.6774C146.263 33.7018 146.627 33.7778 147.027 33.9052C147.436 34.0372 147.81 34.1821 148.148 34.3399ZM158.685 43.8081C158.406 44.4074 158.064 44.9011 157.659 45.2892C157.259 45.6676 156.815 45.9374 156.328 46.0986C155.851 46.2644 155.342 46.3212 154.801 46.2692C154.26 46.2172 153.705 46.0582 153.135 45.7922C152.564 45.5262 152.088 45.198 151.705 44.8077C151.322 44.4173 151.036 43.9837 150.846 43.5069C150.671 43.0249 150.599 42.5091 150.632 41.9594C150.665 41.4097 150.816 40.8449 151.087 40.2648C151.353 39.6945 151.686 39.2201 152.086 38.8417C152.486 38.4633 152.925 38.1913 153.402 38.0255C153.894 37.8546 154.412 37.7903 154.957 37.8327C155.502 37.8751 156.06 38.0292 156.631 38.2952C157.201 38.5612 157.675 38.8942 158.054 39.2943C158.437 39.6846 158.716 40.1208 158.891 40.6028C159.081 41.0796 159.159 41.5928 159.126 42.1425C159.094 42.6922 158.947 43.2474 158.685 43.8081ZM153.61 41.4414C153.335 42.0311 153.234 42.5373 153.308 42.96C153.396 43.3776 153.642 43.681 154.048 43.8703C154.454 44.0597 154.838 44.0444 155.2 43.8246C155.571 43.6092 155.892 43.2115 156.162 42.6315C156.432 42.0515 156.529 41.5549 156.451 41.1419C156.377 40.7192 156.137 40.4132 155.731 40.2238C155.325 40.0345 154.937 40.0475 154.565 40.2628C154.199 40.4685 153.88 40.8614 153.61 41.4414ZM164.849 40.733C164.746 40.9554 164.59 41.277 164.382 41.6978C164.178 42.109 163.947 42.5544 163.688 43.0339C163.434 43.5037 163.167 43.9739 162.889 44.4444C162.615 44.9052 162.361 45.2987 162.127 45.6248C162.075 45.6358 162.003 45.6377 161.912 45.6307C161.821 45.6236 161.728 45.6094 161.632 45.5882C161.536 45.567 161.442 45.5409 161.351 45.51C161.259 45.4791 161.18 45.4479 161.112 45.4163C160.832 45.2856 160.615 45.1316 160.462 44.9545C160.319 44.7818 160.282 44.5585 160.351 44.2847C160.406 44.0398 160.52 43.6811 160.694 43.2087C160.877 42.7408 161.077 42.2343 161.296 41.6891C161.515 41.1438 161.737 40.6057 161.961 40.0747C162.195 39.5481 162.397 39.1012 162.568 38.7338C162.811 38.7176 163.067 38.7369 163.336 38.7916C163.619 38.8411 163.881 38.9222 164.123 39.0349C164.519 39.2198 164.781 39.4536 164.908 39.7364C165.045 40.0238 165.025 40.356 164.849 40.733ZM158.773 46.7973C158.958 46.4009 159.23 46.1334 159.589 45.9948C159.962 45.851 160.366 45.8805 160.801 46.0834C161.236 46.2862 161.513 46.5745 161.633 46.9482C161.767 47.3168 161.742 47.6992 161.557 48.0956C161.372 48.4919 161.094 48.762 160.72 48.9058C160.362 49.0445 159.965 49.0124 159.53 48.8095C159.095 48.6067 158.81 48.321 158.676 47.9524C158.556 47.5787 158.588 47.1937 158.773 46.7973Z" fill="#333848"/>
<g filter="url(#filter3_i_232_1691)">
<circle cx="187.573" cy="42.8115" r="4" transform="rotate(25 187.573 42.8115)" fill="#D9D9D9"/>
</g>
</g>
</g>
<g filter="url(#filter4_d_232_1691)">
<g clip-path="url(#clip1_232_1691)">
<rect x="3" y="22.9756" width="92" height="38" rx="8" transform="rotate(-10 3 22.9756)" fill="url(#paint2_linear_232_1691)"/>
<path d="M33.2307 40.1308C32.7407 40.0548 32.2927 39.9713 31.8868 39.8804C31.479 39.779 31.1181 39.6368 30.8043 39.4539C30.4904 39.271 30.2269 39.0358 30.0138 38.7485C29.8093 38.4487 29.6663 38.0678 29.5848 37.6056C29.4274 36.7127 29.6428 35.9382 30.2311 35.282C30.83 34.6241 31.7492 34.1858 32.9887 33.9672C33.4404 33.8876 33.8662 33.845 34.2659 33.8395C34.6657 33.834 35.0142 33.8754 35.3114 33.9638C35.6173 34.0399 35.8675 34.1691 36.0621 34.3514C36.2549 34.5232 36.3753 34.7456 36.4235 35.0188C36.4716 35.2919 36.4503 35.5393 36.3594 35.7612C36.2667 35.9725 36.1431 36.1621 35.9886 36.3302C35.7316 36.2239 35.3995 36.1525 34.9923 36.1159C34.5832 36.0689 34.1476 36.0862 33.6854 36.1677C33.2127 36.251 32.8781 36.3804 32.6816 36.5559C32.4832 36.7208 32.4016 36.9031 32.4368 37.1027C32.4646 37.2603 32.556 37.3795 32.7111 37.4605C32.8643 37.531 33.0849 37.5841 33.3728 37.62L34.2552 37.7406C35.2982 37.8817 36.1258 38.1527 36.7381 38.5538C37.3591 38.9426 37.7436 39.5571 37.8918 40.3975C38.0492 41.2904 37.8251 42.0773 37.2195 42.7581C36.612 43.4284 35.6255 43.884 34.2599 44.1248C33.7767 44.21 33.3175 44.2476 32.8825 44.2377C32.4599 44.2364 32.078 44.19 31.737 44.0985C31.4046 43.9946 31.1296 43.8482 30.9121 43.6591C30.7033 43.4576 30.573 43.2098 30.5211 42.9157C30.4674 42.611 30.5113 42.3379 30.6528 42.0963C30.7925 41.8443 30.9572 41.6419 31.1469 41.4893C31.4818 41.6686 31.8742 41.8052 32.324 41.8992C32.7843 41.9913 33.2666 41.9929 33.7708 41.904C34.2855 41.8132 34.634 41.6705 34.8164 41.4759C34.9987 41.2813 35.0713 41.079 35.0342 40.8689C34.9972 40.6588 34.8854 40.516 34.6988 40.4406C34.5103 40.3547 34.2545 40.2861 33.9314 40.2347L33.2307 40.1308ZM42.7951 40.6052C42.9737 40.5737 43.1653 40.5237 43.3698 40.4551C43.583 40.3742 43.7365 40.293 43.8305 40.2114L43.6082 38.9509L42.4904 39.2455C42.1999 39.3183 41.9695 39.424 41.7989 39.5624C41.6283 39.7007 41.5616 39.875 41.5986 40.0851C41.6357 40.2952 41.745 40.4546 41.9267 40.5634C42.117 40.6598 42.4064 40.6737 42.7951 40.6052ZM41.5772 34.435C42.1444 34.3349 42.6693 34.302 43.1519 34.336C43.645 34.3682 44.0756 34.4764 44.4439 34.6606C44.8208 34.8324 45.1309 35.0864 45.3743 35.4226C45.6159 35.7483 45.7802 36.1579 45.8673 36.6517L46.4896 40.1812C46.5378 40.4543 46.4988 40.6941 46.3727 40.9004C46.2553 41.0944 46.1027 41.273 45.9148 41.4361C45.3042 41.9662 44.3792 42.3405 43.1396 42.5591C42.5829 42.6572 42.0694 42.6936 41.5992 42.6682C41.1395 42.641 40.7283 42.551 40.3656 42.3983C40.0134 42.2438 39.7193 42.0195 39.4833 41.7253C39.2578 41.4293 39.1071 41.066 39.0312 40.6353C38.9033 39.9104 39.0205 39.3157 39.3827 38.8511C39.7448 38.3865 40.3693 38.0273 41.256 37.7734L43.2813 37.1889L43.2618 37.0786C43.2081 36.7739 43.0336 36.5827 42.7382 36.5048C42.4515 36.4145 42.0561 36.4139 41.5518 36.5028C41.1527 36.5732 40.7714 36.6837 40.4081 36.8344C40.0447 36.9851 39.7218 37.1504 39.4394 37.3302C39.2862 37.2597 39.1456 37.1383 39.0178 36.9658C38.888 36.7829 38.8046 36.5864 38.7676 36.3763C38.7194 36.1032 38.7445 35.8767 38.8428 35.697C38.9497 35.5048 39.1295 35.3269 39.3823 35.1632C39.6665 34.9939 40.0089 34.8469 40.4093 34.7221C40.8202 34.5955 41.2095 34.4998 41.5772 34.435ZM51.1118 40.8772C51 40.9185 50.8313 40.9754 50.6057 41.0476C50.3925 41.1285 50.1704 41.1894 49.9393 41.2301C49.7082 41.2709 49.4953 41.2922 49.3007 41.294C49.1165 41.294 48.9531 41.2578 48.8104 41.1855C48.6677 41.1132 48.5456 41.0047 48.4443 40.8601C48.3517 40.7031 48.2822 40.4934 48.2359 40.2307L46.6244 31.0917C46.7363 31.0503 46.8997 30.9944 47.1147 30.924C47.3384 30.8413 47.5658 30.7795 47.7969 30.7388C48.028 30.698 48.2357 30.6776 48.4198 30.6777C48.6144 30.6758 48.7831 30.7111 48.9258 30.7834C49.0686 30.8557 49.1863 30.9703 49.2789 31.1273C49.3802 31.2719 49.4541 31.4755 49.5004 31.7381L51.1118 40.8772ZM51.4741 33.0473C51.5735 32.9973 51.7308 32.937 51.9458 32.8666C52.1714 32.7944 52.405 32.7369 52.6466 32.6943C52.8777 32.6536 53.0853 32.6332 53.2694 32.6332C53.4641 32.6314 53.6328 32.6667 53.7755 32.739C53.9182 32.8113 54.0359 32.9259 54.1286 33.0829C54.2299 33.2275 54.3037 33.4311 54.35 33.6937L54.9473 37.0815C55.0233 37.5121 55.183 37.8035 55.4264 37.9555C55.668 38.0971 55.9884 38.1327 56.3875 38.0623C56.6291 38.0197 56.8198 37.9644 56.9594 37.8964C57.1096 37.8266 57.223 37.7633 57.2996 37.7065L56.3272 32.1916C56.4267 32.1415 56.5839 32.0813 56.799 32.0109C57.0245 31.9386 57.2581 31.8812 57.4997 31.8386C57.7308 31.7978 57.9384 31.7775 58.1226 31.7775C58.3172 31.7757 58.4859 31.8109 58.6286 31.8832C58.7713 31.9556 58.889 32.0702 58.9817 32.2272C59.083 32.3718 59.1568 32.5754 59.2031 32.838L60.0478 37.6281C60.1404 38.1533 59.9892 38.5861 59.5943 38.9265C59.2674 39.2225 58.8568 39.4736 58.3624 39.6799C57.8804 39.8949 57.3401 40.0551 56.7413 40.1607C56.1741 40.2607 55.6377 40.2903 55.1323 40.2495C54.6373 40.2068 54.1934 40.0847 53.8004 39.8832C53.4075 39.6817 53.0803 39.3928 52.819 39.0164C52.5558 38.6296 52.3724 38.142 52.2687 37.5538L51.4741 33.0473ZM64.1906 35.874C64.2388 36.1472 64.3571 36.3267 64.5455 36.4126C64.7445 36.4967 65.0015 36.5109 65.3167 36.4553C65.4742 36.4275 65.6352 36.3883 65.7996 36.3377C65.9621 36.2765 66.1027 36.2138 66.2213 36.1496C66.3362 36.2485 66.4382 36.3659 66.5271 36.5018C66.6247 36.6254 66.6911 36.787 66.7263 36.9866C66.7967 37.3858 66.7018 37.7383 66.4416 38.0441C66.192 38.3481 65.689 38.5668 64.9326 38.7001C64.0082 38.8631 63.2569 38.779 62.6785 38.4477C62.1107 38.1146 61.7435 37.4753 61.5768 36.5299L60.3876 29.7859C60.4976 29.734 60.6549 29.6738 60.8594 29.6053C61.0726 29.5243 61.3 29.4626 61.5416 29.42C62.0038 29.3385 62.3758 29.3595 62.6575 29.4832C62.9479 29.5944 63.1395 29.9127 63.2321 30.4379L63.4099 31.4463L65.474 31.0824C65.5574 31.1868 65.6411 31.3237 65.7252 31.493C65.8178 31.65 65.8827 31.8335 65.9197 32.0436C65.9846 32.4112 65.9477 32.6939 65.8093 32.8916C65.6795 33.077 65.4781 33.1938 65.2049 33.2419L63.7711 33.4947L64.1906 35.874ZM69.5884 28.2123C69.631 28.4539 69.6878 28.8068 69.7588 29.2708C69.828 29.7244 69.894 30.2218 69.9569 30.7631C70.018 31.2939 70.0696 31.8318 70.1115 32.3768C70.1516 32.9112 70.1691 33.3793 70.1641 33.7809C70.1277 33.8199 70.0702 33.8625 69.9917 33.9088C69.9133 33.9552 69.8286 33.9972 69.7378 34.0348C69.6469 34.0725 69.5552 34.1049 69.4625 34.1321C69.3698 34.1593 69.2867 34.1794 69.2131 34.1923C68.9085 34.2461 68.6428 34.2442 68.416 34.1867C68.1998 34.1273 68.0413 33.9657 67.9406 33.7019C67.8455 33.4695 67.7334 33.1102 67.6043 32.6239C67.4858 32.1357 67.3598 31.6055 67.2264 31.0333C67.093 30.4611 66.9658 29.8933 66.8448 29.3297C66.7342 28.7643 66.6438 28.282 66.5734 27.8829C66.7631 27.7303 66.9837 27.5993 67.2352 27.49C67.4954 27.3683 67.7568 27.2843 68.0194 27.238C68.4501 27.162 68.7986 27.2035 69.0649 27.3623C69.3417 27.5193 69.5162 27.8026 69.5884 28.2123ZM68.0894 36.665C68.0135 36.2343 68.0828 35.8593 68.2972 35.5399C68.5203 35.2081 68.8682 35.0005 69.3409 34.9172C69.8136 34.8338 70.2063 34.9108 70.5189 35.1481C70.8402 35.3731 71.0388 35.7009 71.1148 36.1316C71.1907 36.5623 71.1171 36.9435 70.894 37.2753C70.6796 37.5947 70.336 37.7961 69.8633 37.8795C69.3906 37.9628 68.9936 37.892 68.6723 37.667C68.3597 37.4297 68.1654 37.0957 68.0894 36.665Z" fill="#333848"/>
<g filter="url(#filter5_i_232_1691)">
<circle cx="85.3174" cy="17.5998" r="4" transform="rotate(-10 85.3174 17.5998)" fill="#D9D9D9"/>
</g>
</g>
</g>
<g filter="url(#filter6_d_232_1691)">
<rect x="157" y="54" width="92" height="38" rx="8" fill="url(#paint3_linear_232_1691)"/>
<path d="M188.712 79.936C188.595 79.968 188.408 80 188.152 80.032C187.907 80.064 187.661 80.08 187.416 80.08C187.171 80.08 186.952 80.0587 186.76 80.016C186.579 79.984 186.424 79.92 186.296 79.824C186.168 79.728 186.072 79.5947 186.008 79.424C185.944 79.2533 185.912 79.0293 185.912 78.752V76.256H182.84V79.936C182.723 79.968 182.536 80 182.28 80.032C182.035 80.064 181.789 80.08 181.544 80.08C181.299 80.08 181.08 80.0587 180.888 80.016C180.707 79.984 180.552 79.92 180.424 79.824C180.296 79.728 180.2 79.5947 180.136 79.424C180.072 79.2533 180.04 79.0293 180.04 78.752V70.304C180.157 70.2827 180.344 70.256 180.6 70.224C180.856 70.1813 181.101 70.16 181.336 70.16C181.581 70.16 181.795 70.1813 181.976 70.224C182.168 70.256 182.328 70.32 182.456 70.416C182.584 70.512 182.68 70.6453 182.744 70.816C182.808 70.9867 182.84 71.2107 182.84 71.488V74.048H185.912V70.304C186.029 70.2827 186.216 70.256 186.472 70.224C186.728 70.1813 186.973 70.16 187.208 70.16C187.453 70.16 187.667 70.1813 187.848 70.224C188.04 70.256 188.2 70.32 188.328 70.416C188.456 70.512 188.552 70.6453 188.616 70.816C188.68 70.9867 188.712 71.2107 188.712 71.488V79.936ZM194.694 80.256C194.065 80.256 193.478 80.1707 192.934 80C192.401 79.8187 191.931 79.552 191.526 79.2C191.131 78.848 190.817 78.4053 190.582 77.872C190.358 77.3387 190.246 76.7147 190.246 76C190.246 75.296 190.358 74.6933 190.582 74.192C190.817 73.68 191.121 73.264 191.494 72.944C191.867 72.6133 192.294 72.3733 192.774 72.224C193.254 72.064 193.745 71.984 194.246 71.984C194.811 71.984 195.323 72.0693 195.782 72.24C196.251 72.4107 196.651 72.6453 196.982 72.944C197.323 73.2427 197.585 73.6 197.766 74.016C197.958 74.432 198.054 74.8853 198.054 75.376C198.054 75.7387 197.953 76.016 197.75 76.208C197.547 76.4 197.265 76.5227 196.902 76.576L192.95 77.168C193.067 77.52 193.307 77.7867 193.67 77.968C194.033 78.1387 194.449 78.224 194.918 78.224C195.355 78.224 195.766 78.1707 196.15 78.064C196.545 77.9467 196.865 77.8133 197.11 77.664C197.281 77.7707 197.425 77.92 197.542 78.112C197.659 78.304 197.718 78.5067 197.718 78.72C197.718 79.2 197.494 79.5573 197.046 79.792C196.705 79.9733 196.321 80.096 195.894 80.16C195.467 80.224 195.067 80.256 194.694 80.256ZM194.246 73.968C193.99 73.968 193.766 74.0107 193.574 74.096C193.393 74.1813 193.243 74.2933 193.126 74.432C193.009 74.56 192.918 74.7093 192.854 74.88C192.801 75.04 192.769 75.2053 192.758 75.376L195.494 74.928C195.462 74.7147 195.345 74.5013 195.142 74.288C194.939 74.0747 194.641 73.968 194.246 73.968ZM202.131 79.984C202.014 80.0053 201.838 80.032 201.603 80.064C201.379 80.1067 201.15 80.128 200.915 80.128C200.681 80.128 200.467 80.112 200.275 80.08C200.094 80.048 199.939 79.984 199.811 79.888C199.683 79.792 199.582 79.664 199.507 79.504C199.443 79.3333 199.411 79.1147 199.411 78.848V69.568C199.529 69.5467 199.699 69.52 199.923 69.488C200.158 69.4453 200.393 69.424 200.627 69.424C200.862 69.424 201.07 69.44 201.251 69.472C201.443 69.504 201.603 69.568 201.731 69.664C201.859 69.76 201.955 69.8933 202.019 70.064C202.094 70.224 202.131 70.4373 202.131 70.704V79.984ZM206.616 79.984C206.498 80.0053 206.322 80.032 206.088 80.064C205.864 80.1067 205.634 80.128 205.4 80.128C205.165 80.128 204.952 80.112 204.76 80.08C204.578 80.048 204.424 79.984 204.296 79.888C204.168 79.792 204.066 79.664 203.992 79.504C203.928 79.3333 203.896 79.1147 203.896 78.848V69.568C204.013 69.5467 204.184 69.52 204.408 69.488C204.642 69.4453 204.877 69.424 205.112 69.424C205.346 69.424 205.554 69.44 205.736 69.472C205.928 69.504 206.088 69.568 206.216 69.664C206.344 69.76 206.44 69.8933 206.504 70.064C206.578 70.224 206.616 70.4373 206.616 70.704V79.984ZM216.38 76.112C216.38 76.7733 216.279 77.3653 216.076 77.888C215.873 78.4 215.585 78.832 215.212 79.184C214.849 79.536 214.412 79.8027 213.9 79.984C213.388 80.1653 212.817 80.256 212.188 80.256C211.559 80.256 210.988 80.16 210.476 79.968C209.964 79.776 209.521 79.504 209.148 79.152C208.785 78.7893 208.503 78.352 208.3 77.84C208.097 77.328 207.996 76.752 207.996 76.112C207.996 75.4827 208.097 74.912 208.3 74.4C208.503 73.888 208.785 73.456 209.148 73.104C209.521 72.7413 209.964 72.464 210.476 72.272C210.988 72.08 211.559 71.984 212.188 71.984C212.817 71.984 213.388 72.0853 213.9 72.288C214.412 72.48 214.849 72.7573 215.212 73.12C215.585 73.472 215.873 73.904 216.076 74.416C216.279 74.928 216.38 75.4933 216.38 76.112ZM210.78 76.112C210.78 76.7627 210.903 77.264 211.148 77.616C211.404 77.9573 211.756 78.128 212.204 78.128C212.652 78.128 212.993 77.952 213.228 77.6C213.473 77.248 213.596 76.752 213.596 76.112C213.596 75.472 213.473 74.9813 213.228 74.64C212.983 74.288 212.636 74.112 212.188 74.112C211.74 74.112 211.393 74.288 211.148 74.64C210.903 74.9813 210.78 75.472 210.78 76.112ZM220.667 70.72C220.667 70.9653 220.662 71.3227 220.651 71.792C220.64 72.2507 220.619 72.752 220.587 73.296C220.555 73.8293 220.512 74.368 220.459 74.912C220.406 75.4453 220.342 75.9093 220.267 76.304C220.224 76.336 220.16 76.368 220.075 76.4C219.99 76.432 219.899 76.4587 219.803 76.48C219.707 76.5013 219.611 76.5173 219.515 76.528C219.419 76.5387 219.334 76.544 219.259 76.544C218.95 76.544 218.688 76.496 218.475 76.4C218.272 76.304 218.144 76.1173 218.091 75.84C218.038 75.5947 217.99 75.2213 217.947 74.72C217.915 74.2187 217.883 73.6747 217.851 73.088C217.819 72.5013 217.792 71.92 217.771 71.344C217.76 70.768 217.755 70.2773 217.755 69.872C217.968 69.7547 218.208 69.664 218.475 69.6C218.752 69.5253 219.024 69.488 219.291 69.488C219.728 69.488 220.064 69.5893 220.299 69.792C220.544 69.9947 220.667 70.304 220.667 70.72ZM217.723 78.784C217.723 78.3467 217.856 77.9893 218.123 77.712C218.4 77.424 218.779 77.28 219.259 77.28C219.739 77.28 220.112 77.424 220.379 77.712C220.656 77.9893 220.795 78.3467 220.795 78.784C220.795 79.2213 220.656 79.584 220.379 79.872C220.112 80.1493 219.739 80.288 219.259 80.288C218.779 80.288 218.4 80.1493 218.123 79.872C217.856 79.584 217.723 79.2213 217.723 78.784Z" fill="#333848"/>
<g filter="url(#filter7_i_232_1691)">
<circle cx="239" cy="63" r="4" fill="#D9D9D9"/>
</g>
</g>
<defs>
<filter id="filter0_d_232_1691" x="52.4805" y="40.9369" width="100" height="46" filterUnits="userSpaceOnUse" color-interpolation-filters="sRGB">
<feFlood flood-opacity="0" result="BackgroundImageFix"/>
<feColorMatrix in="SourceAlpha" type="matrix" values="0 0 0 0 0 0 0 0 0 0 0 0 0 0 0 0 0 0 127 0" result="hardAlpha"/>
<feOffset dy="4"/>
<feGaussianBlur stdDeviation="2"/>
<feComposite in2="hardAlpha" operator="out"/>
<feColorMatrix type="matrix" values="0 0 0 0 0 0 0 0 0 0 0 0 0 0 0 0 0 0 0.25 0"/>
<feBlend mode="normal" in2="BackgroundImageFix" result="effect1_dropShadow_232_1691"/>
<feBlend mode="normal" in="SourceGraphic" in2="effect1_dropShadow_232_1691" result="shape"/>
</filter>
<filter id="filter1_i_232_1691" x="134.48" y="45.9369" width="8" height="12" filterUnits="userSpaceOnUse" color-interpolation-filters="sRGB">
<feFlood flood-opacity="0" result="BackgroundImageFix"/>
<feBlend mode="normal" in="SourceGraphic" in2="BackgroundImageFix" result="shape"/>
<feColorMatrix in="SourceAlpha" type="matrix" values="0 0 0 0 0 0 0 0 0 0 0 0 0 0 0 0 0 0 127 0" result="hardAlpha"/>
<feOffset dy="4"/>
<feGaussianBlur stdDeviation="2"/>
<feComposite in2="hardAlpha" operator="arithmetic" k2="-1" k3="1"/>
<feColorMatrix type="matrix" values="0 0 0 0 0 0 0 0 0 0 0 0 0 0 0 0 0 0 0.25 0"/>
<feBlend mode="normal" in2="shape" result="effect1_innerShadow_232_1691"/>
</filter>
<filter id="filter2_d_232_1691" x="97" y="0" width="107.439" height="81.3206" filterUnits="userSpaceOnUse" color-interpolation-filters="sRGB">
<feFlood flood-opacity="0" result="BackgroundImageFix"/>
<feColorMatrix in="SourceAlpha" type="matrix" values="0 0 0 0 0 0 0 0 0 0 0 0 0 0 0 0 0 0 127 0" result="hardAlpha"/>
<feOffset dy="4"/>
<feGaussianBlur stdDeviation="2"/>
<feComposite in2="hardAlpha" operator="out"/>
<feColorMatrix type="matrix" values="0 0 0 0 0 0 0 0 0 0 0 0 0 0 0 0 0 0 0.25 0"/>
<feBlend mode="normal" in2="BackgroundImageFix" result="effect1_dropShadow_232_1691"/>
<feBlend mode="normal" in="SourceGraphic" in2="effect1_dropShadow_232_1691" result="shape"/>
</filter>
<filter id="filter3_i_232_1691" x="183.572" y="38.8105" width="8.00195" height="12.0019" filterUnits="userSpaceOnUse" color-interpolation-filters="sRGB">
<feFlood flood-opacity="0" result="BackgroundImageFix"/>
<feBlend mode="normal" in="SourceGraphic" in2="BackgroundImageFix" result="shape"/>
<feColorMatrix in="SourceAlpha" type="matrix" values="0 0 0 0 0 0 0 0 0 0 0 0 0 0 0 0 0 0 127 0" result="hardAlpha"/>
<feOffset dy="4"/>
<feGaussianBlur stdDeviation="2"/>
<feComposite in2="hardAlpha" operator="arithmetic" k2="-1" k3="1"/>
<feColorMatrix type="matrix" values="0 0 0 0 0 0 0 0 0 0 0 0 0 0 0 0 0 0 0.25 0"/>
<feBlend mode="normal" in2="shape" result="effect1_innerShadow_232_1691"/>
</filter>
<filter id="filter4_d_232_1691" x="-1" y="7.00002" width="105.201" height="61.3983" filterUnits="userSpaceOnUse" color-interpolation-filters="sRGB">
<feFlood flood-opacity="0" result="BackgroundImageFix"/>
<feColorMatrix in="SourceAlpha" type="matrix" values="0 0 0 0 0 0 0 0 0 0 0 0 0 0 0 0 0 0 127 0" result="hardAlpha"/>
<feOffset dy="4"/>
<feGaussianBlur stdDeviation="2"/>
<feComposite in2="hardAlpha" operator="out"/>
<feColorMatrix type="matrix" values="0 0 0 0 0 0 0 0 0 0 0 0 0 0 0 0 0 0 0.25 0"/>
<feBlend mode="normal" in2="BackgroundImageFix" result="effect1_dropShadow_232_1691"/>
<feBlend mode="normal" in="SourceGraphic" in2="effect1_dropShadow_232_1691" result="shape"/>
</filter>
<filter id="filter5_i_232_1691" x="81.3164" y="13.5991" width="8.00195" height="12.0013" filterUnits="userSpaceOnUse" color-interpolation-filters="sRGB">
<feFlood flood-opacity="0" result="BackgroundImageFix"/>
<feBlend mode="normal" in="SourceGraphic" in2="BackgroundImageFix" result="shape"/>
<feColorMatrix in="SourceAlpha" type="matrix" values="0 0 0 0 0 0 0 0 0 0 0 0 0 0 0 0 0 0 127 0" result="hardAlpha"/>
<feOffset dy="4"/>
<feGaussianBlur stdDeviation="2"/>
<feComposite in2="hardAlpha" operator="arithmetic" k2="-1" k3="1"/>
<feColorMatrix type="matrix" values="0 0 0 0 0 0 0 0 0 0 0 0 0 0 0 0 0 0 0.25 0"/>
<feBlend mode="normal" in2="shape" result="effect1_innerShadow_232_1691"/>
</filter>
<filter id="filter6_d_232_1691" x="153" y="54" width="100" height="46" filterUnits="userSpaceOnUse" color-interpolation-filters="sRGB">
<feFlood flood-opacity="0" result="BackgroundImageFix"/>
<feColorMatrix in="SourceAlpha" type="matrix" values="0 0 0 0 0 0 0 0 0 0 0 0 0 0 0 0 0 0 127 0" result="hardAlpha"/>
<feOffset dy="4"/>
<feGaussianBlur stdDeviation="2"/>
<feComposite in2="hardAlpha" operator="out"/>
<feColorMatrix type="matrix" values="0 0 0 0 0 0 0 0 0 0 0 0 0 0 0 0 0 0 0.25 0"/>
<feBlend mode="normal" in2="BackgroundImageFix" result="effect1_dropShadow_232_1691"/>
<feBlend mode="normal" in="SourceGraphic" in2="effect1_dropShadow_232_1691" result="shape"/>
</filter>
<filter id="filter7_i_232_1691" x="235" y="59" width="8" height="12" filterUnits="userSpaceOnUse" color-interpolation-filters="sRGB">
<feFlood flood-opacity="0" result="BackgroundImageFix"/>
<feBlend mode="normal" in="SourceGraphic" in2="BackgroundImageFix" result="shape"/>
<feColorMatrix in="SourceAlpha" type="matrix" values="0 0 0 0 0 0 0 0 0 0 0 0 0 0 0 0 0 0 127 0" result="hardAlpha"/>
<feOffset dy="4"/>
<feGaussianBlur stdDeviation="2"/>
<feComposite in2="hardAlpha" operator="arithmetic" k2="-1" k3="1"/>
<feColorMatrix type="matrix" values="0 0 0 0 0 0 0 0 0 0 0 0 0 0 0 0 0 0 0.25 0"/>
<feBlend mode="normal" in2="shape" result="effect1_innerShadow_232_1691"/>
</filter>
<linearGradient id="paint0_linear_232_1691" x1="60.7035" y1="44.2994" x2="159.034" y2="73.4805" gradientUnits="userSpaceOnUse">
<stop stop-color="#FF711F"/>
<stop offset="1" stop-color="white"/>
</linearGradient>
<linearGradient id="paint1_linear_232_1691" x1="121.283" y1="3.36251" x2="219.613" y2="32.5437" gradientUnits="userSpaceOnUse">
<stop stop-color="#FF711F"/>
<stop offset="1" stop-color="white"/>
</linearGradient>
<linearGradient id="paint2_linear_232_1691" x1="7.22301" y1="26.3382" x2="105.554" y2="55.5193" gradientUnits="userSpaceOnUse">
<stop stop-color="#FF711F"/>
<stop offset="1" stop-color="white"/>
</linearGradient>
<linearGradient id="paint3_linear_232_1691" x1="161.223" y1="57.3625" x2="259.554" y2="86.5437" gradientUnits="userSpaceOnUse">
<stop stop-color="#FF711F"/>
<stop offset="1" stop-color="white"/>
</linearGradient>
<clipPath id="clip0_232_1691">
<rect x="117.06" width="92" height="38" rx="8" transform="rotate(25 117.06 0)" fill="white"/>
</clipPath>
<clipPath id="clip1_232_1691">
<rect x="3" y="22.9756" width="92" height="38" rx="8" transform="rotate(-10 3 22.9756)" fill="white"/>
</clipPath>
</defs>
</svg>
