<svg width="165" height="171" viewBox="0 0 165 171" fill="none" xmlns="http://www.w3.org/2000/svg">
<g filter="url(#filter0_d_232_1498)">
<rect x="9" y="12" width="143.892" height="148" rx="8" fill="white"/>
<path d="M29.3389 30.0469V40H27.2949V30.0469H29.3389ZM32.4014 30.0469V31.6533H24.2803V30.0469H32.4014ZM36.4004 38.332V35.0371C36.4004 34.8001 36.3617 34.5973 36.2842 34.4287C36.2067 34.2555 36.0859 34.1211 35.9219 34.0254C35.7624 33.9297 35.555 33.8818 35.2998 33.8818C35.0811 33.8818 34.8919 33.9206 34.7324 33.998C34.5729 34.071 34.4499 34.1781 34.3633 34.3193C34.2767 34.4561 34.2334 34.6178 34.2334 34.8047H32.2646C32.2646 34.4902 32.3376 34.1917 32.4834 33.9092C32.6292 33.6266 32.8411 33.3783 33.1191 33.1641C33.3971 32.9453 33.7275 32.7744 34.1104 32.6514C34.4977 32.5283 34.9307 32.4668 35.4092 32.4668C35.9834 32.4668 36.4938 32.5625 36.9404 32.7539C37.387 32.9453 37.738 33.2324 37.9932 33.6152C38.2529 33.998 38.3828 34.4766 38.3828 35.0508V38.2158C38.3828 38.6214 38.4079 38.9541 38.458 39.2139C38.5081 39.4691 38.5811 39.6924 38.6768 39.8838V40H36.6875C36.5918 39.7995 36.5189 39.5488 36.4688 39.248C36.4232 38.9427 36.4004 38.6374 36.4004 38.332ZM36.6602 35.4951L36.6738 36.6094H35.5732C35.3135 36.6094 35.0879 36.639 34.8965 36.6982C34.7051 36.7575 34.5479 36.8418 34.4248 36.9512C34.3018 37.056 34.2106 37.179 34.1514 37.3203C34.0967 37.4616 34.0693 37.6165 34.0693 37.7852C34.0693 37.9538 34.1081 38.1064 34.1855 38.2432C34.263 38.3753 34.3747 38.4801 34.5205 38.5576C34.6663 38.6305 34.8372 38.667 35.0332 38.667C35.3294 38.667 35.5869 38.6077 35.8057 38.4893C36.0244 38.3708 36.193 38.2249 36.3115 38.0518C36.4346 37.8786 36.4984 37.7145 36.5029 37.5596L37.0225 38.3936C36.9495 38.5804 36.8493 38.7741 36.7217 38.9746C36.5986 39.1751 36.4414 39.3643 36.25 39.542C36.0586 39.7152 35.8285 39.8587 35.5596 39.9727C35.2907 40.082 34.9717 40.1367 34.6025 40.1367C34.1331 40.1367 33.707 40.0433 33.3242 39.8564C32.946 39.665 32.6452 39.403 32.4219 39.0703C32.2031 38.7331 32.0938 38.3503 32.0938 37.9219C32.0938 37.5345 32.1667 37.1904 32.3125 36.8896C32.4583 36.5889 32.6725 36.3359 32.9551 36.1309C33.2422 35.9212 33.5999 35.764 34.0283 35.6592C34.4567 35.5498 34.9535 35.4951 35.5186 35.4951H36.6602ZM43.8994 37.9561C43.8994 37.8148 43.8584 37.6872 43.7764 37.5732C43.6943 37.4593 43.5417 37.3545 43.3184 37.2588C43.0996 37.1585 42.7829 37.0674 42.3682 36.9854C41.9945 36.9033 41.6458 36.8008 41.3223 36.6777C41.0033 36.5501 40.7253 36.3975 40.4883 36.2197C40.2559 36.042 40.0736 35.8324 39.9414 35.5908C39.8092 35.3447 39.7432 35.0645 39.7432 34.75C39.7432 34.4401 39.8092 34.1484 39.9414 33.875C40.0781 33.6016 40.2718 33.36 40.5225 33.1504C40.7777 32.9362 41.0876 32.7699 41.4521 32.6514C41.8213 32.5283 42.236 32.4668 42.6963 32.4668C43.3389 32.4668 43.8903 32.5693 44.3506 32.7744C44.8154 32.9795 45.1709 33.262 45.417 33.6221C45.6676 33.9775 45.793 34.3831 45.793 34.8389H43.8242C43.8242 34.6475 43.7832 34.4766 43.7012 34.3262C43.6237 34.1712 43.5007 34.0505 43.332 33.9639C43.168 33.8727 42.9538 33.8271 42.6895 33.8271C42.4707 33.8271 42.2816 33.8659 42.1221 33.9434C41.9626 34.0163 41.8395 34.1165 41.7529 34.2441C41.6709 34.3672 41.6299 34.5039 41.6299 34.6543C41.6299 34.7682 41.6527 34.8708 41.6982 34.9619C41.7484 35.0485 41.8281 35.1283 41.9375 35.2012C42.0469 35.2741 42.1882 35.3424 42.3613 35.4062C42.5391 35.4655 42.7578 35.5202 43.0176 35.5703C43.5508 35.6797 44.027 35.8232 44.4463 36.001C44.8656 36.1742 45.1982 36.4111 45.4443 36.7119C45.6904 37.0081 45.8135 37.3978 45.8135 37.8809C45.8135 38.209 45.7406 38.5098 45.5947 38.7832C45.4489 39.0566 45.2393 39.2959 44.9658 39.501C44.6924 39.7015 44.3643 39.8587 43.9814 39.9727C43.6032 40.082 43.1771 40.1367 42.7031 40.1367C42.015 40.1367 41.4316 40.0137 40.9531 39.7676C40.4792 39.5215 40.1191 39.2093 39.873 38.8311C39.6315 38.4482 39.5107 38.0563 39.5107 37.6553H41.377C41.3861 37.9242 41.4544 38.1406 41.582 38.3047C41.7142 38.4688 41.8805 38.5872 42.0811 38.6602C42.2861 38.7331 42.5072 38.7695 42.7441 38.7695C42.9993 38.7695 43.2113 38.7354 43.3799 38.667C43.5485 38.5941 43.6761 38.4984 43.7627 38.3799C43.8538 38.2568 43.8994 38.1156 43.8994 37.9561ZM49.0605 29.4932V40H47.0918V29.4932H49.0605ZM53.7227 32.6035L50.5098 36.2676L48.7871 38.0107L48.0693 36.5889L49.4365 34.8525L51.3574 32.6035H53.7227ZM51.6787 40L49.4912 36.582L50.8516 35.3926L53.9482 40H51.6787ZM62.0557 36.4521H59.5195V34.8525L62.0557 34.8525C62.4476 34.8525 62.7666 34.7887 63.0127 34.6611C63.2588 34.529 63.4388 34.3467 63.5527 34.1143C63.6667 33.8818 63.7236 33.6198 63.7236 33.3281C63.7236 33.0319 63.6667 32.7562 63.5527 32.501C63.4388 32.2458 63.2588 32.0407 63.0127 31.8857C62.7666 31.7308 62.4476 31.6533 62.0557 31.6533H60.2305V40H58.1797V30.0469H62.0557C62.835 30.0469 63.5026 30.1882 64.0586 30.4707C64.6191 30.7487 65.0475 31.1338 65.3438 31.626C65.64 32.1182 65.7881 32.681 65.7881 33.3145C65.7881 33.957 65.64 34.513 65.3438 34.9824C65.0475 35.4518 64.6191 35.8141 64.0586 36.0693C63.5026 36.3245 62.835 36.4521 62.0557 36.4521ZM69.0488 34.2168V40H67.0801V32.6035H68.9326L69.0488 34.2168ZM71.2773 32.5557L71.2432 34.3809C71.1475 34.3672 71.0312 34.3558 70.8945 34.3467C70.7624 34.333 70.6416 34.3262 70.5322 34.3262C70.2542 34.3262 70.0127 34.3626 69.8076 34.4355C69.6071 34.5039 69.4385 34.6064 69.3018 34.7432C69.1696 34.8799 69.0693 35.0462 69.001 35.2422C68.9372 35.4382 68.9007 35.6615 68.8916 35.9121L68.4951 35.7891C68.4951 35.3105 68.543 34.8708 68.6387 34.4697C68.7344 34.0641 68.8734 33.7109 69.0557 33.4102C69.2425 33.1094 69.4704 32.877 69.7393 32.7129C70.0081 32.5488 70.3158 32.4668 70.6621 32.4668C70.7715 32.4668 70.8831 32.4759 70.9971 32.4941C71.111 32.5078 71.2044 32.5283 71.2773 32.5557ZM71.6875 36.377V36.2334C71.6875 35.6911 71.765 35.1921 71.9199 34.7363C72.0749 34.276 72.3005 33.8773 72.5967 33.54C72.8929 33.2028 73.2575 32.9408 73.6904 32.7539C74.1234 32.5625 74.6201 32.4668 75.1807 32.4668C75.7412 32.4668 76.2402 32.5625 76.6777 32.7539C77.1152 32.9408 77.4821 33.2028 77.7783 33.54C78.0791 33.8773 78.307 34.276 78.4619 34.7363C78.6169 35.1921 78.6943 35.6911 78.6943 36.2334V36.377C78.6943 36.9147 78.6169 37.4137 78.4619 37.874C78.307 38.3298 78.0791 38.7285 77.7783 39.0703C77.4821 39.4076 77.1175 39.6696 76.6846 39.8564C76.2516 40.0433 75.7549 40.1367 75.1943 40.1367C74.6338 40.1367 74.1348 40.0433 73.6973 39.8564C73.2643 39.6696 72.8975 39.4076 72.5967 39.0703C72.3005 38.7285 72.0749 38.3298 71.9199 37.874C71.765 37.4137 71.6875 36.9147 71.6875 36.377ZM73.6562 36.2334V36.377C73.6562 36.6868 73.6836 36.9762 73.7383 37.2451C73.793 37.514 73.8796 37.751 73.998 37.9561C74.1211 38.1566 74.2806 38.3138 74.4766 38.4277C74.6725 38.5417 74.9118 38.5986 75.1943 38.5986C75.4678 38.5986 75.7025 38.5417 75.8984 38.4277C76.0944 38.3138 76.2516 38.1566 76.3701 37.9561C76.4886 37.751 76.5752 37.514 76.6299 37.2451C76.6891 36.9762 76.7188 36.6868 76.7188 36.377V36.2334C76.7188 35.9326 76.6891 35.6501 76.6299 35.3857C76.5752 35.1169 76.4863 34.8799 76.3633 34.6748C76.2448 34.4652 76.0876 34.3011 75.8916 34.1826C75.6956 34.0641 75.4587 34.0049 75.1807 34.0049C74.9027 34.0049 74.6657 34.0641 74.4697 34.1826C74.2783 34.3011 74.1211 34.4652 73.998 34.6748C73.8796 34.8799 73.793 35.1169 73.7383 35.3857C73.6836 35.6501 73.6562 35.9326 73.6562 36.2334ZM84.5869 32.6035H86.3711V39.7539C86.3711 40.4284 86.2207 41.0003 85.9199 41.4697C85.6237 41.9437 85.209 42.3014 84.6758 42.543C84.1426 42.7891 83.5228 42.9121 82.8164 42.9121C82.5065 42.9121 82.1784 42.8711 81.832 42.7891C81.4902 42.707 81.1621 42.5794 80.8477 42.4063C80.5378 42.2331 80.278 42.0143 80.0684 41.75L80.9365 40.5879C81.1644 40.8522 81.4287 41.0573 81.7295 41.2031C82.0303 41.3535 82.363 41.4287 82.7275 41.4287C83.083 41.4287 83.3838 41.3626 83.6299 41.2305C83.876 41.1029 84.0651 40.9137 84.1973 40.6631C84.3294 40.417 84.3955 40.1185 84.3955 39.7676V34.3125L84.5869 32.6035ZM79.6104 36.3906V36.2471C79.6104 35.682 79.6787 35.1693 79.8154 34.709C79.9567 34.2441 80.1549 33.8454 80.4102 33.5127C80.6699 33.18 80.9844 32.9225 81.3535 32.7402C81.7227 32.5579 82.1396 32.4668 82.6045 32.4668C83.0967 32.4668 83.5091 32.5579 83.8418 32.7402C84.1745 32.9225 84.4479 33.1823 84.6621 33.5195C84.8763 33.8522 85.0426 34.2464 85.1611 34.7021C85.2842 35.1533 85.3799 35.6478 85.4482 36.1855V36.5C85.3799 37.015 85.2773 37.4935 85.1406 37.9355C85.0039 38.3776 84.8239 38.765 84.6006 39.0977C84.3773 39.4258 84.0993 39.681 83.7666 39.8633C83.4385 40.0456 83.0465 40.1367 82.5908 40.1367C82.1351 40.1367 81.7227 40.0433 81.3535 39.8564C80.9889 39.6696 80.6768 39.4076 80.417 39.0703C80.1572 38.7331 79.9567 38.3366 79.8154 37.8809C79.6787 37.4251 79.6104 36.9284 79.6104 36.3906ZM81.5791 36.2471V36.3906C81.5791 36.696 81.6087 36.9808 81.668 37.2451C81.7272 37.5094 81.8184 37.7441 81.9414 37.9492C82.069 38.1497 82.2262 38.307 82.4131 38.4209C82.6045 38.5303 82.8301 38.585 83.0898 38.585C83.4499 38.585 83.7438 38.5098 83.9717 38.3594C84.1995 38.2044 84.3704 37.9925 84.4844 37.7236C84.5983 37.4548 84.6644 37.1449 84.6826 36.7939V35.8984C84.6735 35.6113 84.6348 35.3538 84.5664 35.126C84.498 34.8936 84.4023 34.6953 84.2793 34.5313C84.1562 34.3672 83.9967 34.2396 83.8008 34.1484C83.6048 34.0573 83.3724 34.0117 83.1035 34.0117C82.8438 34.0117 82.6182 34.071 82.4268 34.1895C82.2399 34.3034 82.0827 34.4606 81.9551 34.6611C81.832 34.8617 81.7386 35.0986 81.6748 35.3721C81.611 35.641 81.5791 35.9326 81.5791 36.2471ZM89.8711 34.2168V40H87.9023V32.6035H89.7549L89.8711 34.2168ZM92.0996 32.5557L92.0654 34.3809C91.9697 34.3672 91.8535 34.3558 91.7168 34.3467C91.5846 34.333 91.4639 34.3262 91.3545 34.3262C91.0765 34.3262 90.835 34.3626 90.6299 34.4355C90.4294 34.5039 90.2607 34.6064 90.124 34.7432C89.9919 34.8799 89.8916 35.0462 89.8232 35.2422C89.7594 35.4382 89.723 35.6615 89.7139 35.9121L89.3174 35.7891C89.3174 35.3105 89.3652 34.8708 89.4609 34.4697C89.5566 34.0641 89.6956 33.7109 89.8779 33.4102C90.0648 33.1094 90.2926 32.877 90.5615 32.7129C90.8304 32.5488 91.138 32.4668 91.4844 32.4668C91.5938 32.4668 91.7054 32.4759 91.8193 32.4941C91.9333 32.5078 92.0267 32.5283 92.0996 32.5557ZM96.2969 40.1367C95.7227 40.1367 95.2077 40.0456 94.752 39.8633C94.2962 39.6764 93.9089 39.4189 93.5898 39.0908C93.2754 38.7627 93.0339 38.3822 92.8652 37.9492C92.6966 37.5117 92.6123 37.0469 92.6123 36.5547V36.2813C92.6123 35.7207 92.6921 35.208 92.8516 34.7432C93.0111 34.2783 93.2389 33.875 93.5352 33.5332C93.8359 33.1914 94.2005 32.9294 94.6289 32.7471C95.0573 32.5602 95.5404 32.4668 96.0781 32.4668C96.6022 32.4668 97.0671 32.5534 97.4727 32.7266C97.8783 32.8997 98.2178 33.1458 98.4912 33.4648C98.7692 33.7839 98.9788 34.1667 99.1201 34.6133C99.2614 35.0553 99.332 35.5475 99.332 36.0898V36.9102H93.4531V35.5977H97.3975V35.4473C97.3975 35.1738 97.3473 34.93 97.2471 34.7158C97.1514 34.4971 97.0055 34.3239 96.8096 34.1963C96.6136 34.0687 96.363 34.0049 96.0576 34.0049C95.7979 34.0049 95.5745 34.0618 95.3877 34.1758C95.2008 34.2897 95.0482 34.4492 94.9297 34.6543C94.8158 34.8594 94.7292 35.1009 94.6699 35.3789C94.6152 35.6523 94.5879 35.9531 94.5879 36.2813V36.5547C94.5879 36.8509 94.6289 37.1243 94.7109 37.375C94.7975 37.6257 94.9183 37.8421 95.0732 38.0244C95.2327 38.2067 95.4242 38.348 95.6475 38.4482C95.8753 38.5485 96.1328 38.5986 96.4199 38.5986C96.7754 38.5986 97.1058 38.5303 97.4111 38.3936C97.721 38.2523 97.9876 38.0404 98.2109 37.7578L99.168 38.7969C99.013 39.0202 98.8011 39.2344 98.5322 39.4395C98.2679 39.6445 97.9489 39.8132 97.5752 39.9453C97.2015 40.0729 96.7754 40.1367 96.2969 40.1367ZM104.452 37.9561C104.452 37.8148 104.411 37.6872 104.329 37.5732C104.247 37.4593 104.094 37.3545 103.871 37.2588C103.652 37.1585 103.336 37.0674 102.921 36.9854C102.547 36.9033 102.199 36.8008 101.875 36.6777C101.556 36.5501 101.278 36.3975 101.041 36.2197C100.809 36.042 100.626 35.8324 100.494 35.5908C100.362 35.3447 100.296 35.0645 100.296 34.75C100.296 34.4401 100.362 34.1484 100.494 33.875C100.631 33.6016 100.825 33.36 101.075 33.1504C101.33 32.9362 101.64 32.7699 102.005 32.6514C102.374 32.5283 102.789 32.4668 103.249 32.4668C103.892 32.4668 104.443 32.5693 104.903 32.7744C105.368 32.9795 105.724 33.262 105.97 33.6221C106.22 33.9775 106.346 34.3831 106.346 34.8389H104.377C104.377 34.6475 104.336 34.4766 104.254 34.3262C104.176 34.1712 104.053 34.0505 103.885 33.9639C103.721 33.8727 103.507 33.8271 103.242 33.8271C103.023 33.8271 102.834 33.8659 102.675 33.9434C102.515 34.0163 102.392 34.1165 102.306 34.2441C102.224 34.3672 102.183 34.5039 102.183 34.6543C102.183 34.7682 102.205 34.8708 102.251 34.9619C102.301 35.0485 102.381 35.1283 102.49 35.2012C102.6 35.2741 102.741 35.3424 102.914 35.4063C103.092 35.4655 103.311 35.5202 103.57 35.5703C104.104 35.6797 104.58 35.8232 104.999 36.001C105.418 36.1742 105.751 36.4111 105.997 36.7119C106.243 37.0081 106.366 37.3978 106.366 37.8809C106.366 38.209 106.293 38.5098 106.147 38.7832C106.002 39.0566 105.792 39.2959 105.519 39.501C105.245 39.7015 104.917 39.8587 104.534 39.9727C104.156 40.082 103.73 40.1367 103.256 40.1367C102.568 40.1367 101.984 40.0137 101.506 39.7676C101.032 39.5215 100.672 39.2093 100.426 38.8311C100.184 38.4482 100.063 38.0563 100.063 37.6553H101.93C101.939 37.9242 102.007 38.1406 102.135 38.3047C102.267 38.4688 102.433 38.5872 102.634 38.6602C102.839 38.7331 103.06 38.7695 103.297 38.7695C103.552 38.7695 103.764 38.7354 103.933 38.667C104.101 38.5941 104.229 38.4984 104.315 38.3799C104.407 38.2568 104.452 38.1156 104.452 37.9561ZM111.644 37.9561C111.644 37.8148 111.603 37.6872 111.521 37.5732C111.438 37.4593 111.286 37.3545 111.062 37.2588C110.844 37.1585 110.527 37.0674 110.112 36.9854C109.739 36.9033 109.39 36.8008 109.066 36.6777C108.747 36.5501 108.469 36.3975 108.232 36.2197C108 36.042 107.818 35.8324 107.686 35.5908C107.553 35.3447 107.487 35.0645 107.487 34.75C107.487 34.4401 107.553 34.1484 107.686 33.875C107.822 33.6016 108.016 33.36 108.267 33.1504C108.522 32.9362 108.832 32.7699 109.196 32.6514C109.565 32.5283 109.98 32.4668 110.44 32.4668C111.083 32.4668 111.634 32.5693 112.095 32.7744C112.56 32.9795 112.915 33.262 113.161 33.6221C113.412 33.9775 113.537 34.3831 113.537 34.8389H111.568C111.568 34.6475 111.527 34.4766 111.445 34.3262C111.368 34.1712 111.245 34.0505 111.076 33.9639C110.912 33.8727 110.698 33.8271 110.434 33.8271C110.215 33.8271 110.026 33.8659 109.866 33.9434C109.707 34.0163 109.584 34.1165 109.497 34.2441C109.415 34.3672 109.374 34.5039 109.374 34.6543C109.374 34.7682 109.397 34.8708 109.442 34.9619C109.493 35.0485 109.572 35.1283 109.682 35.2012C109.791 35.2741 109.932 35.3424 110.105 35.4063C110.283 35.4655 110.502 35.5202 110.762 35.5703C111.295 35.6797 111.771 35.8232 112.19 36.001C112.61 36.1742 112.942 36.4111 113.188 36.7119C113.435 37.0081 113.558 37.3978 113.558 37.8809C113.558 38.209 113.485 38.5098 113.339 38.7832C113.193 39.0566 112.983 39.2959 112.71 39.501C112.437 39.7015 112.108 39.8587 111.726 39.9727C111.347 40.082 110.921 40.1367 110.447 40.1367C109.759 40.1367 109.176 40.0137 108.697 39.7676C108.223 39.5215 107.863 39.2093 107.617 38.8311C107.376 38.4482 107.255 38.0563 107.255 37.6553H109.121C109.13 37.9242 109.199 38.1406 109.326 38.3047C109.458 38.4688 109.625 38.5872 109.825 38.6602C110.03 38.7331 110.251 38.7695 110.488 38.7695C110.743 38.7695 110.955 38.7354 111.124 38.667C111.293 38.5941 111.42 38.4984 111.507 38.3799C111.598 38.2568 111.644 38.1156 111.644 37.9561Z" fill="#333848"/>
<rect x="24" y="72.0001" width="113.757" height="5" rx="2.5" fill="#E8E6E6"/>
<rect width="75.362" height="5" transform="translate(24 72.0001)" fill="#FF711F"/>
<path d="M26.9121 62.3652L28.6113 55.4688H29.5312L29.5898 56.9219L27.7734 64H26.8008L26.9121 62.3652ZM25.8398 55.4688L27.2344 62.3418V64H26.1738L24.2402 55.4688H25.8398ZM31.3535 62.3125L32.7246 55.4688H34.3301L32.3965 64H31.3359L31.3535 62.3125ZM29.9707 55.4688L31.6699 62.3887L31.7695 64H30.7969L28.9863 56.916L29.0566 55.4688H29.9707ZM36.873 57.6602V64H35.3203V57.6602H36.873ZM35.2148 56.002C35.2148 55.7715 35.293 55.5801 35.4492 55.4277C35.6094 55.2754 35.8242 55.1992 36.0938 55.1992C36.3633 55.1992 36.5762 55.2754 36.7324 55.4277C36.8926 55.5801 36.9727 55.7715 36.9727 56.002C36.9727 56.2285 36.8926 56.418 36.7324 56.5703C36.5762 56.7227 36.3633 56.7988 36.0938 56.7988C35.8242 56.7988 35.6094 56.7227 35.4492 56.5703C35.293 56.418 35.2148 56.2285 35.2148 56.002ZM39.8965 58.9551V64H38.3496V57.6602H39.8145L39.8965 58.9551ZM41.8242 57.6191L41.8008 59.0605C41.7148 59.0449 41.6172 59.0332 41.5078 59.0254C41.4023 59.0176 41.3027 59.0137 41.209 59.0137C40.9707 59.0137 40.7617 59.0469 40.582 59.1133C40.4023 59.1758 40.252 59.2676 40.1309 59.3887C40.0137 59.5098 39.9238 59.6582 39.8613 59.834C39.7988 60.0059 39.7637 60.2012 39.7559 60.4199L39.4219 60.3789C39.4219 59.9766 39.4629 59.6035 39.5449 59.2598C39.627 58.916 39.7461 58.6152 39.9023 58.3574C40.0586 58.0996 40.2539 57.9004 40.4883 57.7598C40.7266 57.6152 41 57.543 41.3086 57.543C41.3945 57.543 41.4863 57.5508 41.584 57.5664C41.6855 57.5781 41.7656 57.5957 41.8242 57.6191ZM45.4043 64.1172C44.9238 64.1172 44.4922 64.0391 44.1094 63.8828C43.7266 63.7266 43.4004 63.5098 43.1309 63.2324C42.8652 62.9512 42.6602 62.625 42.5156 62.2539C42.375 61.8789 42.3047 61.4766 42.3047 61.0469V60.8125C42.3047 60.3242 42.375 59.8809 42.5156 59.4824C42.6562 59.0801 42.8555 58.7344 43.1133 58.4453C43.3711 58.1562 43.6797 57.9336 44.0391 57.7773C44.3984 57.6211 44.7949 57.543 45.2285 57.543C45.6777 57.543 46.0742 57.6191 46.418 57.7715C46.7617 57.9199 47.0488 58.1309 47.2793 58.4043C47.5098 58.6777 47.6836 59.0059 47.8008 59.3887C47.918 59.7676 47.9766 60.1875 47.9766 60.6484V61.2988H43.0078V60.2324H46.4531V60.1152C46.4453 59.8691 46.3984 59.6445 46.3125 59.4414C46.2266 59.2344 46.0938 59.0703 45.9141 58.9492C45.7344 58.8242 45.502 58.7617 45.2168 58.7617C44.9863 58.7617 44.7852 58.8125 44.6133 58.9141C44.4453 59.0117 44.3047 59.1523 44.1914 59.3359C44.082 59.5156 44 59.7305 43.9453 59.9805C43.8906 60.2305 43.8633 60.5078 43.8633 60.8125V61.0469C43.8633 61.3125 43.8984 61.5586 43.9688 61.7852C44.043 62.0117 44.1504 62.209 44.291 62.377C44.4355 62.541 44.6074 62.6699 44.8066 62.7637C45.0098 62.8535 45.2402 62.8984 45.498 62.8984C45.8223 62.8984 46.1152 62.8359 46.377 62.7109C46.6426 62.582 46.873 62.3926 47.0684 62.1426L47.8477 62.9512C47.7148 63.1465 47.5352 63.334 47.3086 63.5137C47.0859 63.6934 46.8164 63.8398 46.5 63.9531C46.1836 64.0625 45.8184 64.1172 45.4043 64.1172ZM51.041 64H49.4824V57.0742C49.4824 56.5977 49.5742 56.1973 49.7578 55.873C49.9414 55.5449 50.2031 55.2969 50.543 55.1289C50.8828 54.9609 51.2832 54.877 51.7441 54.877C51.8965 54.877 52.041 54.8867 52.1777 54.9062C52.3184 54.9258 52.457 54.9531 52.5938 54.9883L52.5645 56.166C52.4902 56.1465 52.4082 56.1328 52.3184 56.125C52.2324 56.1172 52.1367 56.1133 52.0312 56.1133C51.8203 56.1133 51.6406 56.1504 51.4922 56.2246C51.3438 56.2988 51.2305 56.4082 51.1523 56.5527C51.0781 56.6934 51.041 56.8672 51.041 57.0742V64ZM52.3242 57.6602V58.7734H48.5273V57.6602H52.3242ZM54.8262 58.9551V64H53.2793V57.6602H54.7441L54.8262 58.9551ZM56.7539 57.6191L56.7305 59.0605C56.6445 59.0449 56.5469 59.0332 56.4375 59.0254C56.332 59.0176 56.2324 59.0137 56.1387 59.0137C55.9004 59.0137 55.6914 59.0469 55.5117 59.1133C55.332 59.1758 55.1816 59.2676 55.0605 59.3887C54.9434 59.5098 54.8535 59.6582 54.791 59.834C54.7285 60.0059 54.6934 60.2012 54.6855 60.4199L54.3516 60.3789C54.3516 59.9766 54.3926 59.6035 54.4746 59.2598C54.5566 58.916 54.6758 58.6152 54.832 58.3574C54.9883 58.0996 55.1836 57.9004 55.418 57.7598C55.6562 57.6152 55.9297 57.543 56.2383 57.543C56.3242 57.543 56.416 57.5508 56.5137 57.5664C56.6152 57.5781 56.6953 57.5957 56.7539 57.6191ZM60.8965 62.6523V59.7285C60.8965 59.5137 60.8594 59.3281 60.7852 59.1719C60.7109 59.0156 60.5977 58.8945 60.4453 58.8086C60.293 58.7227 60.0996 58.6797 59.8652 58.6797C59.6582 58.6797 59.4766 58.7148 59.3203 58.7852C59.168 58.8555 59.0508 58.9551 58.9688 59.084C58.8867 59.209 58.8457 59.3535 58.8457 59.5176H57.293C57.293 59.2559 57.3555 59.0078 57.4805 58.7734C57.6055 58.5352 57.7832 58.3242 58.0137 58.1406C58.248 57.9531 58.5273 57.8066 58.8516 57.7012C59.1797 57.5957 59.5469 57.543 59.9531 57.543C60.4336 57.543 60.8613 57.625 61.2363 57.7891C61.6152 57.9492 61.9121 58.1914 62.127 58.5156C62.3457 58.8398 62.4551 59.248 62.4551 59.7402V62.5059C62.4551 62.8223 62.4746 63.0938 62.5137 63.3203C62.5566 63.543 62.6191 63.7363 62.7012 63.9004V64H61.125C61.0508 63.8398 60.9941 63.6367 60.9551 63.3906C60.916 63.1406 60.8965 62.8945 60.8965 62.6523ZM61.1133 60.1387L61.125 61.0586H60.1465C59.9043 61.0586 59.6914 61.084 59.5078 61.1348C59.3242 61.1816 59.1738 61.252 59.0566 61.3457C58.9395 61.4355 58.8516 61.5449 58.793 61.6738C58.7344 61.7988 58.7051 61.9414 58.7051 62.1016C58.7051 62.2578 58.7402 62.3984 58.8105 62.5234C58.8848 62.6484 58.9902 62.748 59.127 62.8223C59.2676 62.8926 59.4316 62.9277 59.6191 62.9277C59.8926 62.9277 60.1309 62.873 60.334 62.7637C60.5371 62.6504 60.6953 62.5137 60.8086 62.3535C60.9219 62.1934 60.9824 62.041 60.9902 61.8965L61.4355 62.5645C61.3809 62.7246 61.2988 62.8945 61.1895 63.0742C61.0801 63.2539 60.9395 63.4219 60.7676 63.5781C60.5957 63.7344 60.3887 63.8633 60.1465 63.9648C59.9043 64.0664 59.623 64.1172 59.3027 64.1172C58.8926 64.1172 58.5254 64.0352 58.2012 63.8711C57.877 63.707 57.6211 63.4824 57.4336 63.1973C57.2461 62.9121 57.1523 62.5879 57.1523 62.2246C57.1523 61.8887 57.2148 61.5918 57.3398 61.334C57.4648 61.0762 57.6504 60.8594 57.8965 60.6836C58.1426 60.5039 58.4473 60.3691 58.8105 60.2793C59.1777 60.1855 59.5977 60.1387 60.0703 60.1387H61.1133ZM65.3906 58.9609V64H63.8438V57.6602H65.3027L65.3906 58.9609ZM65.1621 60.6016H64.6875C64.6875 60.1602 64.7402 59.7539 64.8457 59.3828C64.9551 59.0117 65.1152 58.6895 65.3262 58.416C65.5371 58.1387 65.7969 57.9238 66.1055 57.7715C66.418 57.6191 66.7793 57.543 67.1895 57.543C67.4746 57.543 67.7363 57.5859 67.9746 57.6719C68.2129 57.7539 68.418 57.8848 68.5898 58.0645C68.7656 58.2402 68.9004 58.4707 68.9941 58.7559C69.0879 59.0371 69.1348 59.375 69.1348 59.7695V64H67.5879V59.9277C67.5879 59.6309 67.5449 59.3984 67.459 59.2305C67.377 59.0625 67.2578 58.9453 67.1016 58.8789C66.9453 58.8086 66.7578 58.7734 66.5391 58.7734C66.2969 58.7734 66.0879 58.8223 65.9121 58.9199C65.7402 59.0137 65.5977 59.1445 65.4844 59.3125C65.375 59.4805 65.293 59.6738 65.2383 59.8926C65.1875 60.1113 65.1621 60.3477 65.1621 60.6016ZM69.0176 60.3145L68.3789 60.4316C68.3828 60.0332 68.4375 59.6602 68.543 59.3125C68.6484 58.9609 68.8027 58.6543 69.0059 58.3926C69.2129 58.127 69.4688 57.9199 69.7734 57.7715C70.082 57.6191 70.4375 57.543 70.8398 57.543C71.1523 57.543 71.4336 57.5879 71.6836 57.6777C71.9375 57.7637 72.1543 57.9023 72.334 58.0938C72.5137 58.2812 72.6504 58.5254 72.7441 58.8262C72.8418 59.127 72.8906 59.4941 72.8906 59.9277V64H71.332V59.9219C71.332 59.6133 71.2891 59.377 71.2031 59.2129C71.1211 59.0488 71.002 58.9355 70.8457 58.873C70.6895 58.8066 70.5059 58.7734 70.2949 58.7734C70.0801 58.7734 69.8926 58.8145 69.7324 58.8965C69.5762 58.9746 69.4434 59.084 69.334 59.2246C69.2285 59.3652 69.1484 59.5293 69.0938 59.7168C69.043 59.9004 69.0176 60.0996 69.0176 60.3145ZM75.9199 57.6602V64H74.3672V57.6602H75.9199ZM74.2617 56.002C74.2617 55.7715 74.3398 55.5801 74.4961 55.4277C74.6562 55.2754 74.8711 55.1992 75.1406 55.1992C75.4102 55.1992 75.623 55.2754 75.7793 55.4277C75.9395 55.5801 76.0195 55.7715 76.0195 56.002C76.0195 56.2285 75.9395 56.418 75.7793 56.5703C75.623 56.7227 75.4102 56.7988 75.1406 56.7988C74.8711 56.7988 74.6562 56.7227 74.4961 56.5703C74.3398 56.418 74.2617 56.2285 74.2617 56.002ZM78.9141 59.0137V64H77.3672V57.6602H78.8203L78.9141 59.0137ZM78.668 60.6016H78.2109C78.2148 60.1406 78.2773 59.7227 78.3984 59.3477C78.5195 58.9727 78.6895 58.6504 78.9082 58.3809C79.1309 58.1113 79.3945 57.9043 79.6992 57.7598C80.0039 57.6152 80.3438 57.543 80.7188 57.543C81.0234 57.543 81.2988 57.5859 81.5449 57.6719C81.791 57.7578 82.002 57.8945 82.1777 58.082C82.3574 58.2695 82.4941 58.5156 82.5879 58.8203C82.6855 59.1211 82.7344 59.4922 82.7344 59.9336V64H81.1758V59.9219C81.1758 59.6328 81.1328 59.4043 81.0469 59.2363C80.9648 59.0684 80.8438 58.9492 80.6836 58.8789C80.5273 58.8086 80.334 58.7734 80.1035 58.7734C79.8652 58.7734 79.6562 58.8223 79.4766 58.9199C79.3008 59.0137 79.1523 59.1445 79.0312 59.3125C78.9141 59.4805 78.8242 59.6738 78.7617 59.8926C78.6992 60.1113 78.668 60.3477 78.668 60.6016ZM88.1309 57.6602H89.5371V63.8066C89.5371 64.3809 89.4121 64.8672 89.1621 65.2656C88.916 65.668 88.5703 65.9727 88.125 66.1797C87.6797 66.3906 87.1621 66.4961 86.5723 66.4961C86.3184 66.4961 86.043 66.4609 85.7461 66.3906C85.4531 66.3203 85.1699 66.209 84.8965 66.0566C84.627 65.9082 84.4023 65.7148 84.2227 65.4766L84.9199 64.5625C85.1309 64.8086 85.3691 64.9941 85.6348 65.1191C85.9004 65.248 86.1875 65.3125 86.4961 65.3125C86.8086 65.3125 87.0742 65.2539 87.293 65.1367C87.5156 65.0234 87.6855 64.8555 87.8027 64.6328C87.9238 64.4141 87.9844 64.1445 87.9844 63.8242V59.1074L88.1309 57.6602ZM83.8477 60.9062V60.7832C83.8477 60.2988 83.9062 59.8594 84.0234 59.4648C84.1406 59.0664 84.3086 58.7246 84.5273 58.4395C84.75 58.1543 85.0176 57.9336 85.3301 57.7773C85.6465 57.6211 86.002 57.543 86.3965 57.543C86.8145 57.543 87.166 57.6191 87.4512 57.7715C87.7402 57.9238 87.9785 58.1406 88.166 58.4219C88.3574 58.7031 88.5059 59.0371 88.6113 59.4238C88.7207 59.8066 88.8047 60.2285 88.8633 60.6895V61.0234C88.8086 61.4727 88.7207 61.8848 88.5996 62.2598C88.4824 62.6348 88.3262 62.9629 88.1309 63.2441C87.9355 63.5215 87.6934 63.7363 87.4043 63.8887C87.1152 64.041 86.7754 64.1172 86.3848 64.1172C85.9941 64.1172 85.6426 64.0371 85.3301 63.877C85.0176 63.7168 84.75 63.4922 84.5273 63.2031C84.3086 62.9141 84.1406 62.5742 84.0234 62.1836C83.9062 61.793 83.8477 61.3672 83.8477 60.9062ZM85.3945 60.7832V60.9062C85.3945 61.1797 85.4219 61.4355 85.4766 61.6738C85.5312 61.9121 85.6152 62.123 85.7285 62.3066C85.8418 62.4863 85.9844 62.627 86.1562 62.7285C86.3281 62.8301 86.5332 62.8809 86.7715 62.8809C87.0918 62.8809 87.3535 62.8145 87.5566 62.6816C87.7637 62.5449 87.9199 62.3594 88.0254 62.125C88.1348 61.8867 88.2051 61.6191 88.2363 61.3223V60.4023C88.2168 60.168 88.1738 59.9512 88.1074 59.752C88.0449 59.5527 87.957 59.3809 87.8438 59.2363C87.7305 59.0918 87.5859 58.9785 87.4102 58.8965C87.2344 58.8145 87.0254 58.7734 86.7832 58.7734C86.5488 58.7734 86.3438 58.8262 86.168 58.9316C85.9922 59.0332 85.8477 59.1758 85.7344 59.3594C85.6211 59.543 85.5352 59.7559 85.4766 59.998C85.4219 60.2402 85.3945 60.502 85.3945 60.7832Z" fill="#333848"/>
<rect x="24" y="106" width="113.757" height="5" rx="2.5" fill="#E8E6E6"/>
<rect width="56.671" height="5" transform="translate(24 106)" fill="#FF711F"/>
<path d="M27.8145 96.3301L29.9414 89.4688H31.7285L28.7168 98H27.5273L27.8145 96.3301ZM25.8516 89.4688L27.9668 96.3301L28.2715 98H27.0703L24.0703 89.4688H25.8516ZM34.1309 91.6602V98H32.5781V91.6602H34.1309ZM32.4727 90.002C32.4727 89.7715 32.5508 89.5801 32.707 89.4277C32.8672 89.2754 33.082 89.1992 33.3516 89.1992C33.6211 89.1992 33.834 89.2754 33.9902 89.4277C34.1504 89.5801 34.2305 89.7715 34.2305 90.002C34.2305 90.2285 34.1504 90.418 33.9902 90.5703C33.834 90.7227 33.6211 90.7988 33.3516 90.7988C33.082 90.7988 32.8672 90.7227 32.707 90.5703C32.5508 90.418 32.4727 90.2285 32.4727 90.002ZM39.0938 96.2656C39.0938 96.1328 39.0586 96.0137 38.9883 95.9082C38.918 95.8027 38.7852 95.707 38.5898 95.6211C38.3984 95.5312 38.1172 95.4473 37.7461 95.3691C37.418 95.2988 37.1152 95.2109 36.8379 95.1055C36.5605 95 36.3223 94.873 36.123 94.7246C35.9238 94.5723 35.7676 94.3945 35.6543 94.1914C35.5449 93.9844 35.4902 93.7461 35.4902 93.4766C35.4902 93.2148 35.5469 92.9688 35.6602 92.7383C35.7734 92.5039 35.9375 92.2988 36.1523 92.123C36.3672 91.9434 36.6289 91.8027 36.9375 91.7012C37.2461 91.5957 37.5938 91.543 37.9805 91.543C38.5195 91.543 38.9824 91.6309 39.3691 91.8066C39.7598 91.9824 40.0586 92.2246 40.2656 92.5332C40.4727 92.8379 40.5762 93.1816 40.5762 93.5645H39.0293C39.0293 93.3965 38.9902 93.2441 38.9121 93.1074C38.8379 92.9707 38.7227 92.8613 38.5664 92.7793C38.4102 92.6934 38.2129 92.6504 37.9746 92.6504C37.7598 92.6504 37.5781 92.6855 37.4297 92.7559C37.2852 92.8262 37.1758 92.918 37.1016 93.0312C37.0273 93.1445 36.9902 93.2695 36.9902 93.4062C36.9902 93.5078 37.0098 93.5996 37.0488 93.6816C37.0918 93.7598 37.1602 93.832 37.2539 93.8984C37.3477 93.9648 37.4746 94.0254 37.6348 94.0801C37.7988 94.1348 38 94.1875 38.2383 94.2383C38.7109 94.332 39.123 94.457 39.4746 94.6133C39.8301 94.7656 40.1074 94.9688 40.3066 95.2227C40.5059 95.4766 40.6055 95.8008 40.6055 96.1953C40.6055 96.4766 40.5449 96.7344 40.4238 96.9688C40.3027 97.1992 40.127 97.4004 39.8965 97.5723C39.666 97.7441 39.3906 97.8789 39.0703 97.9766C38.75 98.0703 38.3887 98.1172 37.9863 98.1172C37.4043 98.1172 36.9121 98.0137 36.5098 97.8066C36.1074 97.5957 35.8027 97.3301 35.5957 97.0098C35.3887 96.6855 35.2852 96.3496 35.2852 96.002H36.7676C36.7793 96.248 36.8457 96.4453 36.9668 96.5938C37.0879 96.7422 37.2402 96.8496 37.4238 96.916C37.6113 96.9785 37.8086 97.0098 38.0156 97.0098C38.25 97.0098 38.4473 96.9785 38.6074 96.916C38.7676 96.8496 38.8887 96.7617 38.9707 96.6523C39.0527 96.5391 39.0938 96.4102 39.0938 96.2656ZM45.5566 96.4941V91.6602H47.1152V98H45.6504L45.5566 96.4941ZM45.7559 95.1816L46.2363 95.1699C46.2363 95.5957 46.1895 95.9883 46.0957 96.3477C46.002 96.707 45.8555 97.0195 45.6562 97.2852C45.4609 97.5469 45.2129 97.752 44.9121 97.9004C44.6113 98.0449 44.2559 98.1172 43.8457 98.1172C43.5332 98.1172 43.248 98.0742 42.9902 97.9883C42.7324 97.8984 42.5098 97.7598 42.3223 97.5723C42.1387 97.3809 41.9961 97.1367 41.8945 96.8398C41.793 96.5391 41.7422 96.1777 41.7422 95.7559V91.6602H43.2891V95.7676C43.2891 95.9785 43.3125 96.1543 43.3594 96.2949C43.4102 96.4355 43.4785 96.5508 43.5645 96.6406C43.6543 96.7266 43.7578 96.7891 43.875 96.8281C43.9961 96.8633 44.125 96.8809 44.2617 96.8809C44.6367 96.8809 44.9316 96.8066 45.1465 96.6582C45.3652 96.5059 45.5215 96.3027 45.6152 96.0488C45.709 95.791 45.7559 95.502 45.7559 95.1816ZM51.9785 96.6523V93.7285C51.9785 93.5137 51.9414 93.3281 51.8672 93.1719C51.793 93.0156 51.6797 92.8945 51.5273 92.8086C51.375 92.7227 51.1816 92.6797 50.9473 92.6797C50.7402 92.6797 50.5586 92.7148 50.4023 92.7852C50.25 92.8555 50.1328 92.9551 50.0508 93.084C49.9688 93.209 49.9277 93.3535 49.9277 93.5176H48.375C48.375 93.2559 48.4375 93.0078 48.5625 92.7734C48.6875 92.5352 48.8652 92.3242 49.0957 92.1406C49.3301 91.9531 49.6094 91.8066 49.9336 91.7012C50.2617 91.5957 50.6289 91.543 51.0352 91.543C51.5156 91.543 51.9434 91.625 52.3184 91.7891C52.6973 91.9492 52.9941 92.1914 53.209 92.5156C53.4277 92.8398 53.5371 93.248 53.5371 93.7402V96.5059C53.5371 96.8223 53.5566 97.0938 53.5957 97.3203C53.6387 97.543 53.7012 97.7363 53.7832 97.9004V98H52.207C52.1328 97.8398 52.0762 97.6367 52.0371 97.3906C51.998 97.1406 51.9785 96.8945 51.9785 96.6523ZM52.1953 94.1387L52.207 95.0586H51.2285C50.9863 95.0586 50.7734 95.084 50.5898 95.1348C50.4062 95.1816 50.2559 95.252 50.1387 95.3457C50.0215 95.4355 49.9336 95.5449 49.875 95.6738C49.8164 95.7988 49.7871 95.9414 49.7871 96.1016C49.7871 96.2578 49.8223 96.3984 49.8926 96.5234C49.9668 96.6484 50.0723 96.748 50.209 96.8223C50.3496 96.8926 50.5137 96.9277 50.7012 96.9277C50.9746 96.9277 51.2129 96.873 51.416 96.7637C51.6191 96.6504 51.7773 96.5137 51.8906 96.3535C52.0039 96.1934 52.0645 96.041 52.0723 95.8965L52.5176 96.5645C52.4629 96.7246 52.3809 96.8945 52.2715 97.0742C52.1621 97.2539 52.0215 97.4219 51.8496 97.5781C51.6777 97.7344 51.4707 97.8633 51.2285 97.9648C50.9863 98.0664 50.7051 98.1172 50.3848 98.1172C49.9746 98.1172 49.6074 98.0352 49.2832 97.8711C48.959 97.707 48.7031 97.4824 48.5156 97.1973C48.3281 96.9121 48.2344 96.5879 48.2344 96.2246C48.2344 95.8887 48.2969 95.5918 48.4219 95.334C48.5469 95.0762 48.7324 94.8594 48.9785 94.6836C49.2246 94.5039 49.5293 94.3691 49.8926 94.2793C50.2598 94.1855 50.6797 94.1387 51.1523 94.1387H52.1953ZM56.5723 89V98H55.0195V89H56.5723ZM63.7031 98H61.8633L61.875 96.7344H63.7031C64.1992 96.7344 64.6152 96.625 64.9512 96.4062C65.2871 96.1836 65.541 95.8652 65.7129 95.4512C65.8848 95.0332 65.9707 94.5332 65.9707 93.9512V93.5117C65.9707 93.0625 65.9219 92.666 65.8242 92.3223C65.7266 91.9785 65.582 91.6895 65.3906 91.4551C65.2031 91.2207 64.9707 91.043 64.6934 90.9219C64.416 90.8008 64.0977 90.7402 63.7383 90.7402H61.8281V89.4688H63.7383C64.3086 89.4688 64.8281 89.5645 65.2969 89.7559C65.7695 89.9473 66.1777 90.2227 66.5215 90.582C66.8691 90.9375 67.1348 91.3633 67.3184 91.8594C67.5059 92.3555 67.5996 92.9102 67.5996 93.5234V93.9512C67.5996 94.5605 67.5059 95.1152 67.3184 95.6152C67.1348 96.1113 66.8691 96.5371 66.5215 96.8926C66.1777 97.248 65.7676 97.5215 65.291 97.7129C64.8145 97.9043 64.2852 98 63.7031 98ZM62.7656 89.4688V98H61.1543V89.4688H62.7656ZM71.7012 98.1172C71.2207 98.1172 70.7891 98.0391 70.4062 97.8828C70.0234 97.7266 69.6973 97.5098 69.4277 97.2324C69.1621 96.9512 68.957 96.625 68.8125 96.2539C68.6719 95.8789 68.6016 95.4766 68.6016 95.0469V94.8125C68.6016 94.3242 68.6719 93.8809 68.8125 93.4824C68.9531 93.0801 69.1523 92.7344 69.4102 92.4453C69.668 92.1562 69.9766 91.9336 70.3359 91.7773C70.6953 91.6211 71.0918 91.543 71.5254 91.543C71.9746 91.543 72.3711 91.6191 72.7148 91.7715C73.0586 91.9199 73.3457 92.1309 73.5762 92.4043C73.8066 92.6777 73.9805 93.0059 74.0977 93.3887C74.2148 93.7676 74.2734 94.1875 74.2734 94.6484V95.2988H69.3047V94.2324H72.75V94.1152C72.7422 93.8691 72.6953 93.6445 72.6094 93.4414C72.5234 93.2344 72.3906 93.0703 72.2109 92.9492C72.0312 92.8242 71.7988 92.7617 71.5137 92.7617C71.2832 92.7617 71.082 92.8125 70.9102 92.9141C70.7422 93.0117 70.6016 93.1523 70.4883 93.3359C70.3789 93.5156 70.2969 93.7305 70.2422 93.9805C70.1875 94.2305 70.1602 94.5078 70.1602 94.8125V95.0469C70.1602 95.3125 70.1953 95.5586 70.2656 95.7852C70.3398 96.0117 70.4473 96.209 70.5879 96.377C70.7324 96.541 70.9043 96.6699 71.1035 96.7637C71.3066 96.8535 71.5371 96.8984 71.7949 96.8984C72.1191 96.8984 72.4121 96.8359 72.6738 96.7109C72.9395 96.582 73.1699 96.3926 73.3652 96.1426L74.1445 96.9512C74.0117 97.1465 73.832 97.334 73.6055 97.5137C73.3828 97.6934 73.1133 97.8398 72.7969 97.9531C72.4805 98.0625 72.1152 98.1172 71.7012 98.1172ZM78.7969 96.2656C78.7969 96.1328 78.7617 96.0137 78.6914 95.9082C78.6211 95.8027 78.4883 95.707 78.293 95.6211C78.1016 95.5312 77.8203 95.4473 77.4492 95.3691C77.1211 95.2988 76.8184 95.2109 76.541 95.1055C76.2637 95 76.0254 94.873 75.8262 94.7246C75.627 94.5723 75.4707 94.3945 75.3574 94.1914C75.248 93.9844 75.1934 93.7461 75.1934 93.4766C75.1934 93.2148 75.25 92.9688 75.3633 92.7383C75.4766 92.5039 75.6406 92.2988 75.8555 92.123C76.0703 91.9434 76.332 91.8027 76.6406 91.7012C76.9492 91.5957 77.2969 91.543 77.6836 91.543C78.2227 91.543 78.6855 91.6309 79.0723 91.8066C79.4629 91.9824 79.7617 92.2246 79.9688 92.5332C80.1758 92.8379 80.2793 93.1816 80.2793 93.5645H78.7324C78.7324 93.3965 78.6934 93.2441 78.6152 93.1074C78.541 92.9707 78.4258 92.8613 78.2695 92.7793C78.1133 92.6934 77.916 92.6504 77.6777 92.6504C77.4629 92.6504 77.2812 92.6855 77.1328 92.7559C76.9883 92.8262 76.8789 92.918 76.8047 93.0312C76.7305 93.1445 76.6934 93.2695 76.6934 93.4062C76.6934 93.5078 76.7129 93.5996 76.752 93.6816C76.7949 93.7598 76.8633 93.832 76.957 93.8984C77.0508 93.9648 77.1777 94.0254 77.3379 94.0801C77.502 94.1348 77.7031 94.1875 77.9414 94.2383C78.4141 94.332 78.8262 94.457 79.1777 94.6133C79.5332 94.7656 79.8105 94.9688 80.0098 95.2227C80.209 95.4766 80.3086 95.8008 80.3086 96.1953C80.3086 96.4766 80.248 96.7344 80.127 96.9688C80.0059 97.1992 79.8301 97.4004 79.5996 97.5723C79.3691 97.7441 79.0938 97.8789 78.7734 97.9766C78.4531 98.0703 78.0918 98.1172 77.6895 98.1172C77.1074 98.1172 76.6152 98.0137 76.2129 97.8066C75.8105 97.5957 75.5059 97.3301 75.2988 97.0098C75.0918 96.6855 74.9883 96.3496 74.9883 96.002H76.4707C76.4824 96.248 76.5488 96.4453 76.6699 96.5938C76.791 96.7422 76.9434 96.8496 77.127 96.916C77.3145 96.9785 77.5117 97.0098 77.7188 97.0098C77.9531 97.0098 78.1504 96.9785 78.3105 96.916C78.4707 96.8496 78.5918 96.7617 78.6738 96.6523C78.7559 96.5391 78.7969 96.4102 78.7969 96.2656ZM83.127 91.6602V98H81.5742V91.6602H83.127ZM81.4688 90.002C81.4688 89.7715 81.5469 89.5801 81.7031 89.4277C81.8633 89.2754 82.0781 89.1992 82.3477 89.1992C82.6172 89.1992 82.8301 89.2754 82.9863 89.4277C83.1465 89.5801 83.2266 89.7715 83.2266 90.002C83.2266 90.2285 83.1465 90.418 82.9863 90.5703C82.8301 90.7227 82.6172 90.7988 82.3477 90.7988C82.0781 90.7988 81.8633 90.7227 81.7031 90.5703C81.5469 90.418 81.4688 90.2285 81.4688 90.002ZM88.6348 91.6602H90.041V97.8066C90.041 98.3809 89.916 98.8672 89.666 99.2656C89.4199 99.668 89.0742 99.9727 88.6289 100.18C88.1836 100.391 87.666 100.496 87.0762 100.496C86.8223 100.496 86.5469 100.461 86.25 100.391C85.957 100.32 85.6738 100.209 85.4004 100.057C85.1309 99.9082 84.9062 99.7148 84.7266 99.4766L85.4238 98.5625C85.6348 98.8086 85.873 98.9941 86.1387 99.1191C86.4043 99.248 86.6914 99.3125 87 99.3125C87.3125 99.3125 87.5781 99.2539 87.7969 99.1367C88.0195 99.0234 88.1895 98.8555 88.3066 98.6328C88.4277 98.4141 88.4883 98.1445 88.4883 97.8242V93.1074L88.6348 91.6602ZM84.3516 94.9062V94.7832C84.3516 94.2988 84.4102 93.8594 84.5273 93.4648C84.6445 93.0664 84.8125 92.7246 85.0312 92.4395C85.2539 92.1543 85.5215 91.9336 85.834 91.7773C86.1504 91.6211 86.5059 91.543 86.9004 91.543C87.3184 91.543 87.6699 91.6191 87.9551 91.7715C88.2441 91.9238 88.4824 92.1406 88.6699 92.4219C88.8613 92.7031 89.0098 93.0371 89.1152 93.4238C89.2246 93.8066 89.3086 94.2285 89.3672 94.6895V95.0234C89.3125 95.4727 89.2246 95.8848 89.1035 96.2598C88.9863 96.6348 88.8301 96.9629 88.6348 97.2441C88.4395 97.5215 88.1973 97.7363 87.9082 97.8887C87.6191 98.041 87.2793 98.1172 86.8887 98.1172C86.498 98.1172 86.1465 98.0371 85.834 97.877C85.5215 97.7168 85.2539 97.4922 85.0312 97.2031C84.8125 96.9141 84.6445 96.5742 84.5273 96.1836C84.4102 95.793 84.3516 95.3672 84.3516 94.9062ZM85.8984 94.7832V94.9062C85.8984 95.1797 85.9258 95.4355 85.9805 95.6738C86.0352 95.9121 86.1191 96.123 86.2324 96.3066C86.3457 96.4863 86.4883 96.627 86.6602 96.7285C86.832 96.8301 87.0371 96.8809 87.2754 96.8809C87.5957 96.8809 87.8574 96.8145 88.0605 96.6816C88.2676 96.5449 88.4238 96.3594 88.5293 96.125C88.6387 95.8867 88.709 95.6191 88.7402 95.3223V94.4023C88.7207 94.168 88.6777 93.9512 88.6113 93.752C88.5488 93.5527 88.4609 93.3809 88.3477 93.2363C88.2344 93.0918 88.0898 92.9785 87.9141 92.8965C87.7383 92.8145 87.5293 92.7734 87.2871 92.7734C87.0527 92.7734 86.8477 92.8262 86.6719 92.9316C86.4961 93.0332 86.3516 93.1758 86.2383 93.3594C86.125 93.543 86.0391 93.7559 85.9805 93.998C85.9258 94.2402 85.8984 94.502 85.8984 94.7832ZM92.9531 93.0137V98H91.4062V91.6602H92.8594L92.9531 93.0137ZM92.707 94.6016H92.25C92.2539 94.1406 92.3164 93.7227 92.4375 93.3477C92.5586 92.9727 92.7285 92.6504 92.9473 92.3809C93.1699 92.1113 93.4336 91.9043 93.7383 91.7598C94.043 91.6152 94.3828 91.543 94.7578 91.543C95.0625 91.543 95.3379 91.5859 95.584 91.6719C95.8301 91.7578 96.041 91.8945 96.2168 92.082C96.3965 92.2695 96.5332 92.5156 96.627 92.8203C96.7246 93.1211 96.7734 93.4922 96.7734 93.9336V98H95.2148V93.9219C95.2148 93.6328 95.1719 93.4043 95.0859 93.2363C95.0039 93.0684 94.8828 92.9492 94.7227 92.8789C94.5664 92.8086 94.373 92.7734 94.1426 92.7734C93.9043 92.7734 93.6953 92.8223 93.5156 92.9199C93.3398 93.0137 93.1914 93.1445 93.0703 93.3125C92.9531 93.4805 92.8633 93.6738 92.8008 93.8926C92.7383 94.1113 92.707 94.3477 92.707 94.6016Z" fill="#333848"/>
<rect x="24" y="140" width="113.757" height="5" rx="2.5" fill="#E8E6E6"/>
<rect width="39.1939" height="5" transform="translate(24 140)" fill="#FF711F"/>
<path d="M29.2793 129.785C29.2793 129.621 29.2539 129.475 29.2031 129.346C29.1562 129.213 29.0684 129.094 28.9395 128.988C28.8145 128.879 28.6367 128.773 28.4062 128.672C28.1797 128.566 27.8867 128.457 27.5273 128.344C27.1289 128.219 26.7578 128.078 26.4141 127.922C26.0703 127.766 25.7676 127.584 25.5059 127.377C25.248 127.17 25.0469 126.932 24.9023 126.662C24.7578 126.389 24.6855 126.072 24.6855 125.713C24.6855 125.361 24.7598 125.041 24.9082 124.752C25.0605 124.463 25.2754 124.215 25.5527 124.008C25.8301 123.797 26.1562 123.635 26.5312 123.521C26.9102 123.408 27.3281 123.352 27.7852 123.352C28.418 123.352 28.9648 123.467 29.4258 123.697C29.8906 123.928 30.25 124.24 30.5039 124.635C30.7578 125.029 30.8848 125.473 30.8848 125.965H29.2793C29.2793 125.699 29.2227 125.465 29.1094 125.262C29 125.059 28.832 124.898 28.6055 124.781C28.3828 124.664 28.1016 124.605 27.7617 124.605C27.4336 124.605 27.1602 124.654 26.9414 124.752C26.7266 124.85 26.5645 124.982 26.4551 125.15C26.3496 125.318 26.2969 125.506 26.2969 125.713C26.2969 125.869 26.334 126.01 26.4082 126.135C26.4824 126.256 26.5938 126.371 26.7422 126.48C26.8906 126.586 27.0742 126.686 27.293 126.779C27.5156 126.869 27.7734 126.959 28.0664 127.049C28.5352 127.189 28.9453 127.346 29.2969 127.518C29.6523 127.689 29.9473 127.885 30.1816 128.104C30.4199 128.322 30.5977 128.568 30.7148 128.842C30.8359 129.115 30.8965 129.426 30.8965 129.773C30.8965 130.141 30.8242 130.469 30.6797 130.758C30.5352 131.047 30.3281 131.293 30.0586 131.496C29.7891 131.699 29.4648 131.854 29.0859 131.959C28.7109 132.064 28.291 132.117 27.8262 132.117C27.4121 132.117 27.002 132.062 26.5957 131.953C26.1934 131.84 25.8281 131.672 25.5 131.449C25.1719 131.223 24.9102 130.938 24.7148 130.594C24.5195 130.246 24.4219 129.84 24.4219 129.375H26.0391C26.0391 129.645 26.082 129.875 26.168 130.066C26.2578 130.254 26.3828 130.408 26.543 130.529C26.707 130.646 26.8984 130.732 27.1172 130.787C27.3359 130.842 27.5723 130.869 27.8262 130.869C28.1543 130.869 28.4238 130.824 28.6348 130.734C28.8496 130.641 29.0098 130.512 29.1152 130.348C29.2246 130.184 29.2793 129.996 29.2793 129.785ZM33.8789 131.297L35.5781 125.66H37.2363L34.6934 132.961C34.6348 133.117 34.5586 133.287 34.4648 133.471C34.375 133.654 34.2539 133.828 34.1016 133.992C33.9492 134.16 33.7578 134.297 33.5273 134.402C33.3008 134.508 33.0254 134.561 32.7012 134.561C32.5605 134.561 32.4355 134.551 32.3262 134.531C32.2168 134.512 32.1016 134.486 31.9805 134.455V133.295C32.0195 133.299 32.0645 133.301 32.1152 133.301C32.1699 133.305 32.2168 133.307 32.2559 133.307C32.4824 133.307 32.6699 133.279 32.8184 133.225C32.9668 133.174 33.0859 133.09 33.1758 132.973C33.2695 132.859 33.3477 132.711 33.4102 132.527L33.8789 131.297ZM33.041 125.66L34.4766 130.33L34.7285 131.965L33.6621 132.158L31.3711 125.66H33.041ZM41.4727 130.266C41.4727 130.133 41.4375 130.014 41.3672 129.908C41.2969 129.803 41.1641 129.707 40.9688 129.621C40.7773 129.531 40.4961 129.447 40.125 129.369C39.7969 129.299 39.4941 129.211 39.2168 129.105C38.9395 129 38.7012 128.873 38.502 128.725C38.3027 128.572 38.1465 128.395 38.0332 128.191C37.9238 127.984 37.8691 127.746 37.8691 127.477C37.8691 127.215 37.9258 126.969 38.0391 126.738C38.1523 126.504 38.3164 126.299 38.5312 126.123C38.7461 125.943 39.0078 125.803 39.3164 125.701C39.625 125.596 39.9727 125.543 40.3594 125.543C40.8984 125.543 41.3613 125.631 41.748 125.807C42.1387 125.982 42.4375 126.225 42.6445 126.533C42.8516 126.838 42.9551 127.182 42.9551 127.564H41.4082C41.4082 127.396 41.3691 127.244 41.291 127.107C41.2168 126.971 41.1016 126.861 40.9453 126.779C40.7891 126.693 40.5918 126.65 40.3535 126.65C40.1387 126.65 39.957 126.686 39.8086 126.756C39.6641 126.826 39.5547 126.918 39.4805 127.031C39.4062 127.145 39.3691 127.27 39.3691 127.406C39.3691 127.508 39.3887 127.6 39.4277 127.682C39.4707 127.76 39.5391 127.832 39.6328 127.898C39.7266 127.965 39.8535 128.025 40.0137 128.08C40.1777 128.135 40.3789 128.188 40.6172 128.238C41.0898 128.332 41.502 128.457 41.8535 128.613C42.209 128.766 42.4863 128.969 42.6855 129.223C42.8848 129.477 42.9844 129.801 42.9844 130.195C42.9844 130.477 42.9238 130.734 42.8027 130.969C42.6816 131.199 42.5059 131.4 42.2754 131.572C42.0449 131.744 41.7695 131.879 41.4492 131.977C41.1289 132.07 40.7676 132.117 40.3652 132.117C39.7832 132.117 39.291 132.014 38.8887 131.807C38.4863 131.596 38.1816 131.33 37.9746 131.01C37.7676 130.686 37.6641 130.35 37.6641 130.002H39.1465C39.1582 130.248 39.2246 130.445 39.3457 130.594C39.4668 130.742 39.6191 130.85 39.8027 130.916C39.9902 130.979 40.1875 131.01 40.3945 131.01C40.6289 131.01 40.8262 130.979 40.9863 130.916C41.1465 130.85 41.2676 130.762 41.3496 130.652C41.4316 130.539 41.4727 130.41 41.4727 130.266ZM47.1621 125.66V126.773H43.5293V125.66H47.1621ZM44.502 124.102H46.0547V130.172C46.0547 130.359 46.0801 130.504 46.1309 130.605C46.1816 130.707 46.2578 130.775 46.3594 130.811C46.4609 130.846 46.582 130.863 46.7227 130.863C46.8242 130.863 46.918 130.857 47.0039 130.846C47.0898 130.834 47.1621 130.822 47.2207 130.811L47.2266 131.971C47.0977 132.014 46.9512 132.049 46.7871 132.076C46.627 132.104 46.4453 132.117 46.2422 132.117C45.8945 132.117 45.5898 132.059 45.3281 131.941C45.0664 131.82 44.8633 131.627 44.7188 131.361C44.5742 131.092 44.502 130.736 44.502 130.295V124.102ZM51.041 132.117C50.5605 132.117 50.1289 132.039 49.7461 131.883C49.3633 131.727 49.0371 131.51 48.7676 131.232C48.502 130.951 48.2969 130.625 48.1523 130.254C48.0117 129.879 47.9414 129.477 47.9414 129.047V128.812C47.9414 128.324 48.0117 127.881 48.1523 127.482C48.293 127.08 48.4922 126.734 48.75 126.445C49.0078 126.156 49.3164 125.934 49.6758 125.777C50.0352 125.621 50.4316 125.543 50.8652 125.543C51.3145 125.543 51.7109 125.619 52.0547 125.771C52.3984 125.92 52.6855 126.131 52.916 126.404C53.1465 126.678 53.3203 127.006 53.4375 127.389C53.5547 127.768 53.6133 128.188 53.6133 128.648V129.299H48.6445V128.232H52.0898V128.115C52.082 127.869 52.0352 127.645 51.9492 127.441C51.8633 127.234 51.7305 127.07 51.5508 126.949C51.3711 126.824 51.1387 126.762 50.8535 126.762C50.623 126.762 50.4219 126.812 50.25 126.914C50.082 127.012 49.9414 127.152 49.8281 127.336C49.7188 127.516 49.6367 127.73 49.582 127.98C49.5273 128.23 49.5 128.508 49.5 128.812V129.047C49.5 129.312 49.5352 129.559 49.6055 129.785C49.6797 130.012 49.7871 130.209 49.9277 130.377C50.0723 130.541 50.2441 130.67 50.4434 130.764C50.6465 130.854 50.877 130.898 51.1348 130.898C51.459 130.898 51.752 130.836 52.0137 130.711C52.2793 130.582 52.5098 130.393 52.7051 130.143L53.4844 130.951C53.3516 131.146 53.1719 131.334 52.9453 131.514C52.7227 131.693 52.4531 131.84 52.1367 131.953C51.8203 132.062 51.4551 132.117 51.041 132.117ZM56.1914 126.961V132H54.6445V125.66H56.1035L56.1914 126.961ZM55.9629 128.602H55.4883C55.4883 128.16 55.541 127.754 55.6465 127.383C55.7559 127.012 55.916 126.689 56.127 126.416C56.3379 126.139 56.5977 125.924 56.9062 125.771C57.2188 125.619 57.5801 125.543 57.9902 125.543C58.2754 125.543 58.5371 125.586 58.7754 125.672C59.0137 125.754 59.2188 125.885 59.3906 126.064C59.5664 126.24 59.7012 126.471 59.7949 126.756C59.8887 127.037 59.9355 127.375 59.9355 127.77V132H58.3887V127.928C58.3887 127.631 58.3457 127.398 58.2598 127.23C58.1777 127.062 58.0586 126.945 57.9023 126.879C57.7461 126.809 57.5586 126.773 57.3398 126.773C57.0977 126.773 56.8887 126.822 56.7129 126.92C56.541 127.014 56.3984 127.145 56.2852 127.312C56.1758 127.48 56.0938 127.674 56.0391 127.893C55.9883 128.111 55.9629 128.348 55.9629 128.602ZM59.8184 128.314L59.1797 128.432C59.1836 128.033 59.2383 127.66 59.3438 127.312C59.4492 126.961 59.6035 126.654 59.8066 126.393C60.0137 126.127 60.2695 125.92 60.5742 125.771C60.8828 125.619 61.2383 125.543 61.6406 125.543C61.9531 125.543 62.2344 125.588 62.4844 125.678C62.7383 125.764 62.9551 125.902 63.1348 126.094C63.3145 126.281 63.4512 126.525 63.5449 126.826C63.6426 127.127 63.6914 127.494 63.6914 127.928V132H62.1328V127.922C62.1328 127.613 62.0898 127.377 62.0039 127.213C61.9219 127.049 61.8027 126.936 61.6465 126.873C61.4902 126.807 61.3066 126.773 61.0957 126.773C60.8809 126.773 60.6934 126.814 60.5332 126.896C60.377 126.975 60.2441 127.084 60.1348 127.225C60.0293 127.365 59.9492 127.529 59.8945 127.717C59.8438 127.9 59.8184 128.1 59.8184 128.314ZM70.7344 132H68.8945L68.9062 130.734H70.7344C71.2305 130.734 71.6465 130.625 71.9824 130.406C72.3184 130.184 72.5723 129.865 72.7441 129.451C72.916 129.033 73.002 128.533 73.002 127.951V127.512C73.002 127.062 72.9531 126.666 72.8555 126.322C72.7578 125.979 72.6133 125.689 72.4219 125.455C72.2344 125.221 72.002 125.043 71.7246 124.922C71.4473 124.801 71.1289 124.74 70.7695 124.74H68.8594V123.469H70.7695C71.3398 123.469 71.8594 123.564 72.3281 123.756C72.8008 123.947 73.209 124.223 73.5527 124.582C73.9004 124.938 74.166 125.363 74.3496 125.859C74.5371 126.355 74.6309 126.91 74.6309 127.523V127.951C74.6309 128.561 74.5371 129.115 74.3496 129.615C74.166 130.111 73.9004 130.537 73.5527 130.893C73.209 131.248 72.7988 131.521 72.3223 131.713C71.8457 131.904 71.3164 132 70.7344 132ZM69.7969 123.469V132H68.1855V123.469H69.7969ZM78.7324 132.117C78.252 132.117 77.8203 132.039 77.4375 131.883C77.0547 131.727 76.7285 131.51 76.459 131.232C76.1934 130.951 75.9883 130.625 75.8438 130.254C75.7031 129.879 75.6328 129.477 75.6328 129.047V128.812C75.6328 128.324 75.7031 127.881 75.8438 127.482C75.9844 127.08 76.1836 126.734 76.4414 126.445C76.6992 126.156 77.0078 125.934 77.3672 125.777C77.7266 125.621 78.123 125.543 78.5566 125.543C79.0059 125.543 79.4023 125.619 79.7461 125.771C80.0898 125.92 80.377 126.131 80.6074 126.404C80.8379 126.678 81.0117 127.006 81.1289 127.389C81.2461 127.768 81.3047 128.188 81.3047 128.648V129.299H76.3359V128.232H79.7812V128.115C79.7734 127.869 79.7266 127.645 79.6406 127.441C79.5547 127.234 79.4219 127.07 79.2422 126.949C79.0625 126.824 78.8301 126.762 78.5449 126.762C78.3145 126.762 78.1133 126.812 77.9414 126.914C77.7734 127.012 77.6328 127.152 77.5195 127.336C77.4102 127.516 77.3281 127.73 77.2734 127.98C77.2188 128.23 77.1914 128.508 77.1914 128.812V129.047C77.1914 129.312 77.2266 129.559 77.2969 129.785C77.3711 130.012 77.4785 130.209 77.6191 130.377C77.7637 130.541 77.9355 130.67 78.1348 130.764C78.3379 130.854 78.5684 130.898 78.8262 130.898C79.1504 130.898 79.4434 130.836 79.7051 130.711C79.9707 130.582 80.2012 130.393 80.3965 130.143L81.1758 130.951C81.043 131.146 80.8633 131.334 80.6367 131.514C80.4141 131.693 80.1445 131.84 79.8281 131.953C79.5117 132.062 79.1465 132.117 78.7324 132.117ZM85.8281 130.266C85.8281 130.133 85.793 130.014 85.7227 129.908C85.6523 129.803 85.5195 129.707 85.3242 129.621C85.1328 129.531 84.8516 129.447 84.4805 129.369C84.1523 129.299 83.8496 129.211 83.5723 129.105C83.2949 129 83.0566 128.873 82.8574 128.725C82.6582 128.572 82.502 128.395 82.3887 128.191C82.2793 127.984 82.2246 127.746 82.2246 127.477C82.2246 127.215 82.2812 126.969 82.3945 126.738C82.5078 126.504 82.6719 126.299 82.8867 126.123C83.1016 125.943 83.3633 125.803 83.6719 125.701C83.9805 125.596 84.3281 125.543 84.7148 125.543C85.2539 125.543 85.7168 125.631 86.1035 125.807C86.4941 125.982 86.793 126.225 87 126.533C87.207 126.838 87.3105 127.182 87.3105 127.564H85.7637C85.7637 127.396 85.7246 127.244 85.6465 127.107C85.5723 126.971 85.457 126.861 85.3008 126.779C85.1445 126.693 84.9473 126.65 84.709 126.65C84.4941 126.65 84.3125 126.686 84.1641 126.756C84.0195 126.826 83.9102 126.918 83.8359 127.031C83.7617 127.145 83.7246 127.27 83.7246 127.406C83.7246 127.508 83.7441 127.6 83.7832 127.682C83.8262 127.76 83.8945 127.832 83.9883 127.898C84.082 127.965 84.209 128.025 84.3691 128.08C84.5332 128.135 84.7344 128.188 84.9727 128.238C85.4453 128.332 85.8574 128.457 86.209 128.613C86.5645 128.766 86.8418 128.969 87.041 129.223C87.2402 129.477 87.3398 129.801 87.3398 130.195C87.3398 130.477 87.2793 130.734 87.1582 130.969C87.0371 131.199 86.8613 131.4 86.6309 131.572C86.4004 131.744 86.125 131.879 85.8047 131.977C85.4844 132.07 85.123 132.117 84.7207 132.117C84.1387 132.117 83.6465 132.014 83.2441 131.807C82.8418 131.596 82.5371 131.33 82.3301 131.01C82.123 130.686 82.0195 130.35 82.0195 130.002H83.502C83.5137 130.248 83.5801 130.445 83.7012 130.594C83.8223 130.742 83.9746 130.85 84.1582 130.916C84.3457 130.979 84.543 131.01 84.75 131.01C84.9844 131.01 85.1816 130.979 85.3418 130.916C85.502 130.85 85.623 130.762 85.7051 130.652C85.7871 130.539 85.8281 130.41 85.8281 130.266ZM90.1582 125.66V132H88.6055V125.66H90.1582ZM88.5 124.002C88.5 123.771 88.5781 123.58 88.7344 123.428C88.8945 123.275 89.1094 123.199 89.3789 123.199C89.6484 123.199 89.8613 123.275 90.0176 123.428C90.1777 123.58 90.2578 123.771 90.2578 124.002C90.2578 124.229 90.1777 124.418 90.0176 124.57C89.8613 124.723 89.6484 124.799 89.3789 124.799C89.1094 124.799 88.8945 124.723 88.7344 124.57C88.5781 124.418 88.5 124.229 88.5 124.002ZM95.666 125.66H97.0723V131.807C97.0723 132.381 96.9473 132.867 96.6973 133.266C96.4512 133.668 96.1055 133.973 95.6602 134.18C95.2148 134.391 94.6973 134.496 94.1074 134.496C93.8535 134.496 93.5781 134.461 93.2812 134.391C92.9883 134.32 92.7051 134.209 92.4316 134.057C92.1621 133.908 91.9375 133.715 91.7578 133.477L92.4551 132.562C92.666 132.809 92.9043 132.994 93.1699 133.119C93.4355 133.248 93.7227 133.312 94.0312 133.312C94.3438 133.312 94.6094 133.254 94.8281 133.137C95.0508 133.023 95.2207 132.855 95.3379 132.633C95.459 132.414 95.5195 132.145 95.5195 131.824V127.107L95.666 125.66ZM91.3828 128.906V128.783C91.3828 128.299 91.4414 127.859 91.5586 127.465C91.6758 127.066 91.8438 126.725 92.0625 126.439C92.2852 126.154 92.5527 125.934 92.8652 125.777C93.1816 125.621 93.5371 125.543 93.9316 125.543C94.3496 125.543 94.7012 125.619 94.9863 125.771C95.2754 125.924 95.5137 126.141 95.7012 126.422C95.8926 126.703 96.041 127.037 96.1465 127.424C96.2559 127.807 96.3398 128.229 96.3984 128.689V129.023C96.3438 129.473 96.2559 129.885 96.1348 130.26C96.0176 130.635 95.8613 130.963 95.666 131.244C95.4707 131.521 95.2285 131.736 94.9395 131.889C94.6504 132.041 94.3105 132.117 93.9199 132.117C93.5293 132.117 93.1777 132.037 92.8652 131.877C92.5527 131.717 92.2852 131.492 92.0625 131.203C91.8438 130.914 91.6758 130.574 91.5586 130.184C91.4414 129.793 91.3828 129.367 91.3828 128.906ZM92.9297 128.783V128.906C92.9297 129.18 92.957 129.436 93.0117 129.674C93.0664 129.912 93.1504 130.123 93.2637 130.307C93.377 130.486 93.5195 130.627 93.6914 130.729C93.8633 130.83 94.0684 130.881 94.3066 130.881C94.627 130.881 94.8887 130.814 95.0918 130.682C95.2988 130.545 95.4551 130.359 95.5605 130.125C95.6699 129.887 95.7402 129.619 95.7715 129.322V128.402C95.752 128.168 95.709 127.951 95.6426 127.752C95.5801 127.553 95.4922 127.381 95.3789 127.236C95.2656 127.092 95.1211 126.979 94.9453 126.896C94.7695 126.814 94.5605 126.773 94.3184 126.773C94.084 126.773 93.8789 126.826 93.7031 126.932C93.5273 127.033 93.3828 127.176 93.2695 127.359C93.1562 127.543 93.0703 127.756 93.0117 127.998C92.957 128.24 92.9297 128.502 92.9297 128.783ZM99.9844 127.014V132H98.4375V125.66H99.8906L99.9844 127.014ZM99.7383 128.602H99.2812C99.2852 128.141 99.3477 127.723 99.4688 127.348C99.5898 126.973 99.7598 126.65 99.9785 126.381C100.201 126.111 100.465 125.904 100.77 125.76C101.074 125.615 101.414 125.543 101.789 125.543C102.094 125.543 102.369 125.586 102.615 125.672C102.861 125.758 103.072 125.895 103.248 126.082C103.428 126.27 103.564 126.516 103.658 126.82C103.756 127.121 103.805 127.492 103.805 127.934V132H102.246V127.922C102.246 127.633 102.203 127.404 102.117 127.236C102.035 127.068 101.914 126.949 101.754 126.879C101.598 126.809 101.404 126.773 101.174 126.773C100.936 126.773 100.727 126.822 100.547 126.92C100.371 127.014 100.223 127.145 100.102 127.312C99.9844 127.48 99.8945 127.674 99.832 127.893C99.7695 128.111 99.7383 128.348 99.7383 128.602Z" fill="#333848"/>
</g>
<path d="M144 21H142.75C142.75 21.69 143.31 22.25 144 22.25V21ZM155.293 5.707L154.778 6.846C155.009 6.9507 155.267 6.98238 155.517 6.93682C155.767 6.89127 155.997 6.77064 156.177 6.591L155.293 5.707ZM158 3L158.884 2.116C158.768 1.99989 158.63 1.90779 158.478 1.84495C158.327 1.78211 158.164 1.74977 158 1.74977C157.836 1.74977 157.673 1.78211 157.522 1.84495C157.37 1.90779 157.232 1.99989 157.116 2.116L158 3ZM162 7L162.884 7.884C163 7.76792 163.092 7.63011 163.155 7.47843C163.218 7.32675 163.25 7.16418 163.25 7C163.25 6.83582 163.218 6.67325 163.155 6.52157C163.092 6.36989 163 6.23208 162.884 6.116L162 7ZM159.293 9.707L158.409 8.823C158.229 9.00273 158.108 9.23303 158.063 9.48317C158.017 9.73331 158.049 9.9914 158.154 10.223L159.293 9.707ZM142.75 13V21H145.25V13H142.75ZM152 3.75C150.785 3.75 149.582 3.98926 148.46 4.45411C147.338 4.91897 146.318 5.60032 145.459 6.45926C144.6 7.3182 143.919 8.33792 143.454 9.46018C142.989 10.5824 142.75 11.7853 142.75 13H145.25C145.25 11.2098 145.961 9.4929 147.227 8.22703C148.493 6.96116 150.21 6.25 152 6.25V3.75ZM155.808 4.568C154.612 4.02669 153.313 3.74777 152 3.75V6.25C152.958 6.24778 153.905 6.45102 154.778 6.846L155.808 4.568ZM156.177 6.591L158.884 3.884L157.116 2.116L154.409 4.823L156.177 6.591ZM157.117 3.884L161.117 7.884L162.884 6.116L158.884 2.116L157.117 3.884ZM161.117 6.116L158.409 8.823L160.177 10.591L162.884 7.884L161.117 6.116ZM161.25 13C161.252 11.6868 160.973 10.3884 160.432 9.192L158.154 10.223C158.549 11.0957 158.752 12.042 158.75 13L161.25 13ZM152 22.25C154.453 22.25 156.806 21.2754 158.541 19.5407C160.275 17.806 161.25 15.4533 161.25 13L158.75 13C158.75 14.7902 158.039 16.5071 156.773 17.773C155.507 19.0388 153.79 19.75 152 19.75V22.25ZM144 22.25H152V19.75H144V22.25Z" fill="#333848"/>
<path d="M150 13C150 14.1046 150.895 15 152 15C153.105 15 154 14.1046 154 13C154 11.8954 153.105 11 152 11C150.895 11 150 11.8954 150 13Z" fill="#333848"/>
<path d="M144 21L152 13" stroke="#333848" stroke-width="2.5" stroke-linecap="round" stroke-linejoin="round"/>
<defs>
<filter id="filter0_d_232_1498" x="5" y="12" width="151.892" height="156" filterUnits="userSpaceOnUse" color-interpolation-filters="sRGB">
<feFlood flood-opacity="0" result="BackgroundImageFix"/>
<feColorMatrix in="SourceAlpha" type="matrix" values="0 0 0 0 0 0 0 0 0 0 0 0 0 0 0 0 0 0 127 0" result="hardAlpha"/>
<feOffset dy="4"/>
<feGaussianBlur stdDeviation="2"/>
<feComposite in2="hardAlpha" operator="out"/>
<feColorMatrix type="matrix" values="0 0 0 0 0 0 0 0 0 0 0 0 0 0 0 0 0 0 0.25 0"/>
<feBlend mode="normal" in2="BackgroundImageFix" result="effect1_dropShadow_232_1498"/>
<feBlend mode="normal" in="SourceGraphic" in2="effect1_dropShadow_232_1498" result="shape"/>
</filter>
</defs>
</svg>
