<svg width="48" height="43" viewBox="0 0 48 43" fill="none" xmlns="http://www.w3.org/2000/svg">
<path d="M1.33016 1C1.33016 1 0.121145 5.79086 2.33028 8C4.53942 10.2091 7.69365 6.72078 9.83041 9C11.8336 11.1368 8.39244 13.3038 10.3303 15.5C12.5265 17.9891 19.9832 10.6528 22.3304 13C24.6776 15.3472 12.5512 24.5867 14.8304 27C17.2437 29.5552 26.3451 21.0147 28.8304 23.5C31.3157 25.9853 26.3451 30.5147 28.8304 33C31.3157 35.4853 34.417 31.4448 36.8303 34C39.1095 36.4133 34.6804 38.9708 36.8303 41.5C39.3595 44.4756 46.3297 38 47.8301 38" stroke="#F56522"/>
</svg>
